<?xml version="1.0" encoding="UTF-8" standalone="no"?><svg xmlns="http://www.w3.org/2000/svg" xmlns:xlink="http://www.w3.org/1999/xlink" contentStyleType="text/css" height="357px" preserveAspectRatio="none" style="width:249px;height:357px;background:#FFFFFF;" version="1.1" viewBox="0 0 249 357" width="249px" zoomAndPan="magnify"><defs/><g><!--MD5=[942babee6400ac08a7abb422ea42d6b2]
cluster Estrutura API--><g id="cluster_Estrutura API"><path d="M8.5,6.0137 L100.5,6.0137 A3.75,3.75 0 0 1 103,8.5137 L110,30.6348 L239.5,30.6348 A2.5,2.5 0 0 1 242,33.1348 L242,347.5137 A2.5,2.5 0 0 1 239.5,350.0137 L8.5,350.0137 A2.5,2.5 0 0 1 6,347.5137 L6,8.5137 A2.5,2.5 0 0 1 8.5,6.0137 " fill="none" style="stroke:#000000;stroke-width:1.5;"/><line style="stroke:#000000;stroke-width:1.5;" x1="6" x2="110" y1="30.6348" y2="30.6348"/><text fill="#000000" font-family="sans-serif" font-size="14" font-weight="bold" lengthAdjust="spacing" textLength="91" x="10" y="23.1211">Estrutura API</text></g><!--MD5=[c05fcadc036a699206cfdfa4a4fdb889]
entity controller--><g id="elem_controller"><path d="M25,43.0137 L66,43.0137 A3.75,3.75 0 0 1 68.5,45.5137 L75.5,64.0137 L109,64.0137 A2.5,2.5 0 0 1 111.5,66.5137 L111.5,97.1348 A2.5,2.5 0 0 1 109,99.6348 L25,99.6348 A2.5,2.5 0 0 1 22.5,97.1348 L22.5,45.5137 A2.5,2.5 0 0 1 25,43.0137 " fill="#F1F1F1" style="stroke:#181818;stroke-width:0.5;"/><line style="stroke:#181818;stroke-width:0.5;" x1="22.5" x2="75.5" y1="64.0137" y2="64.0137"/><text fill="#000000" font-family="sans-serif" font-size="14" lengthAdjust="spacing" textLength="59" x="32.5" y="86.1211">controller</text></g><!--MD5=[76aeba0ab875879ea5d21554d0007a3a]
entity model--><g id="elem_model"><path d="M86.5,277.0137 L127.5,277.0137 A3.75,3.75 0 0 1 130,279.5137 L137,298.0137 L151.5,298.0137 A2.5,2.5 0 0 1 154,300.5137 L154,331.1348 A2.5,2.5 0 0 1 151.5,333.6348 L86.5,333.6348 A2.5,2.5 0 0 1 84,331.1348 L84,279.5137 A2.5,2.5 0 0 1 86.5,277.0137 " fill="#F1F1F1" style="stroke:#181818;stroke-width:0.5;"/><line style="stroke:#181818;stroke-width:0.5;" x1="84" x2="137" y1="298.0137" y2="298.0137"/><text fill="#000000" font-family="sans-serif" font-size="14" lengthAdjust="spacing" textLength="38" x="94" y="320.1211">model</text></g><!--MD5=[24b005fcbd1feaad7f7dedc55a678d14]
entity repository--><g id="elem_repository"><path d="M135,160.0137 L176,160.0137 A3.75,3.75 0 0 1 178.5,162.5137 L185.5,181.0137 L223,181.0137 A2.5,2.5 0 0 1 225.5,183.5137 L225.5,214.1348 A2.5,2.5 0 0 1 223,216.6348 L135,216.6348 A2.5,2.5 0 0 1 132.5,214.1348 L132.5,162.5137 A2.5,2.5 0 0 1 135,160.0137 " fill="#F1F1F1" style="stroke:#181818;stroke-width:0.5;"/><line style="stroke:#181818;stroke-width:0.5;" x1="132.5" x2="185.5" y1="181.0137" y2="181.0137"/><text fill="#000000" font-family="sans-serif" font-size="14" lengthAdjust="spacing" textLength="63" x="142.5" y="203.1211">repository</text></g><!--MD5=[38bfa9dc6018363cafe15f923a4b8db9]
entity service--><g id="elem_service"><path d="M25,160.0137 L66,160.0137 A3.75,3.75 0 0 1 68.5,162.5137 L75.5,181.0137 L95,181.0137 A2.5,2.5 0 0 1 97.5,183.5137 L97.5,214.1348 A2.5,2.5 0 0 1 95,216.6348 L25,216.6348 A2.5,2.5 0 0 1 22.5,214.1348 L22.5,162.5137 A2.5,2.5 0 0 1 25,160.0137 " fill="#F1F1F1" style="stroke:#181818;stroke-width:0.5;"/><line style="stroke:#181818;stroke-width:0.5;" x1="22.5" x2="75.5" y1="181.0137" y2="181.0137"/><text fill="#000000" font-family="sans-serif" font-size="14" lengthAdjust="spacing" textLength="45" x="32.5" y="203.1211">service</text></g><!--MD5=[7e32a097be010eedbcd0f8c178ded199]
link controller to service--><g id="link_controller_service"><path d="M65.32,100.0637 C64.33,116.4337 63.06,137.3137 62.01,154.5637 " fill="none" id="controller-to-service" style="stroke:#181818;stroke-width:1.0;"/><polygon fill="#181818" points="61.69,159.7937,66.2467,151.0623,62.0037,154.8035,58.2625,150.5605,61.69,159.7937" style="stroke:#181818;stroke-width:1.0;"/></g><!--MD5=[a5efee5bc3df6b7ce5cbe3af30884be6]
link service to model--><g id="link_service_model"><path d="M74.13,217.0637 C82.61,233.5837 93.43,254.6737 102.33,272.0137 " fill="none" id="service-to-model" style="stroke:#181818;stroke-width:1.0;"/><polygon fill="#181818" points="104.78,276.7937,104.2196,266.9608,102.4926,272.3476,97.1058,270.6206,104.78,276.7937" style="stroke:#181818;stroke-width:1.0;"/></g><!--MD5=[108071491d6574585b4e8a44c7f12a19]
link service to repository--><g id="link_service_repository"><path d="M97.65,188.5137 C107.48,188.5137 117.32,188.5137 127.15,188.5137 " fill="none" id="service-to-repository" style="stroke:#181818;stroke-width:1.0;"/><polygon fill="#181818" points="132.29,188.5137,123.29,184.5137,127.29,188.5137,123.29,192.5137,132.29,188.5137" style="stroke:#181818;stroke-width:1.0;"/></g><!--MD5=[111291059cbd8930dde0ed36a8d59bf0]
link repository to model--><g id="link_repository_model"><path d="M164.63,217.0637 C156.01,233.5837 145,254.6737 135.96,272.0137 " fill="none" id="repository-to-model" style="stroke:#181818;stroke-width:1.0;"/><polygon fill="#181818" points="133.46,276.7937,141.1654,270.6596,135.7699,272.3592,134.0703,266.9637,133.46,276.7937" style="stroke:#181818;stroke-width:1.0;"/></g><!--MD5=[4531429c9ae8198230c7f5b58670321f]
@startuml
'https://plantuml.com/component-diagram


package "Estrutura API" {
  folder "controller" {
      }
  folder "model" {
      }
  folder "repository" {
      }
  folder "service" {
      }
}
"controller"- ->"service"
"service"- ->"model"
"service"-right->"repository"
"repository"- ->"model"





@enduml

@startuml


package "Estrutura API" {
  folder "controller" {
      }
  folder "model" {
      }
  folder "repository" {
      }
  folder "service" {
      }
}
"controller"- ->"service"
"service"- ->"model"
"service"-right->"repository"
"repository"- ->"model"





@enduml

PlantUML version 1.2022.13(Sat Nov 19 13:22:17 WET 2022)
(GPL source distribution)
Java Runtime: OpenJDK Runtime Environment
JVM: OpenJDK 64-Bit Server VM
Default Encoding: Cp1252
Language: pt
Country: PT
--></g></svg>