<?xml version="1.0" encoding="UTF-8" standalone="no"?><svg xmlns="http://www.w3.org/2000/svg" xmlns:xlink="http://www.w3.org/1999/xlink" contentStyleType="text/css" height="695px" preserveAspectRatio="none" style="width:496px;height:695px;background:#FFFFFF;" version="1.1" viewBox="0 0 496 695" width="496px" zoomAndPan="magnify"><defs/><g><!--MD5=[6e8f311b0aa23032184ffba0ef926f91]
entity App--><g id="elem_App"><rect fill="#F1F1F1" height="46.4883" rx="2.5" ry="2.5" style="stroke:#181818;stroke-width:0.5;" width="68" x="163" y="7"/><rect fill="#F1F1F1" height="10" style="stroke:#181818;stroke-width:0.5;" width="15" x="211" y="12"/><rect fill="#F1F1F1" height="2" style="stroke:#181818;stroke-width:0.5;" width="4" x="209" y="14"/><rect fill="#F1F1F1" height="2" style="stroke:#181818;stroke-width:0.5;" width="4" x="209" y="18"/><text fill="#000000" font-family="sans-serif" font-size="14" lengthAdjust="spacing" textLength="28" x="178" y="40.5352">App</text></g><!--MD5=[2ff09eb542f7dc511dbd4d46f4900c31]
entity Products--><g id="elem_Products"><rect fill="#F1F1F1" height="46.4883" rx="2.5" ry="2.5" style="stroke:#181818;stroke-width:0.5;" width="100" x="59" y="219"/><rect fill="#F1F1F1" height="10" style="stroke:#181818;stroke-width:0.5;" width="15" x="139" y="224"/><rect fill="#F1F1F1" height="2" style="stroke:#181818;stroke-width:0.5;" width="4" x="137" y="226"/><rect fill="#F1F1F1" height="2" style="stroke:#181818;stroke-width:0.5;" width="4" x="137" y="230"/><text fill="#000000" font-family="sans-serif" font-size="14" lengthAdjust="spacing" textLength="60" x="74" y="252.5352">Products</text></g><!--MD5=[900ed3785ab1338f9b56017cf8365651]
entity Review--><g id="elem_Review"><rect fill="#F1F1F1" height="46.4883" rx="2.5" ry="2.5" style="stroke:#181818;stroke-width:0.5;" width="87" x="202.5" y="113"/><rect fill="#F1F1F1" height="10" style="stroke:#181818;stroke-width:0.5;" width="15" x="269.5" y="118"/><rect fill="#F1F1F1" height="2" style="stroke:#181818;stroke-width:0.5;" width="4" x="267.5" y="120"/><rect fill="#F1F1F1" height="2" style="stroke:#181818;stroke-width:0.5;" width="4" x="267.5" y="124"/><text fill="#000000" font-family="sans-serif" font-size="14" lengthAdjust="spacing" textLength="47" x="217.5" y="146.5352">Review</text></g><!--MD5=[ff143e856ee5e0a73a42929a581b80c9]
entity Votes--><g id="elem_Votes"><rect fill="#F1F1F1" height="46.4883" rx="2.5" ry="2.5" style="stroke:#181818;stroke-width:0.5;" width="78" x="404" y="431"/><rect fill="#F1F1F1" height="10" style="stroke:#181818;stroke-width:0.5;" width="15" x="462" y="436"/><rect fill="#F1F1F1" height="2" style="stroke:#181818;stroke-width:0.5;" width="4" x="460" y="438"/><rect fill="#F1F1F1" height="2" style="stroke:#181818;stroke-width:0.5;" width="4" x="460" y="442"/><text fill="#000000" font-family="sans-serif" font-size="14" lengthAdjust="spacing" textLength="38" x="419" y="464.5352">Votes</text></g><!--MD5=[2761986561326581c43d55402af5f14e]
entity Authentication--><g id="elem_Authentication"><rect fill="#F1F1F1" height="46.4883" rx="2.5" ry="2.5" style="stroke:#181818;stroke-width:0.5;" width="141" x="129.5" y="537"/><rect fill="#F1F1F1" height="10" style="stroke:#181818;stroke-width:0.5;" width="15" x="250.5" y="542"/><rect fill="#F1F1F1" height="2" style="stroke:#181818;stroke-width:0.5;" width="4" x="248.5" y="544"/><rect fill="#F1F1F1" height="2" style="stroke:#181818;stroke-width:0.5;" width="4" x="248.5" y="548"/><text fill="#000000" font-family="sans-serif" font-size="14" lengthAdjust="spacing" textLength="101" x="144.5" y="570.5352">Authentication</text></g><!--MD5=[aab01ee34286a9a2b043153f1314037e]
entity Products_n--><g id="elem_Products_n"><rect fill="#F1F1F1" height="46.4883" rx="2.5" ry="2.5" style="stroke:#181818;stroke-width:0.5;" width="116" x="162" y="325"/><rect fill="#F1F1F1" height="10" style="stroke:#181818;stroke-width:0.5;" width="15" x="258" y="330"/><rect fill="#F1F1F1" height="2" style="stroke:#181818;stroke-width:0.5;" width="4" x="256" y="332"/><rect fill="#F1F1F1" height="2" style="stroke:#181818;stroke-width:0.5;" width="4" x="256" y="336"/><text fill="#000000" font-family="sans-serif" font-size="14" lengthAdjust="spacing" textLength="76" x="177" y="358.5352">Products_n</text></g><!--MD5=[fc1fc8031011a62ddc06277107bdb831]
entity Review_n--><g id="elem_Review_n"><rect fill="#F1F1F1" height="46.4883" rx="2.5" ry="2.5" style="stroke:#181818;stroke-width:0.5;" width="103" x="194.5" y="219"/><rect fill="#F1F1F1" height="10" style="stroke:#181818;stroke-width:0.5;" width="15" x="277.5" y="224"/><rect fill="#F1F1F1" height="2" style="stroke:#181818;stroke-width:0.5;" width="4" x="275.5" y="226"/><rect fill="#F1F1F1" height="2" style="stroke:#181818;stroke-width:0.5;" width="4" x="275.5" y="230"/><text fill="#000000" font-family="sans-serif" font-size="14" lengthAdjust="spacing" textLength="63" x="209.5" y="252.5352">Review_n</text></g><!--MD5=[2a7e030bd65cd261c9b9dd80aa6a7608]
entity Votes_n--><g id="elem_Votes_n"><rect fill="#F1F1F1" height="46.4883" rx="2.5" ry="2.5" style="stroke:#181818;stroke-width:0.5;" width="94" x="396" y="537"/><rect fill="#F1F1F1" height="10" style="stroke:#181818;stroke-width:0.5;" width="15" x="470" y="542"/><rect fill="#F1F1F1" height="2" style="stroke:#181818;stroke-width:0.5;" width="4" x="468" y="544"/><rect fill="#F1F1F1" height="2" style="stroke:#181818;stroke-width:0.5;" width="4" x="468" y="548"/><text fill="#000000" font-family="sans-serif" font-size="14" lengthAdjust="spacing" textLength="54" x="411" y="570.5352">Votes_n</text></g><!--MD5=[18778eedd4380e662114c91be3229e59]
entity Authentication_n--><g id="elem_Authentication_n"><rect fill="#F1F1F1" height="46.4883" rx="2.5" ry="2.5" style="stroke:#181818;stroke-width:0.5;" width="157" x="121.5" y="643"/><rect fill="#F1F1F1" height="10" style="stroke:#181818;stroke-width:0.5;" width="15" x="258.5" y="648"/><rect fill="#F1F1F1" height="2" style="stroke:#181818;stroke-width:0.5;" width="4" x="256.5" y="650"/><rect fill="#F1F1F1" height="2" style="stroke:#181818;stroke-width:0.5;" width="4" x="256.5" y="654"/><text fill="#000000" font-family="sans-serif" font-size="14" lengthAdjust="spacing" textLength="117" x="136.5" y="676.5352">Authentication_n</text></g><!--MD5=[cab1defa56909d6218b68281c7afe38d]
link App to Products--><g id="link_App_Products"><path d="M187.75,53.08 C171.47,91.91 137.79,172.3 120.22,214.23 " fill="none" id="App-to-Products" style="stroke:#181818;stroke-width:1.0;"/><ellipse cx="118.26" cy="218.9" fill="#FFFFFF" rx="6" ry="6" style="stroke:#181818;stroke-width:1.5;"/><path d="M127.511,215.1027 A10,10 0 0 0 114.4627 209.649" fill="#FFFFFF" style="stroke:#181818;stroke-width:1.5;"/></g><!--MD5=[acdf54b80ae5dd7306c4c25cab6d2f9d]
link App to Review--><g id="link_App_Review"><path d="M207.39,53.06 C214.99,69.19 225.34,91.15 233.41,108.28 " fill="none" id="App-to-Review" style="stroke:#181818;stroke-width:1.0;"/><ellipse cx="235.62" cy="112.98" fill="#FFFFFF" rx="6" ry="6" style="stroke:#181818;stroke-width:1.5;"/><path d="M239.0115,103.5727 A10,10 0 0 0 226.2127 109.5885" fill="#FFFFFF" style="stroke:#181818;stroke-width:1.5;"/></g><!--MD5=[1e54d71c86cc655107a5643ede3207c0]
link App to Votes--><g id="link_App_Votes"><path d="M231.4,51.35 C279.87,81.78 367.85,143.69 417,219 C455.12,277.41 461.48,301.47 456,371 C454.56,389.33 451.32,409.76 448.44,425.64 " fill="none" id="App-to-Votes" style="stroke:#181818;stroke-width:1.0;"/><ellipse cx="447.48" cy="430.84" fill="#FFFFFF" rx="6" ry="6" style="stroke:#181818;stroke-width:1.5;"/><path d="M455.7251,425.1816 A10,10 0 0 0 441.8216 422.5949" fill="#FFFFFF" style="stroke:#181818;stroke-width:1.5;"/></g><!--MD5=[33451b8057b3fb0150710b3e1130d7dd]
link App to Authentication--><g id="link_App_Authentication"><path d="M162.85,48.46 C107.91,79.27 6,148.84 6,241 C6,241 6,241 6,349 C6,435.11 95.09,500.95 152.52,534.45 " fill="none" id="App-to-Authentication" style="stroke:#181818;stroke-width:1.0;"/><ellipse cx="156.95" cy="537" fill="#FFFFFF" rx="6" ry="6" style="stroke:#181818;stroke-width:1.5;"/><path d="M154.3495,527.344 A10,10 0 0 0 147.294 539.6005" fill="#FFFFFF" style="stroke:#181818;stroke-width:1.5;"/></g><!--MD5=[d09d5ec64a848d92ac36254d0b346f11]
link Products to Products_n--><g id="link_Products_Products_n"><path d="M132.54,265.06 C150.05,281.46 174.01,303.91 192.42,321.16 " fill="none" id="Products-to-Products_n" style="stroke:#181818;stroke-width:1.0;"/><ellipse cx="196.49" cy="324.98" fill="#FFFFFF" rx="6" ry="6" style="stroke:#181818;stroke-width:1.5;"/><path d="M196.1663,314.9852 A10,10 0 0 0 186.4952 325.3037" fill="#FFFFFF" style="stroke:#181818;stroke-width:1.5;"/></g><!--MD5=[210d76f6ff784f8411b78c0410678de5]
link Review to Review_n--><g id="link_Review_Review_n"><path d="M246,159.06 C246,175.05 246,196.78 246,213.84 " fill="none" id="Review-to-Review_n" style="stroke:#181818;stroke-width:1.0;"/><ellipse cx="246" cy="218.98" fill="#FFFFFF" rx="6" ry="6" style="stroke:#181818;stroke-width:1.5;"/><path d="M253.0711,211.9089 A10,10 0 0 0 238.9289 211.9089" fill="#FFFFFF" style="stroke:#181818;stroke-width:1.5;"/></g><!--MD5=[302d1a6048679b47e0f972414fbc8e08]
link Votes to Votes_n--><g id="link_Votes_Votes_n"><path d="M443,477.06 C443,493.05 443,514.78 443,531.84 " fill="none" id="Votes-to-Votes_n" style="stroke:#181818;stroke-width:1.0;"/><ellipse cx="443" cy="536.98" fill="#FFFFFF" rx="6" ry="6" style="stroke:#181818;stroke-width:1.5;"/><path d="M450.0711,529.9089 A10,10 0 0 0 435.9289 529.9089" fill="#FFFFFF" style="stroke:#181818;stroke-width:1.5;"/></g><!--MD5=[ab3a218a2ee47851129c3255e63ee3f4]
link Authentication to Authentication_n--><g id="link_Authentication_Authentication_n"><path d="M200,583.06 C200,599.05 200,620.78 200,637.84 " fill="none" id="Authentication-to-Authentication_n" style="stroke:#181818;stroke-width:1.0;"/><ellipse cx="200" cy="642.98" fill="#FFFFFF" rx="6" ry="6" style="stroke:#181818;stroke-width:1.5;"/><path d="M207.0711,635.9089 A10,10 0 0 0 192.9289 635.9089" fill="#FFFFFF" style="stroke:#181818;stroke-width:1.5;"/></g><!--MD5=[24f22fd9614c6e9cfe056c70ad84692c]
link Products to Authentication--><g id="link_Products_Authentication"><path d="M114.92,265.24 C121.76,290.81 133.43,334.01 144,371 C160.36,428.27 180.5,495.04 191.63,531.59 " fill="none" id="Products-to-Authentication" style="stroke:#181818;stroke-width:1.0;"/><ellipse cx="193.2" cy="536.76" fill="#FFFFFF" rx="6" ry="6" style="stroke:#181818;stroke-width:1.5;"/><path d="M197.9048,527.9359 A10,10 0 0 0 184.3759 532.0552" fill="#FFFFFF" style="stroke:#181818;stroke-width:1.5;"/></g><!--MD5=[aa92da57da75cb4522ff3a998c2fa018]
link Review to Authentication--><g id="link_Review_Authentication"><path d="M272.26,159.16 C287.95,174.21 306.46,195.58 315,219 C322.01,238.21 316.9,244.64 315,265 C310.54,312.73 310.41,325.6 295,371 C274.53,431.32 237.94,496.59 216.64,532.15 " fill="none" id="Review-to-Authentication" style="stroke:#181818;stroke-width:1.0;"/><ellipse cx="213.86" cy="536.75" fill="#FFFFFF" rx="6" ry="6" style="stroke:#181818;stroke-width:1.5;"/><path d="M223.5614,534.3246 A10,10 0 0 0 211.4346 527.0486" fill="#FFFFFF" style="stroke:#181818;stroke-width:1.5;"/></g><!--MD5=[50d12d03c8a00521c97a79ee9509fab9]
link Review to Products--><g id="link_Review_Products"><path d="M216.95,159.06 C195.06,175.67 165.02,198.47 142.19,215.81 " fill="none" id="Review-to-Products" style="stroke:#181818;stroke-width:1.0;"/><ellipse cx="138.01" cy="218.98" fill="#FFFFFF" rx="6" ry="6" style="stroke:#181818;stroke-width:1.5;"/><path d="M147.9151,220.3546 A10,10 0 0 0 139.3846 209.0749" fill="#FFFFFF" style="stroke:#181818;stroke-width:1.5;"/></g><!--MD5=[cf1c2bfebcbbaaa60f24136779377497]
link Review to Votes--><g id="link_Review_Votes"><path d="M289.68,154.32 C318.46,167.86 354.79,189.37 377,219 C426.37,284.86 438.82,386.16 441.95,430.69 " fill="none" id="Review-Votes" style="stroke:#181818;stroke-width:1.0;"/><ellipse cx="426.815" cy="332.8438" fill="#FFFFFF" rx="10" ry="10" style="stroke:#FFFFFF;stroke-width:1.0;"/><path d="M421.6482,341.4055 A10,10 0 0 0 435.3768 338.0106" fill="none" style="stroke:#181818;stroke-width:1.5;"/><path d="M431.9818,324.282 A10,10 0 0 0 418.2532 327.6769" fill="none" style="stroke:#181818;stroke-width:1.5;"/><ellipse cx="426.815" cy="332.8438" fill="#FFFFFF" rx="6" ry="6" style="stroke:#181818;stroke-width:1.5;"/></g><!--MD5=[1c423f57de7d196e9c5b2f0b918c775e]
link Votes to Authentication--><g id="link_Votes_Authentication"><path d="M403.96,471.71 C364.01,488.81 301.54,515.54 256.26,534.92 " fill="none" id="Votes-to-Authentication" style="stroke:#181818;stroke-width:1.0;"/><ellipse cx="251.65" cy="536.89" fill="#FFFFFF" rx="6" ry="6" style="stroke:#181818;stroke-width:1.5;"/><path d="M260.9389,540.5934 A10,10 0 0 0 255.3534 527.6011" fill="#FFFFFF" style="stroke:#181818;stroke-width:1.5;"/></g><!--MD5=[855d0941910e0969ae72af304240a722]
@startuml

[App]
[Products]
[Review]
[Votes]
[Authentication]
[Products_n]
[Review_n]
[Votes_n]
[Authentication_n]

 App - -(0 Products
 App - -(0 Review
 App - -(0 Votes
 App - -(0 Authentication

 Products - -(0 Products_n
 Review - -(0 Review_n
 Votes - -(0 Votes_n
 Authentication - -(0 Authentication_n

 Products - -(0 Authentication

 Review - -(0 Authentication
 Review - -(0 Products
 Review - -(0)- - Votes

 Votes - -(0 Authentication

@enduml

PlantUML version 1.2022.7(Mon Aug 22 18:01:30 WEST 2022)
(GPL source distribution)
Java Runtime: OpenJDK Runtime Environment
JVM: OpenJDK 64-Bit Server VM
Default Encoding: UTF-8
Language: en
Country: GB
--></g></svg>