<?xml version="1.0" encoding="UTF-8" standalone="no"?><svg xmlns="http://www.w3.org/2000/svg" xmlns:xlink="http://www.w3.org/1999/xlink" contentStyleType="text/css" height="170px" preserveAspectRatio="none" style="width:2387px;height:170px;background:#FFFFFF;" version="1.1" viewBox="0 0 2387 170" width="2387px" zoomAndPan="magnify"><defs/><g><!--MD5=[6e8f311b0aa23032184ffba0ef926f91]
entity App--><g id="elem_App"><rect fill="#F1F1F1" height="48.6211" rx="2.5" ry="2.5" style="stroke:#181818;stroke-width:0.5;" width="65" x="1092.5" y="7"/><rect fill="#F1F1F1" height="10" style="stroke:#181818;stroke-width:0.5;" width="15" x="1137.5" y="12"/><rect fill="#F1F1F1" height="2" style="stroke:#181818;stroke-width:0.5;" width="4" x="1135.5" y="14"/><rect fill="#F1F1F1" height="2" style="stroke:#181818;stroke-width:0.5;" width="4" x="1135.5" y="18"/><text fill="#000000" font-family="sans-serif" font-size="14" lengthAdjust="spacing" textLength="25" x="1107.5" y="42.1074">App</text></g><!--MD5=[9676e1f48c9105b1632d50c7ab785310]
entity ProductsC--><g id="elem_ProductsC"><rect fill="#F1F1F1" height="48.6211" rx="2.5" ry="2.5" style="stroke:#181818;stroke-width:0.5;" width="106" x="7" y="116"/><rect fill="#F1F1F1" height="10" style="stroke:#181818;stroke-width:0.5;" width="15" x="93" y="121"/><rect fill="#F1F1F1" height="2" style="stroke:#181818;stroke-width:0.5;" width="4" x="91" y="123"/><rect fill="#F1F1F1" height="2" style="stroke:#181818;stroke-width:0.5;" width="4" x="91" y="127"/><text fill="#000000" font-family="sans-serif" font-size="14" lengthAdjust="spacing" textLength="66" x="22" y="151.1074">ProductsC</text></g><!--MD5=[6a4cca51d554a6350142974fbb2d7cbf]
entity ReviewC--><g id="elem_ReviewC"><rect fill="#F1F1F1" height="48.6211" rx="2.5" ry="2.5" style="stroke:#181818;stroke-width:0.5;" width="95" x="148.5" y="116"/><rect fill="#F1F1F1" height="10" style="stroke:#181818;stroke-width:0.5;" width="15" x="223.5" y="121"/><rect fill="#F1F1F1" height="2" style="stroke:#181818;stroke-width:0.5;" width="4" x="221.5" y="123"/><rect fill="#F1F1F1" height="2" style="stroke:#181818;stroke-width:0.5;" width="4" x="221.5" y="127"/><text fill="#000000" font-family="sans-serif" font-size="14" lengthAdjust="spacing" textLength="55" x="163.5" y="151.1074">ReviewC</text></g><!--MD5=[ccad5d2bd10b8ad394790c9fccb8f0e8]
entity VotesC--><g id="elem_VotesC"><rect fill="#F1F1F1" height="48.6211" rx="2.5" ry="2.5" style="stroke:#181818;stroke-width:0.5;" width="86" x="279" y="116"/><rect fill="#F1F1F1" height="10" style="stroke:#181818;stroke-width:0.5;" width="15" x="345" y="121"/><rect fill="#F1F1F1" height="2" style="stroke:#181818;stroke-width:0.5;" width="4" x="343" y="123"/><rect fill="#F1F1F1" height="2" style="stroke:#181818;stroke-width:0.5;" width="4" x="343" y="127"/><text fill="#000000" font-family="sans-serif" font-size="14" lengthAdjust="spacing" textLength="46" x="294" y="151.1074">VotesC</text></g><!--MD5=[c7866ca292467130eaf9977e32a3b0ca]
entity AuthenticationC--><g id="elem_AuthenticationC"><rect fill="#F1F1F1" height="48.6211" rx="2.5" ry="2.5" style="stroke:#181818;stroke-width:0.5;" width="140" x="400" y="116"/><rect fill="#F1F1F1" height="10" style="stroke:#181818;stroke-width:0.5;" width="15" x="520" y="121"/><rect fill="#F1F1F1" height="2" style="stroke:#181818;stroke-width:0.5;" width="4" x="518" y="123"/><rect fill="#F1F1F1" height="2" style="stroke:#181818;stroke-width:0.5;" width="4" x="518" y="127"/><text fill="#000000" font-family="sans-serif" font-size="14" lengthAdjust="spacing" textLength="100" x="415" y="151.1074">AuthenticationC</text></g><!--MD5=[4527feab32b63b121bed3ced0e983ccf]
entity ProductsQ--><g id="elem_ProductsQ"><rect fill="#F1F1F1" height="48.6211" rx="2.5" ry="2.5" style="stroke:#181818;stroke-width:0.5;" width="107" x="575.5" y="116"/><rect fill="#F1F1F1" height="10" style="stroke:#181818;stroke-width:0.5;" width="15" x="662.5" y="121"/><rect fill="#F1F1F1" height="2" style="stroke:#181818;stroke-width:0.5;" width="4" x="660.5" y="123"/><rect fill="#F1F1F1" height="2" style="stroke:#181818;stroke-width:0.5;" width="4" x="660.5" y="127"/><text fill="#000000" font-family="sans-serif" font-size="14" lengthAdjust="spacing" textLength="67" x="590.5" y="151.1074">ProductsQ</text></g><!--MD5=[c4dc68d96cbdf45f353e5982b5c556db]
entity ReviewQ--><g id="elem_ReviewQ"><rect fill="#F1F1F1" height="48.6211" rx="2.5" ry="2.5" style="stroke:#181818;stroke-width:0.5;" width="96" x="718" y="116"/><rect fill="#F1F1F1" height="10" style="stroke:#181818;stroke-width:0.5;" width="15" x="794" y="121"/><rect fill="#F1F1F1" height="2" style="stroke:#181818;stroke-width:0.5;" width="4" x="792" y="123"/><rect fill="#F1F1F1" height="2" style="stroke:#181818;stroke-width:0.5;" width="4" x="792" y="127"/><text fill="#000000" font-family="sans-serif" font-size="14" lengthAdjust="spacing" textLength="56" x="733" y="151.1074">ReviewQ</text></g><!--MD5=[cd02653b728fb91842f6e2835f31232b]
entity VotesQ--><g id="elem_VotesQ"><rect fill="#F1F1F1" height="48.6211" rx="2.5" ry="2.5" style="stroke:#181818;stroke-width:0.5;" width="87" x="849.5" y="116"/><rect fill="#F1F1F1" height="10" style="stroke:#181818;stroke-width:0.5;" width="15" x="916.5" y="121"/><rect fill="#F1F1F1" height="2" style="stroke:#181818;stroke-width:0.5;" width="4" x="914.5" y="123"/><rect fill="#F1F1F1" height="2" style="stroke:#181818;stroke-width:0.5;" width="4" x="914.5" y="127"/><text fill="#000000" font-family="sans-serif" font-size="14" lengthAdjust="spacing" textLength="47" x="864.5" y="151.1074">VotesQ</text></g><!--MD5=[bc75a5ae1aebfe53730690eeef163cc8]
entity AuthenticationQ--><g id="elem_AuthenticationQ"><rect fill="#F1F1F1" height="48.6211" rx="2.5" ry="2.5" style="stroke:#181818;stroke-width:0.5;" width="141" x="971.5" y="116"/><rect fill="#F1F1F1" height="10" style="stroke:#181818;stroke-width:0.5;" width="15" x="1092.5" y="121"/><rect fill="#F1F1F1" height="2" style="stroke:#181818;stroke-width:0.5;" width="4" x="1090.5" y="123"/><rect fill="#F1F1F1" height="2" style="stroke:#181818;stroke-width:0.5;" width="4" x="1090.5" y="127"/><text fill="#000000" font-family="sans-serif" font-size="14" lengthAdjust="spacing" textLength="101" x="986.5" y="151.1074">AuthenticationQ</text></g><!--MD5=[d018ddfbda298575195908f6f0eca836]
entity ProductsC_n--><g id="elem_ProductsC_n"><rect fill="#F1F1F1" height="48.6211" rx="2.5" ry="2.5" style="stroke:#181818;stroke-width:0.5;" width="122" x="1148" y="116"/><rect fill="#F1F1F1" height="10" style="stroke:#181818;stroke-width:0.5;" width="15" x="1250" y="121"/><rect fill="#F1F1F1" height="2" style="stroke:#181818;stroke-width:0.5;" width="4" x="1248" y="123"/><rect fill="#F1F1F1" height="2" style="stroke:#181818;stroke-width:0.5;" width="4" x="1248" y="127"/><text fill="#000000" font-family="sans-serif" font-size="14" lengthAdjust="spacing" textLength="82" x="1163" y="151.1074">ProductsC_n</text></g><!--MD5=[85a8eeb3c2547893076dba242a829545]
entity ReviewC_n--><g id="elem_ReviewC_n"><rect fill="#F1F1F1" height="48.6211" rx="2.5" ry="2.5" style="stroke:#181818;stroke-width:0.5;" width="111" x="1305.5" y="116"/><rect fill="#F1F1F1" height="10" style="stroke:#181818;stroke-width:0.5;" width="15" x="1396.5" y="121"/><rect fill="#F1F1F1" height="2" style="stroke:#181818;stroke-width:0.5;" width="4" x="1394.5" y="123"/><rect fill="#F1F1F1" height="2" style="stroke:#181818;stroke-width:0.5;" width="4" x="1394.5" y="127"/><text fill="#000000" font-family="sans-serif" font-size="14" lengthAdjust="spacing" textLength="71" x="1320.5" y="151.1074">ReviewC_n</text></g><!--MD5=[b73fa48f1c39574e480347f8ca8e3e09]
entity VotesC_n--><g id="elem_VotesC_n"><rect fill="#F1F1F1" height="48.6211" rx="2.5" ry="2.5" style="stroke:#181818;stroke-width:0.5;" width="102" x="1452" y="116"/><rect fill="#F1F1F1" height="10" style="stroke:#181818;stroke-width:0.5;" width="15" x="1534" y="121"/><rect fill="#F1F1F1" height="2" style="stroke:#181818;stroke-width:0.5;" width="4" x="1532" y="123"/><rect fill="#F1F1F1" height="2" style="stroke:#181818;stroke-width:0.5;" width="4" x="1532" y="127"/><text fill="#000000" font-family="sans-serif" font-size="14" lengthAdjust="spacing" textLength="62" x="1467" y="151.1074">VotesC_n</text></g><!--MD5=[a08ad4c9196b2b5e5f4cb1eb8d441670]
entity AuthenticationC_n--><g id="elem_AuthenticationC_n"><rect fill="#F1F1F1" height="48.6211" rx="2.5" ry="2.5" style="stroke:#181818;stroke-width:0.5;" width="156" x="1589" y="116"/><rect fill="#F1F1F1" height="10" style="stroke:#181818;stroke-width:0.5;" width="15" x="1725" y="121"/><rect fill="#F1F1F1" height="2" style="stroke:#181818;stroke-width:0.5;" width="4" x="1723" y="123"/><rect fill="#F1F1F1" height="2" style="stroke:#181818;stroke-width:0.5;" width="4" x="1723" y="127"/><text fill="#000000" font-family="sans-serif" font-size="14" lengthAdjust="spacing" textLength="116" x="1604" y="151.1074">AuthenticationC_n</text></g><!--MD5=[3ca36405e28080942d86f737d9b713e2]
entity ProductsQ_n--><g id="elem_ProductsQ_n"><rect fill="#F1F1F1" height="48.6211" rx="2.5" ry="2.5" style="stroke:#181818;stroke-width:0.5;" width="123" x="1780.5" y="116"/><rect fill="#F1F1F1" height="10" style="stroke:#181818;stroke-width:0.5;" width="15" x="1883.5" y="121"/><rect fill="#F1F1F1" height="2" style="stroke:#181818;stroke-width:0.5;" width="4" x="1881.5" y="123"/><rect fill="#F1F1F1" height="2" style="stroke:#181818;stroke-width:0.5;" width="4" x="1881.5" y="127"/><text fill="#000000" font-family="sans-serif" font-size="14" lengthAdjust="spacing" textLength="83" x="1795.5" y="151.1074">ProductsQ_n</text></g><!--MD5=[2aac729af1fb4c0a774a1c291f1a6030]
entity ReviewQ_n--><g id="elem_ReviewQ_n"><rect fill="#F1F1F1" height="48.6211" rx="2.5" ry="2.5" style="stroke:#181818;stroke-width:0.5;" width="112" x="1939" y="116"/><rect fill="#F1F1F1" height="10" style="stroke:#181818;stroke-width:0.5;" width="15" x="2031" y="121"/><rect fill="#F1F1F1" height="2" style="stroke:#181818;stroke-width:0.5;" width="4" x="2029" y="123"/><rect fill="#F1F1F1" height="2" style="stroke:#181818;stroke-width:0.5;" width="4" x="2029" y="127"/><text fill="#000000" font-family="sans-serif" font-size="14" lengthAdjust="spacing" textLength="72" x="1954" y="151.1074">ReviewQ_n</text></g><!--MD5=[30e871351d57d0cb52386d06a813070d]
entity VotesQ_n--><g id="elem_VotesQ_n"><rect fill="#F1F1F1" height="48.6211" rx="2.5" ry="2.5" style="stroke:#181818;stroke-width:0.5;" width="103" x="2086.5" y="116"/><rect fill="#F1F1F1" height="10" style="stroke:#181818;stroke-width:0.5;" width="15" x="2169.5" y="121"/><rect fill="#F1F1F1" height="2" style="stroke:#181818;stroke-width:0.5;" width="4" x="2167.5" y="123"/><rect fill="#F1F1F1" height="2" style="stroke:#181818;stroke-width:0.5;" width="4" x="2167.5" y="127"/><text fill="#000000" font-family="sans-serif" font-size="14" lengthAdjust="spacing" textLength="63" x="2101.5" y="151.1074">VotesQ_n</text></g><!--MD5=[3864d5f725023447c9bec607afa1881f]
entity AuthenticationQ_n--><g id="elem_AuthenticationQ_n"><rect fill="#F1F1F1" height="48.6211" rx="2.5" ry="2.5" style="stroke:#181818;stroke-width:0.5;" width="157" x="2224.5" y="116"/><rect fill="#F1F1F1" height="10" style="stroke:#181818;stroke-width:0.5;" width="15" x="2361.5" y="121"/><rect fill="#F1F1F1" height="2" style="stroke:#181818;stroke-width:0.5;" width="4" x="2359.5" y="123"/><rect fill="#F1F1F1" height="2" style="stroke:#181818;stroke-width:0.5;" width="4" x="2359.5" y="127"/><text fill="#000000" font-family="sans-serif" font-size="14" lengthAdjust="spacing" textLength="117" x="2239.5" y="151.1074">AuthenticationQ_n</text></g><!--MD5=[9348450806dc59c8a1030fbe034ac679]
link App to ProductsC--><g id="link_App_ProductsC"><path d="M1092.43,32.47 C966.9,32.91 502.99,39.93 131,116 C126.79,116.86 122.49,117.89 118.18,119.03 " fill="none" id="App-to-ProductsC" style="stroke:#181818;stroke-width:1.0;"/><ellipse cx="113.13" cy="120.42" fill="#FFFFFF" rx="6" ry="6" style="stroke:#181818;stroke-width:1.5;"/><path d="M121.8273,125.3552 A10,10 0 0 0 118.0652 111.7227" fill="#FFFFFF" style="stroke:#181818;stroke-width:1.5;"/></g><!--MD5=[8e4ec12338cbeb6f30149405426787b8]
link App to ReviewC--><g id="link_App_ReviewC"><path d="M1092.37,32.73 C977.16,34.15 579.28,44.28 261,116 C256.88,116.93 252.66,118.05 248.45,119.28 " fill="none" id="App-to-ReviewC" style="stroke:#181818;stroke-width:1.0;"/><ellipse cx="243.52" cy="120.79" fill="#FFFFFF" rx="6" ry="6" style="stroke:#181818;stroke-width:1.5;"/><path d="M252.348,125.4875 A10,10 0 0 0 248.2175 111.962" fill="#FFFFFF" style="stroke:#181818;stroke-width:1.5;"/></g><!--MD5=[bc9b55572a7ba5389d46c2eef3b00a3d]
link App to VotesC--><g id="link_App_VotesC"><path d="M1092.24,33.14 C987.31,35.85 650.7,49.5 382,116 C378.02,116.99 373.95,118.17 369.89,119.48 " fill="none" id="App-to-VotesC" style="stroke:#181818;stroke-width:1.0;"/><ellipse cx="365.15" cy="121.06" fill="#FFFFFF" rx="6" ry="6" style="stroke:#181818;stroke-width:1.5;"/><path d="M374.0983,125.5241 A10,10 0 0 0 369.6141 112.1117" fill="#FFFFFF" style="stroke:#181818;stroke-width:1.5;"/></g><!--MD5=[d9e10db1df79a2bb2e77991c2d709f02]
link App to AuthenticationC--><g id="link_App_AuthenticationC"><path d="M1092.49,35.96 C1005.34,45.53 759.47,74.41 558,116 C553.88,116.85 549.67,117.78 545.43,118.76 " fill="none" id="App-to-AuthenticationC" style="stroke:#181818;stroke-width:1.0;"/><ellipse cx="540.44" cy="119.93" fill="#FFFFFF" rx="6" ry="6" style="stroke:#181818;stroke-width:1.5;"/><path d="M548.9392,125.1991 A10,10 0 0 0 545.7091 111.4308" fill="#FFFFFF" style="stroke:#181818;stroke-width:1.5;"/></g><!--MD5=[596e9e12fd362ac045ad6b782716d0c3]
link App to ProductsQ--><g id="link_App_ProductsQ"><path d="M1092.43,37.46 C1020.82,48.69 844.55,78.04 700,116 C695.94,117.07 691.77,118.24 687.59,119.47 " fill="none" id="App-to-ProductsQ" style="stroke:#181818;stroke-width:1.0;"/><ellipse cx="682.67" cy="120.95" fill="#FFFFFF" rx="6" ry="6" style="stroke:#181818;stroke-width:1.5;"/><path d="M691.4643,125.7102 A10,10 0 0 0 687.4302 112.1557" fill="#FFFFFF" style="stroke:#181818;stroke-width:1.5;"/></g><!--MD5=[0ce4dd7d6a508c8378650562db4ca5ed]
link App to ReviewQ--><g id="link_App_ReviewQ"><path d="M1092.28,41.09 C1037.91,55.52 925.7,86 832,116 C827.75,117.36 823.36,118.82 818.95,120.31 " fill="none" id="App-to-ReviewQ" style="stroke:#181818;stroke-width:1.0;"/><ellipse cx="814.18" cy="121.94" fill="#FFFFFF" rx="6" ry="6" style="stroke:#181818;stroke-width:1.5;"/><path d="M823.1683,126.323 A10,10 0 0 0 818.563 112.9517" fill="#FFFFFF" style="stroke:#181818;stroke-width:1.5;"/></g><!--MD5=[ce0198c1a69acba9920452db590360a4]
link App to VotesQ--><g id="link_App_VotesQ"><path d="M1092.25,47.6 C1052.89,65.76 986.48,96.39 941.24,117.25 " fill="none" id="App-to-VotesQ" style="stroke:#181818;stroke-width:1.0;"/><ellipse cx="936.66" cy="119.36" fill="#FFFFFF" rx="6" ry="6" style="stroke:#181818;stroke-width:1.5;"/><path d="M946.0365,122.8358 A10,10 0 0 0 940.1358 109.9835" fill="#FFFFFF" style="stroke:#181818;stroke-width:1.5;"/></g><!--MD5=[f1a701983f06c78010e2d64f1ccad657]
link App to AuthenticationQ--><g id="link_App_AuthenticationQ"><path d="M1106.58,56.25 C1093.9,72.59 1077,94.37 1063.68,111.56 " fill="none" id="App-to-AuthenticationQ" style="stroke:#181818;stroke-width:1.0;"/><ellipse cx="1060.37" cy="115.82" fill="#FFFFFF" rx="6" ry="6" style="stroke:#181818;stroke-width:1.5;"/><path d="M1070.2887,114.5473 A10,10 0 0 0 1059.0973 105.9013" fill="#FFFFFF" style="stroke:#181818;stroke-width:1.5;"/></g><!--MD5=[3a9f432b3ab001b07056a5e69b5716d0]
link App to ProductsC_n--><g id="link_App_ProductsC_n"><path d="M1143.64,56.25 C1156.48,72.59 1173.57,94.37 1187.06,111.56 " fill="none" id="App-to-ProductsC_n" style="stroke:#181818;stroke-width:1.0;"/><ellipse cx="1190.41" cy="115.82" fill="#FFFFFF" rx="6" ry="6" style="stroke:#181818;stroke-width:1.5;"/><path d="M1191.603,105.8914 A10,10 0 0 0 1180.4814 114.627" fill="#FFFFFF" style="stroke:#181818;stroke-width:1.5;"/></g><!--MD5=[e5a8ae8f4e114bafb6f3e93139b942bd]
link App to ReviewC_n--><g id="link_App_ReviewC_n"><path d="M1157.81,47.38 C1195.65,64.53 1258.51,93.03 1304.31,113.8 " fill="none" id="App-to-ReviewC_n" style="stroke:#181818;stroke-width:1.0;"/><ellipse cx="1308.96" cy="115.91" fill="#FFFFFF" rx="6" ry="6" style="stroke:#181818;stroke-width:1.5;"/><path d="M1305.4244,106.5559 A10,10 0 0 0 1299.6059 119.4456" fill="#FFFFFF" style="stroke:#181818;stroke-width:1.5;"/></g><!--MD5=[0d2526f2b1df138a7bf6e00a89d733df]
link App to VotesC_n--><g id="link_App_VotesC_n"><path d="M1157.67,40.59 C1214.27,54.77 1334.07,85.52 1434,116 C1438.27,117.3 1442.67,118.69 1447.08,120.12 " fill="none" id="App-to-VotesC_n" style="stroke:#181818;stroke-width:1.0;"/><ellipse cx="1451.87" cy="121.68" fill="#FFFFFF" rx="6" ry="6" style="stroke:#181818;stroke-width:1.5;"/><path d="M1447.3332,112.7684 A10,10 0 0 0 1442.9584 126.2168" fill="#FFFFFF" style="stroke:#181818;stroke-width:1.5;"/></g><!--MD5=[f0e1c24ec56f797603b8b7a34691c853]
link App to AuthenticationC_n--><g id="link_App_AuthenticationC_n"><path d="M1157.66,37.93 C1231.66,50.39 1417.69,82.53 1572,116 C1575.85,116.84 1579.79,117.71 1583.76,118.62 " fill="none" id="App-to-AuthenticationC_n" style="stroke:#181818;stroke-width:1.0;"/><ellipse cx="1588.8" cy="119.78" fill="#FFFFFF" rx="6" ry="6" style="stroke:#181818;stroke-width:1.5;"/><path d="M1583.4837,111.3103 A10,10 0 0 0 1580.3303 125.0963" fill="#FFFFFF" style="stroke:#181818;stroke-width:1.5;"/></g><!--MD5=[7d367b70c6af4003e7eed05ca1cda210]
link App to ProductsQ_n--><g id="link_App_ProductsQ_n"><path d="M1157.51,34.92 C1251.89,42.33 1533.82,67.24 1763,116 C1767.02,116.86 1771.14,117.82 1775.28,118.85 " fill="none" id="App-to-ProductsQ_n" style="stroke:#181818;stroke-width:1.0;"/><ellipse cx="1780.14" cy="120.09" fill="#FFFFFF" rx="6" ry="6" style="stroke:#181818;stroke-width:1.5;"/><path d="M1775.0486,111.4831 A10,10 0 0 0 1771.5331 125.1814" fill="#FFFFFF" style="stroke:#181818;stroke-width:1.5;"/></g><!--MD5=[60bcf4036f751f649e93f1f0cad13daa]
link App to ReviewQ_n--><g id="link_App_ReviewQ_n"><path d="M1157.59,33.55 C1266.73,37.57 1628.91,54.96 1921,116 C1925.17,116.87 1929.44,117.89 1933.73,119 " fill="none" id="App-to-ReviewQ_n" style="stroke:#181818;stroke-width:1.0;"/><ellipse cx="1938.75" cy="120.34" fill="#FFFFFF" rx="6" ry="6" style="stroke:#181818;stroke-width:1.5;"/><path d="M1933.7365,111.6876 A10,10 0 0 0 1930.0976 125.3535" fill="#FFFFFF" style="stroke:#181818;stroke-width:1.5;"/></g><!--MD5=[7d39cd834cac9a0d1b09d6ce231cb4db]
link App to VotesQ_n--><g id="link_App_VotesQ_n"><path d="M1157.61,32.57 C1279.27,33.42 1717.67,41.76 2069,116 C2073.09,116.86 2077.28,117.9 2081.47,119.04 " fill="none" id="App-to-VotesQ_n" style="stroke:#181818;stroke-width:1.0;"/><ellipse cx="2086.38" cy="120.43" fill="#FFFFFF" rx="6" ry="6" style="stroke:#181818;stroke-width:1.5;"/><path d="M2081.5236,111.6884 A10,10 0 0 0 2077.6384 125.2864" fill="#FFFFFF" style="stroke:#181818;stroke-width:1.5;"/></g><!--MD5=[d4daeeec3e45a196b79a404860c891ef]
link App to AuthenticationQ_n--><g id="link_App_AuthenticationQ_n"><path d="M1157.53,33.08 C1289.36,35.83 1796.31,50.34 2207,116 C2211.08,116.65 2215.24,117.39 2219.43,118.19 " fill="none" id="App-to-AuthenticationQ_n" style="stroke:#181818;stroke-width:1.0;"/><ellipse cx="2224.36" cy="119.16" fill="#FFFFFF" rx="6" ry="6" style="stroke:#181818;stroke-width:1.5;"/><path d="M2218.799,110.8488 A10,10 0 0 0 2216.0488 124.721" fill="#FFFFFF" style="stroke:#181818;stroke-width:1.5;"/></g><!--MD5=[fd3a8c9639a8ba0f49d12a6c6f7bcddd]
@startuml

[App]
[ProductsC]
[ReviewC]
[VotesC]
[AuthenticationC]
[ProductsQ]
[ReviewQ]
[VotesQ]
[AuthenticationQ]
[ProductsC_n]
[ReviewC_n]
[VotesC_n]
[AuthenticationC_n]
[ProductsQ_n]
[ReviewQ_n]
[VotesQ_n]
[AuthenticationQ_n]

 App - -(0 ProductsC
 App - -(0 ReviewC
 App - -(0 VotesC
 App - -(0 AuthenticationC


 App - -(0 ProductsQ
 App - -(0 ReviewQ
 App - -(0 VotesQ
 App - -(0 AuthenticationQ

 App - -(0 ProductsC_n
 App - -(0 ReviewC_n
 App- -(0 VotesC_n
 App - -(0 AuthenticationC_n

 App - -(0 ProductsQ_n
 App - -(0 ReviewQ_n
 App - -(0 VotesQ_n
 App - -(0 AuthenticationQ_n



@enduml

PlantUML version 1.2022.13(Sat Nov 19 13:22:17 WET 2022)
(GPL source distribution)
Java Runtime: OpenJDK Runtime Environment
JVM: OpenJDK 64-Bit Server VM
Default Encoding: Cp1252
Language: pt
Country: PT
--></g></svg>