<?xml version="1.0" encoding="UTF-8" standalone="no"?><svg xmlns="http://www.w3.org/2000/svg" xmlns:xlink="http://www.w3.org/1999/xlink" contentStyleType="text/css" height="1366px" preserveAspectRatio="none" style="width:689px;height:1366px;background:#FFFFFF;" version="1.1" viewBox="0 0 689 1366" width="689px" zoomAndPan="magnify"><defs/><g><!--MD5=[47539729e2a0bb1969f0b89659c6c8d6]
entity aCostumer--><g id="elem_aCostumer"><ellipse cx="75.5" cy="545.5" fill="#F1F1F1" rx="8" ry="8" style="stroke:#181818;stroke-width:0.5;"/><path d="M75.5,553.5 L75.5,580.5 M62.5,561.5 L88.5,561.5 M75.5,580.5 L62.5,595.5 M75.5,580.5 L88.5,595.5 " fill="none" style="stroke:#181818;stroke-width:0.5;"/><text fill="#000000" font-family="sans-serif" font-size="14" lengthAdjust="spacing" textLength="139" x="6" y="612.1074">Anonymous Customer</text></g><!--MD5=[358ecdeec086bd8c0c7949b4639c8a49]
entity rCostumer--><g id="elem_rCostumer"><ellipse cx="75.5" cy="812.5" fill="#F1F1F1" rx="8" ry="8" style="stroke:#181818;stroke-width:0.5;"/><path d="M75.5,820.5 L75.5,847.5 M62.5,828.5 L88.5,828.5 M75.5,847.5 L62.5,862.5 M75.5,847.5 L88.5,862.5 " fill="none" style="stroke:#181818;stroke-width:0.5;"/><text fill="#000000" font-family="sans-serif" font-size="14" lengthAdjust="spacing" textLength="134" x="8.5" y="879.1074">Registered Customer</text></g><!--MD5=[1eac134bd398c59a4c90fba18858d819]
entity moderator--><g id="elem_moderator"><ellipse cx="75.5" cy="102.5" fill="#F1F1F1" rx="8" ry="8" style="stroke:#181818;stroke-width:0.5;"/><path d="M75.5,110.5 L75.5,137.5 M62.5,118.5 L88.5,118.5 M75.5,137.5 L62.5,152.5 M75.5,137.5 L88.5,152.5 " fill="none" style="stroke:#181818;stroke-width:0.5;"/><text fill="#000000" font-family="sans-serif" font-size="14" lengthAdjust="spacing" textLength="65" x="43" y="169.1074">Moderator</text></g><g id="elem_US01"><ellipse cx="444.2469" cy="628.7494" fill="#F1F1F1" rx="146.7469" ry="31.7494" style="stroke:#181818;stroke-width:0.5;"/><text fill="#000000" font-family="sans-serif" font-size="14" lengthAdjust="spacing" textLength="260" x="314.2469" y="632.5462">US01  - To obtain the catalog of products</text></g><g id="elem_US02"><ellipse cx="444.2469" cy="726.7494" fill="#F1F1F1" rx="146.7469" ry="31.7494" style="stroke:#181818;stroke-width:0.5;"/><text fill="#000000" font-family="sans-serif" font-size="14" lengthAdjust="spacing" textLength="260" x="314.2469" y="730.5462">US02  - To obtain the details of a product</text></g><g id="elem_US03"><ellipse cx="444.1343" cy="843.7269" fill="#F1F1F1" rx="239.1343" ry="50.2269" style="stroke:#181818;stroke-width:0.5;"/><text fill="#000000" font-family="sans-serif" font-size="14" lengthAdjust="spacing" textLength="451" x="218.6343" y="847.5237">US03  - To search the catalog of products by product name or bar code</text></g><g id="elem_US04"><ellipse cx="444.0473" cy="1248.7095" fill="#F1F1F1" rx="134.0473" ry="29.2095" style="stroke:#181818;stroke-width:0.5;"/><text fill="#000000" font-family="sans-serif" font-size="14" lengthAdjust="spacing" textLength="233" x="327.5473" y="1252.5063">US04  - To review and rate a product</text></g><g id="elem_US05"><ellipse cx="444.0884" cy="317.3177" fill="#F1F1F1" rx="149.5884" ry="32.3177" style="stroke:#181818;stroke-width:0.5;"/><text fill="#000000" font-family="sans-serif" font-size="14" lengthAdjust="spacing" textLength="266" x="311.0884" y="321.1146">US05  - To obtain the reviews of a product</text></g><g id="elem_US06"><ellipse cx="443.8959" cy="1336.4792" fill="#F1F1F1" rx="107.8959" ry="23.9792" style="stroke:#181818;stroke-width:0.5;"/><text fill="#000000" font-family="sans-serif" font-size="14" lengthAdjust="spacing" textLength="176" x="355.8959" y="1340.2761">US06  - To vote for a review</text></g><g id="elem_US07"><ellipse cx="444.2329" cy="958.6466" fill="#F1F1F1" rx="138.7329" ry="30.1466" style="stroke:#181818;stroke-width:0.5;"/><text fill="#000000" font-family="sans-serif" font-size="14" lengthAdjust="spacing" textLength="243" x="322.7329" y="962.4434">US07  - To withdraw one of my reviews</text></g><g id="elem_US08"><ellipse cx="444.0884" cy="417.3177" fill="#F1F1F1" rx="149.5884" ry="32.3177" style="stroke:#181818;stroke-width:0.5;"/><text fill="#000000" font-family="sans-serif" font-size="14" lengthAdjust="spacing" textLength="266" x="311.0884" y="421.1146">US08  - To obtain the reviews of a product</text></g><g id="elem_US09"><ellipse cx="443.9826" cy="35.3965" fill="#F1F1F1" rx="134.9826" ry="29.3965" style="stroke:#181818;stroke-width:0.5;"/><text fill="#000000" font-family="sans-serif" font-size="14" lengthAdjust="spacing" textLength="235" x="326.4826" y="39.1934">US09  - To obtain all pending reviews</text></g><g id="elem_US10"><ellipse cx="443.8867" cy="133.5773" fill="#F1F1F1" rx="153.3867" ry="33.0773" style="stroke:#181818;stroke-width:0.5;"/><text fill="#000000" font-family="sans-serif" font-size="14" lengthAdjust="spacing" textLength="274" x="306.8867" y="137.3742">US10  - To approve/reject a pending review</text></g><g id="elem_US11"><ellipse cx="444.1883" cy="1050.3377" fill="#F1F1F1" rx="119.6883" ry="26.3377" style="stroke:#181818;stroke-width:0.5;"/><text fill="#000000" font-family="sans-serif" font-size="14" lengthAdjust="spacing" textLength="202" x="343.1883" y="1054.1345">US11  - To obtain all my reviews</text></g><g id="elem_US12"><ellipse cx="444.1885" cy="523.6377" fill="#F1F1F1" rx="181.1885" ry="38.6377" style="stroke:#181818;stroke-width:0.5;"/><text fill="#000000" font-family="sans-serif" font-size="14" lengthAdjust="spacing" textLength="332" x="278.1885" y="527.4346">US12  - To obtain the aggregated rating of a product</text></g><g id="elem_US13"><ellipse cx="444.2358" cy="1148.3472" fill="#F1F1F1" rx="167.2358" ry="35.8472" style="stroke:#181818;stroke-width:0.5;"/><text fill="#000000" font-family="sans-serif" font-size="14" lengthAdjust="spacing" textLength="303" x="292.7358" y="1152.144">US13  - To vote in a review that doesn't exist yet</text></g><g id="elem_US14"><ellipse cx="443.8959" cy="225.4792" fill="#F1F1F1" rx="107.8959" ry="23.9792" style="stroke:#181818;stroke-width:0.5;"/><text fill="#000000" font-family="sans-serif" font-size="14" lengthAdjust="spacing" textLength="176" x="355.8959" y="229.2761">US14  - To create a product</text></g><!--MD5=[318b492cb307b4341f3fa5bf436b4c80]
link aCostumer to US01--><g id="link_aCostumer_US01"><path d="M145.01,586.22 C193.07,593.04 258.76,602.36 316.24,610.51 " fill="none" id="aCostumer-to-US01" style="stroke:#181818;stroke-width:1.0;"/><polygon fill="#181818" points="321.42,611.25,313.0677,606.0309,316.4691,610.5509,311.9491,613.9523,321.42,611.25" style="stroke:#181818;stroke-width:1.0;"/></g><!--MD5=[fdb44c70ca32126696f6352161c77615]
link aCostumer to US02--><g id="link_aCostumer_US02"><path d="M116.6,616.03 C140.43,637.35 172.31,662.33 205,677.5 C237.55,692.61 274.75,703.09 309.91,710.34 " fill="none" id="aCostumer-to-US02" style="stroke:#181818;stroke-width:1.0;"/><polygon fill="#181818" points="315.08,711.39,307.0616,705.6711,310.181,710.3902,305.4619,713.5096,315.08,711.39" style="stroke:#181818;stroke-width:1.0;"/></g><!--MD5=[b9ef5025f62cc4bf3c3199a76b33da47]
link aCostumer to US03--><g id="link_aCostumer_US03"><path d="M91.94,616.29 C111.5,661.51 149.49,734.36 205,775.5 C222.57,788.53 242.57,799.06 263.32,807.58 " fill="none" id="aCostumer-to-US03" style="stroke:#181818;stroke-width:1.0;"/><polygon fill="#181818" points="268.04,809.48,261.1956,802.3981,263.4046,807.6058,258.1968,809.8148,268.04,809.48" style="stroke:#181818;stroke-width:1.0;"/></g><!--MD5=[25b94357164023bc3924351309862788]
link rCostumer to US01--><g id="link_rCostumer_US01"><path d="M96.28,803.99 C117.69,765.48 155.52,708.35 205,677.5 C233.92,659.47 268.28,647.94 301.77,640.6 " fill="none" id="rCostumer-to-US01" style="stroke:#181818;stroke-width:1.0;"/><polygon fill="#181818" points="306.71,639.55,297.0733,637.5169,301.8202,640.5937,298.7433,645.3406,306.71,639.55" style="stroke:#181818;stroke-width:1.0;"/></g><!--MD5=[73e21f45a8bfa8d022e21304665a03df]
link rCostumer to US02--><g id="link_rCostumer_US02"><path d="M142.62,804.63 C162.21,794.33 184.04,784.01 205,776.5 C241.33,763.49 282.06,753.4 319.41,745.8 " fill="none" id="rCostumer-to-US02" style="stroke:#181818;stroke-width:1.0;"/><polygon fill="#181818" points="324.42,744.79,314.8079,742.6435,319.5182,745.7761,316.3856,750.4864,324.42,744.79" style="stroke:#181818;stroke-width:1.0;"/></g><!--MD5=[104920f705f764db3e7d70334afe8a18]
link rCostumer to US03--><g id="link_rCostumer_US03"><path d="M142.87,843.5 C159.89,843.5 179.22,843.5 199.67,843.5 " fill="none" id="rCostumer-to-US03" style="stroke:#181818;stroke-width:1.0;"/><polygon fill="#181818" points="204.89,843.5,195.89,839.5,199.89,843.5,195.89,847.5,204.89,843.5" style="stroke:#181818;stroke-width:1.0;"/></g><!--MD5=[9bb7018731015c12701ab47389730275]
link rCostumer to US04--><g id="link_rCostumer_US04"><path d="M78.42,883.2 C84.3,957.93 108.15,1119.42 205,1202.5 C232.71,1226.27 268.96,1239.21 304.78,1245.93 " fill="none" id="rCostumer-to-US04" style="stroke:#181818;stroke-width:1.0;"/><polygon fill="#181818" points="310.07,1246.88,301.9194,1241.3512,305.1488,1245.9956,300.5044,1249.225,310.07,1246.88" style="stroke:#181818;stroke-width:1.0;"/></g><!--MD5=[bd35b0e0ab00046a31af5a5bdfc7daac]
link rCostumer to US05--><g id="link_rCostumer_US05"><path d="M90.62,803.97 C105.32,762 128.46,693.58 145,633.5 C177.16,516.65 118.67,452.56 205,367.5 C228.19,344.65 259.02,331.02 290.76,323.15 " fill="none" id="rCostumer-to-US05" style="stroke:#181818;stroke-width:1.0;"/><polygon fill="#181818" points="295.86,321.93,286.173,320.1516,290.9994,323.1023,288.0487,327.9286,295.86,321.93" style="stroke:#181818;stroke-width:1.0;"/></g><!--MD5=[134de7664654d0c32c81179116cc16de]
link aCostumer to US05--><g id="link_aCostumer_US05"><path d="M89.73,536.96 C107.89,489.05 145.26,409.55 205,367.5 C231.87,348.58 264.41,336.55 296.68,328.96 " fill="none" id="aCostumer-to-US05" style="stroke:#181818;stroke-width:1.0;"/><polygon fill="#181818" points="301.85,327.78,292.1859,325.8814,296.9752,328.8918,293.9648,333.6811,301.85,327.78" style="stroke:#181818;stroke-width:1.0;"/></g><!--MD5=[3d21f567a62dbac41fde1cf7a6e2422b]
link rCostumer to US06--><g id="link_rCostumer_US06"><path d="M82.31,883.15 C97.71,982.76 142.73,1239.53 205,1295.5 C239.6,1326.61 288.93,1338.45 333.71,1341.88 " fill="none" id="rCostumer-to-US06" style="stroke:#181818;stroke-width:1.0;"/><polygon fill="#181818" points="338.87,1342.24,330.1656,1337.632,333.8818,1341.897,329.6168,1345.6131,338.87,1342.24" style="stroke:#181818;stroke-width:1.0;"/></g><!--MD5=[52b6501d1369e2d86a4e94618545a4cb]
link rCostumer to US07--><g id="link_rCostumer_US07"><path d="M142.51,883.15 C162.09,893.6 183.95,904.03 205,911.5 C241.94,924.6 283.48,934.39 321.39,941.54 " fill="none" id="rCostumer-to-US07" style="stroke:#181818;stroke-width:1.0;"/><polygon fill="#181818" points="326.48,942.49,318.3635,936.9113,321.5643,941.5755,316.9002,944.7763,326.48,942.49" style="stroke:#181818;stroke-width:1.0;"/></g><!--MD5=[374e64827fdb869bab86822bf49c657f]
link rCostumer to US08--><g id="link_rCostumer_US08"><path d="M89.44,803.98 C120.73,708.63 198.41,473.33 205,467.5 C229.31,445.99 260.49,432.89 292.22,425.09 " fill="none" id="rCostumer-to-US08" style="stroke:#181818;stroke-width:1.0;"/><polygon fill="#181818" points="297.31,423.88,287.6292,422.0682,292.4454,425.0355,289.4781,429.8517,297.31,423.88" style="stroke:#181818;stroke-width:1.0;"/></g><!--MD5=[5e0d4474ae414444c3b2d8c088a77696]
link aCostumer to US08--><g id="link_aCostumer_US08"><path d="M113.06,536.77 C136.99,513.14 170.19,484.54 205,467.5 C236.53,452.06 272.7,441.38 307.15,433.99 " fill="none" id="aCostumer-to-US08" style="stroke:#181818;stroke-width:1.0;"/><polygon fill="#181818" points="312.22,432.92,302.589,430.8599,307.3273,433.9501,304.2371,438.6883,312.22,432.92" style="stroke:#181818;stroke-width:1.0;"/></g><!--MD5=[98ca36647969103bff3ffbe37119b4fb]
link moderator to US09--><g id="link_moderator_US09"><path d="M108.14,119.06 C133.81,107.8 171.15,92.47 205,82.5 C244.83,70.77 289.27,61.11 328.87,53.66 " fill="none" id="moderator-to-US09" style="stroke:#181818;stroke-width:1.0;"/><polygon fill="#181818" points="334.17,52.67,324.5902,50.3837,329.2543,53.5845,326.0535,58.2487,334.17,52.67" style="stroke:#181818;stroke-width:1.0;"/></g><!--MD5=[bced7ed7932a9c8c33b3905cba006787]
link moderator to US10--><g id="link_moderator_US10"><path d="M108.06,133.5 C147.75,133.5 218.74,133.5 285.18,133.5 " fill="none" id="moderator-to-US10" style="stroke:#181818;stroke-width:1.0;"/><polygon fill="#181818" points="290.37,133.5,281.37,129.5,285.37,133.5,281.37,137.5,290.37,133.5" style="stroke:#181818;stroke-width:1.0;"/></g><!--MD5=[bde298a7ae4431ae7810d9124e95b4ec]
link rCostumer to US11--><g id="link_rCostumer_US11"><path d="M96.74,883.22 C118.26,921.19 155.95,976.89 205,1006.5 C239.6,1027.38 281.8,1038.79 321,1044.88 " fill="none" id="rCostumer-to-US11" style="stroke:#181818;stroke-width:1.0;"/><polygon fill="#181818" points="326.26,1045.67,317.9544,1040.3768,321.3155,1044.9269,316.7655,1048.288,326.26,1045.67" style="stroke:#181818;stroke-width:1.0;"/></g><!--MD5=[2bd94c38bcd1ac5d912049a6b3134391]
link aCostumer to US12--><g id="link_aCostumer_US12"><path d="M145.01,566.59 C185.57,560.73 238.68,553.05 288.81,545.8 " fill="none" id="aCostumer-to-US12" style="stroke:#181818;stroke-width:1.0;"/><polygon fill="#181818" points="293.97,545.05,284.4904,542.3783,289.0214,545.7651,285.6346,550.2961,293.97,545.05" style="stroke:#181818;stroke-width:1.0;"/></g><!--MD5=[d9c098839e7ebe4abd1e06ed92219dc4]
link rCostumer to US12--><g id="link_rCostumer_US12"><path d="M84.57,803.63 C98.54,745.23 132.94,637.12 205,579.5 C225.99,562.72 251.15,550.81 277.14,542.4 " fill="none" id="rCostumer-to-US12" style="stroke:#181818;stroke-width:1.0;"/><polygon fill="#181818" points="282,540.86,272.2147,539.7432,277.2301,542.3595,274.6139,547.375,282,540.86" style="stroke:#181818;stroke-width:1.0;"/></g><!--MD5=[6db11366264831c2a1ef4678d955cea6]
link rCostumer to US13--><g id="link_rCostumer_US13"><path d="M85.6,883.37 C100.54,939.45 135.79,1040.75 205,1094.5 C228.25,1112.56 256.41,1124.79 285.1,1133.03 " fill="none" id="rCostumer-to-US13" style="stroke:#181818;stroke-width:1.0;"/><polygon fill="#181818" points="290.09,1134.42,282.4956,1128.149,285.2738,1133.0766,280.3462,1135.8548,290.09,1134.42" style="stroke:#181818;stroke-width:1.0;"/></g><!--MD5=[8f525a0f9a78e2f5f5c030ce632a5593]
link moderator to US14--><g id="link_moderator_US14"><path d="M108.12,147.82 C133.77,158.94 171.11,174.02 205,183.5 C250.42,196.21 301.85,205.86 345.24,212.68 " fill="none" id="moderator-to-US14" style="stroke:#181818;stroke-width:1.0;"/><polygon fill="#181818" points="350.22,213.46,341.9445,208.12,345.2798,212.689,340.7108,216.0243,350.22,213.46" style="stroke:#181818;stroke-width:1.0;"/></g><!--MD5=[ae3f05832b550d867a84d9710c41ef8a]
@startuml
'https://plantuml.com/use-case-diagram

left to right direction


:Anonymous Customer: as aCostumer
:Registered Customer: as rCostumer
:Moderator: as moderator


(US01  - To obtain the catalog of products) as US01
(US02  - To obtain the details of a product) as US02
(US03  - To search the catalog of products by product name or bar code) as US03
(US04  - To review and rate a product) as US04
(US05  - To obtain the reviews of a product) as US05
(US06  - To vote for a review) as US06
(US07  - To withdraw one of my reviews) as US07
(US08  - To obtain the reviews of a product) as US08
(US09  - To obtain all pending reviews) as US09
(US10  - To approve/reject a pending review) as US10
(US11  - To obtain all my reviews) as US11
(US12  - To obtain the aggregated rating of a product) as US12
(US13  - To vote in a review that doesn't exist yet) as US13
(US14  - To create a product) as US14

'package 1'
aCostumer - -> US01
aCostumer - -> US02
aCostumer - -> US03

rCostumer - -> US01
rCostumer - -> US02
rCostumer - -> US03

'package 2'
rCostumer - -> US04
rCostumer - -> US05
aCostumer - -> US05

'package 3'
rCostumer - -> US06
rCostumer - -> US07
rCostumer - -> US08
aCostumer - -> US08

'package 4'
moderator - -> US09
moderator - -> US10
rCostumer - -> US11

'package 5'
aCostumer - -> US12
rCostumer - -> US12

rCostumer - -> US13
moderator - -> US14





@enduml

@startuml

left to right direction


:Anonymous Customer: as aCostumer
:Registered Customer: as rCostumer
:Moderator: as moderator


(US01  - To obtain the catalog of products) as US01
(US02  - To obtain the details of a product) as US02
(US03  - To search the catalog of products by product name or bar code) as US03
(US04  - To review and rate a product) as US04
(US05  - To obtain the reviews of a product) as US05
(US06  - To vote for a review) as US06
(US07  - To withdraw one of my reviews) as US07
(US08  - To obtain the reviews of a product) as US08
(US09  - To obtain all pending reviews) as US09
(US10  - To approve/reject a pending review) as US10
(US11  - To obtain all my reviews) as US11
(US12  - To obtain the aggregated rating of a product) as US12
(US13  - To vote in a review that doesn't exist yet) as US13
(US14  - To create a product) as US14

aCostumer - -> US01
aCostumer - -> US02
aCostumer - -> US03

rCostumer - -> US01
rCostumer - -> US02
rCostumer - -> US03

rCostumer - -> US04
rCostumer - -> US05
aCostumer - -> US05

rCostumer - -> US06
rCostumer - -> US07
rCostumer - -> US08
aCostumer - -> US08

moderator - -> US09
moderator - -> US10
rCostumer - -> US11

aCostumer - -> US12
rCostumer - -> US12

rCostumer - -> US13
moderator - -> US14





@enduml

PlantUML version 1.2022.13(Sat Nov 19 13:22:17 WET 2022)
(GPL source distribution)
Java Runtime: OpenJDK Runtime Environment
JVM: OpenJDK 64-Bit Server VM
Default Encoding: Cp1252
Language: pt
Country: PT
--></g></svg>