<?xml version="1.0" encoding="UTF-8" standalone="no"?><svg xmlns="http://www.w3.org/2000/svg" xmlns:xlink="http://www.w3.org/1999/xlink" contentStyleType="text/css" height="1283px" preserveAspectRatio="none" style="width:689px;height:1283px;background:#FFFFFF;" version="1.1" viewBox="0 0 689 1283" width="689px" zoomAndPan="magnify"><defs/><g><!--MD5=[47539729e2a0bb1969f0b89659c6c8d6]
entity aCostumer--><g id="elem_aCostumer"><ellipse cx="75.5" cy="462.5" fill="#F1F1F1" rx="8" ry="8" style="stroke:#181818;stroke-width:0.5;"/><path d="M75.5,470.5 L75.5,497.5 M62.5,478.5 L88.5,478.5 M75.5,497.5 L62.5,512.5 M75.5,497.5 L88.5,512.5 " fill="none" style="stroke:#181818;stroke-width:0.5;"/><text fill="#000000" font-family="sans-serif" font-size="14" lengthAdjust="spacing" textLength="139" x="6" y="529.1074">Anonymous Customer</text></g><!--MD5=[358ecdeec086bd8c0c7949b4639c8a49]
entity rCostumer--><g id="elem_rCostumer"><ellipse cx="75.5" cy="729.5" fill="#F1F1F1" rx="8" ry="8" style="stroke:#181818;stroke-width:0.5;"/><path d="M75.5,737.5 L75.5,764.5 M62.5,745.5 L88.5,745.5 M75.5,764.5 L62.5,779.5 M75.5,764.5 L88.5,779.5 " fill="none" style="stroke:#181818;stroke-width:0.5;"/><text fill="#000000" font-family="sans-serif" font-size="14" lengthAdjust="spacing" textLength="134" x="8.5" y="796.1074">Registered Customer</text></g><!--MD5=[1eac134bd398c59a4c90fba18858d819]
entity moderator--><g id="elem_moderator"><ellipse cx="75.5" cy="53.5" fill="#F1F1F1" rx="8" ry="8" style="stroke:#181818;stroke-width:0.5;"/><path d="M75.5,61.5 L75.5,88.5 M62.5,69.5 L88.5,69.5 M75.5,88.5 L62.5,103.5 M75.5,88.5 L88.5,103.5 " fill="none" style="stroke:#181818;stroke-width:0.5;"/><text fill="#000000" font-family="sans-serif" font-size="14" lengthAdjust="spacing" textLength="65" x="43" y="120.1074">Moderator</text></g><g id="elem_US01"><ellipse cx="444.2469" cy="545.7494" fill="#F1F1F1" rx="146.7469" ry="31.7494" style="stroke:#181818;stroke-width:0.5;"/><text fill="#000000" font-family="sans-serif" font-size="14" lengthAdjust="spacing" textLength="260" x="314.2469" y="549.5462">US01  - To obtain the catalog of products</text></g><g id="elem_US02"><ellipse cx="444.2469" cy="643.7494" fill="#F1F1F1" rx="146.7469" ry="31.7494" style="stroke:#181818;stroke-width:0.5;"/><text fill="#000000" font-family="sans-serif" font-size="14" lengthAdjust="spacing" textLength="260" x="314.2469" y="647.5462">US02  - To obtain the details of a product</text></g><g id="elem_US03"><ellipse cx="444.1343" cy="760.7269" fill="#F1F1F1" rx="239.1343" ry="50.2269" style="stroke:#181818;stroke-width:0.5;"/><text fill="#000000" font-family="sans-serif" font-size="14" lengthAdjust="spacing" textLength="451" x="218.6343" y="764.5237">US03  - To search the catalog of products by product name or bar code</text></g><g id="elem_US04"><ellipse cx="444.0473" cy="1165.7095" fill="#F1F1F1" rx="134.0473" ry="29.2095" style="stroke:#181818;stroke-width:0.5;"/><text fill="#000000" font-family="sans-serif" font-size="14" lengthAdjust="spacing" textLength="233" x="327.5473" y="1169.5063">US04  - To review and rate a product</text></g><g id="elem_US05"><ellipse cx="444.0884" cy="234.3177" fill="#F1F1F1" rx="149.5884" ry="32.3177" style="stroke:#181818;stroke-width:0.5;"/><text fill="#000000" font-family="sans-serif" font-size="14" lengthAdjust="spacing" textLength="266" x="311.0884" y="238.1146">US05  - To obtain the reviews of a product</text></g><g id="elem_US06"><ellipse cx="443.8959" cy="1253.4792" fill="#F1F1F1" rx="107.8959" ry="23.9792" style="stroke:#181818;stroke-width:0.5;"/><text fill="#000000" font-family="sans-serif" font-size="14" lengthAdjust="spacing" textLength="176" x="355.8959" y="1257.2761">US06  - To vote for a review</text></g><g id="elem_US07"><ellipse cx="444.2329" cy="875.6466" fill="#F1F1F1" rx="138.7329" ry="30.1466" style="stroke:#181818;stroke-width:0.5;"/><text fill="#000000" font-family="sans-serif" font-size="14" lengthAdjust="spacing" textLength="243" x="322.7329" y="879.4434">US07  - To withdraw one of my reviews</text></g><g id="elem_US08"><ellipse cx="444.0884" cy="334.3177" fill="#F1F1F1" rx="149.5884" ry="32.3177" style="stroke:#181818;stroke-width:0.5;"/><text fill="#000000" font-family="sans-serif" font-size="14" lengthAdjust="spacing" textLength="266" x="311.0884" y="338.1146">US08  - To obtain the reviews of a product</text></g><g id="elem_US09"><ellipse cx="443.9826" cy="35.3965" fill="#F1F1F1" rx="134.9826" ry="29.3965" style="stroke:#181818;stroke-width:0.5;"/><text fill="#000000" font-family="sans-serif" font-size="14" lengthAdjust="spacing" textLength="235" x="326.4826" y="39.1934">US09  - To obtain all pending reviews</text></g><g id="elem_US10"><ellipse cx="443.8867" cy="133.5773" fill="#F1F1F1" rx="153.3867" ry="33.0773" style="stroke:#181818;stroke-width:0.5;"/><text fill="#000000" font-family="sans-serif" font-size="14" lengthAdjust="spacing" textLength="274" x="306.8867" y="137.3742">US10  - To approve/reject a pending review</text></g><g id="elem_US11"><ellipse cx="444.1883" cy="967.3377" fill="#F1F1F1" rx="119.6883" ry="26.3377" style="stroke:#181818;stroke-width:0.5;"/><text fill="#000000" font-family="sans-serif" font-size="14" lengthAdjust="spacing" textLength="202" x="343.1883" y="971.1345">US11  - To obtain all my reviews</text></g><g id="elem_US12"><ellipse cx="444.1885" cy="440.6377" fill="#F1F1F1" rx="181.1885" ry="38.6377" style="stroke:#181818;stroke-width:0.5;"/><text fill="#000000" font-family="sans-serif" font-size="14" lengthAdjust="spacing" textLength="332" x="278.1885" y="444.4346">US12  - To obtain the aggregated rating of a product</text></g><g id="elem_US13"><ellipse cx="444.2358" cy="1065.3472" fill="#F1F1F1" rx="167.2358" ry="35.8472" style="stroke:#181818;stroke-width:0.5;"/><text fill="#000000" font-family="sans-serif" font-size="14" lengthAdjust="spacing" textLength="303" x="292.7358" y="1069.144">US13  - To vote in a review that doesn't exist yet</text></g><!--MD5=[318b492cb307b4341f3fa5bf436b4c80]
link aCostumer to US01--><g id="link_aCostumer_US01"><path d="M145.01,503.22 C193.07,510.04 258.76,519.36 316.24,527.51 " fill="none" id="aCostumer-to-US01" style="stroke:#181818;stroke-width:1.0;"/><polygon fill="#181818" points="321.42,528.25,313.0677,523.0309,316.4691,527.5509,311.9491,530.9523,321.42,528.25" style="stroke:#181818;stroke-width:1.0;"/></g><!--MD5=[fdb44c70ca32126696f6352161c77615]
link aCostumer to US02--><g id="link_aCostumer_US02"><path d="M116.6,533.03 C140.43,554.35 172.31,579.33 205,594.5 C237.55,609.61 274.75,620.09 309.91,627.34 " fill="none" id="aCostumer-to-US02" style="stroke:#181818;stroke-width:1.0;"/><polygon fill="#181818" points="315.08,628.39,307.0616,622.6711,310.181,627.3902,305.4619,630.5096,315.08,628.39" style="stroke:#181818;stroke-width:1.0;"/></g><!--MD5=[b9ef5025f62cc4bf3c3199a76b33da47]
link aCostumer to US03--><g id="link_aCostumer_US03"><path d="M91.94,533.29 C111.5,578.51 149.49,651.36 205,692.5 C222.57,705.53 242.57,716.06 263.32,724.58 " fill="none" id="aCostumer-to-US03" style="stroke:#181818;stroke-width:1.0;"/><polygon fill="#181818" points="268.04,726.48,261.1956,719.3981,263.4046,724.6058,258.1968,726.8148,268.04,726.48" style="stroke:#181818;stroke-width:1.0;"/></g><!--MD5=[25b94357164023bc3924351309862788]
link rCostumer to US01--><g id="link_rCostumer_US01"><path d="M96.28,720.99 C117.69,682.48 155.52,625.35 205,594.5 C233.92,576.47 268.28,564.94 301.77,557.6 " fill="none" id="rCostumer-to-US01" style="stroke:#181818;stroke-width:1.0;"/><polygon fill="#181818" points="306.71,556.55,297.0733,554.5169,301.8202,557.5937,298.7433,562.3406,306.71,556.55" style="stroke:#181818;stroke-width:1.0;"/></g><!--MD5=[73e21f45a8bfa8d022e21304665a03df]
link rCostumer to US02--><g id="link_rCostumer_US02"><path d="M142.62,721.63 C162.21,711.33 184.04,701.01 205,693.5 C241.33,680.49 282.06,670.4 319.41,662.8 " fill="none" id="rCostumer-to-US02" style="stroke:#181818;stroke-width:1.0;"/><polygon fill="#181818" points="324.42,661.79,314.8079,659.6435,319.5182,662.7761,316.3856,667.4864,324.42,661.79" style="stroke:#181818;stroke-width:1.0;"/></g><!--MD5=[104920f705f764db3e7d70334afe8a18]
link rCostumer to US03--><g id="link_rCostumer_US03"><path d="M142.87,760.5 C159.89,760.5 179.22,760.5 199.67,760.5 " fill="none" id="rCostumer-to-US03" style="stroke:#181818;stroke-width:1.0;"/><polygon fill="#181818" points="204.89,760.5,195.89,756.5,199.89,760.5,195.89,764.5,204.89,760.5" style="stroke:#181818;stroke-width:1.0;"/></g><!--MD5=[9bb7018731015c12701ab47389730275]
link rCostumer to US04--><g id="link_rCostumer_US04"><path d="M78.42,800.2 C84.3,874.93 108.15,1036.42 205,1119.5 C232.71,1143.27 268.96,1156.21 304.78,1162.93 " fill="none" id="rCostumer-to-US04" style="stroke:#181818;stroke-width:1.0;"/><polygon fill="#181818" points="310.07,1163.88,301.9194,1158.3512,305.1488,1162.9956,300.5044,1166.225,310.07,1163.88" style="stroke:#181818;stroke-width:1.0;"/></g><!--MD5=[bd35b0e0ab00046a31af5a5bdfc7daac]
link rCostumer to US05--><g id="link_rCostumer_US05"><path d="M90.62,720.97 C105.32,679 128.46,610.58 145,550.5 C177.16,433.65 118.67,369.56 205,284.5 C228.19,261.65 259.02,248.02 290.76,240.15 " fill="none" id="rCostumer-to-US05" style="stroke:#181818;stroke-width:1.0;"/><polygon fill="#181818" points="295.86,238.93,286.173,237.1516,290.9994,240.1023,288.0487,244.9286,295.86,238.93" style="stroke:#181818;stroke-width:1.0;"/></g><!--MD5=[134de7664654d0c32c81179116cc16de]
link aCostumer to US05--><g id="link_aCostumer_US05"><path d="M89.73,453.96 C107.89,406.05 145.26,326.55 205,284.5 C231.87,265.58 264.41,253.55 296.68,245.96 " fill="none" id="aCostumer-to-US05" style="stroke:#181818;stroke-width:1.0;"/><polygon fill="#181818" points="301.85,244.78,292.1859,242.8814,296.9752,245.8918,293.9648,250.6811,301.85,244.78" style="stroke:#181818;stroke-width:1.0;"/></g><!--MD5=[3d21f567a62dbac41fde1cf7a6e2422b]
link rCostumer to US06--><g id="link_rCostumer_US06"><path d="M82.31,800.15 C97.71,899.76 142.73,1156.53 205,1212.5 C239.6,1243.61 288.93,1255.45 333.71,1258.88 " fill="none" id="rCostumer-to-US06" style="stroke:#181818;stroke-width:1.0;"/><polygon fill="#181818" points="338.87,1259.24,330.1656,1254.632,333.8818,1258.897,329.6168,1262.6131,338.87,1259.24" style="stroke:#181818;stroke-width:1.0;"/></g><!--MD5=[52b6501d1369e2d86a4e94618545a4cb]
link rCostumer to US07--><g id="link_rCostumer_US07"><path d="M142.51,800.15 C162.09,810.6 183.95,821.03 205,828.5 C241.94,841.6 283.48,851.39 321.39,858.54 " fill="none" id="rCostumer-to-US07" style="stroke:#181818;stroke-width:1.0;"/><polygon fill="#181818" points="326.48,859.49,318.3635,853.9113,321.5643,858.5755,316.9002,861.7763,326.48,859.49" style="stroke:#181818;stroke-width:1.0;"/></g><!--MD5=[374e64827fdb869bab86822bf49c657f]
link rCostumer to US08--><g id="link_rCostumer_US08"><path d="M89.44,720.98 C120.73,625.63 198.41,390.33 205,384.5 C229.31,362.99 260.49,349.89 292.22,342.09 " fill="none" id="rCostumer-to-US08" style="stroke:#181818;stroke-width:1.0;"/><polygon fill="#181818" points="297.31,340.88,287.6292,339.0682,292.4454,342.0355,289.4781,346.8517,297.31,340.88" style="stroke:#181818;stroke-width:1.0;"/></g><!--MD5=[5e0d4474ae414444c3b2d8c088a77696]
link aCostumer to US08--><g id="link_aCostumer_US08"><path d="M113.06,453.77 C136.99,430.14 170.19,401.54 205,384.5 C236.53,369.06 272.7,358.38 307.15,350.99 " fill="none" id="aCostumer-to-US08" style="stroke:#181818;stroke-width:1.0;"/><polygon fill="#181818" points="312.22,349.92,302.589,347.8599,307.3273,350.9501,304.2371,355.6883,312.22,349.92" style="stroke:#181818;stroke-width:1.0;"/></g><!--MD5=[98ca36647969103bff3ffbe37119b4fb]
link moderator to US09--><g id="link_moderator_US09"><path d="M108.06,80.28 C155.55,73.93 247.88,61.59 323.59,51.47 " fill="none" id="moderator-to-US09" style="stroke:#181818;stroke-width:1.0;"/><polygon fill="#181818" points="328.55,50.8,319.0946,48.0442,323.5952,51.4711,320.1683,55.9718,328.55,50.8" style="stroke:#181818;stroke-width:1.0;"/></g><!--MD5=[bced7ed7932a9c8c33b3905cba006787]
link moderator to US10--><g id="link_moderator_US10"><path d="M108.06,88.72 C152.32,94.64 235.52,105.76 307.92,115.44 " fill="none" id="moderator-to-US10" style="stroke:#181818;stroke-width:1.0;"/><polygon fill="#181818" points="313.11,116.13,304.7283,110.9582,308.1552,115.4589,303.6546,118.8858,313.11,116.13" style="stroke:#181818;stroke-width:1.0;"/></g><!--MD5=[bde298a7ae4431ae7810d9124e95b4ec]
link rCostumer to US11--><g id="link_rCostumer_US11"><path d="M96.74,800.22 C118.26,838.19 155.95,893.89 205,923.5 C239.6,944.38 281.8,955.79 321,961.88 " fill="none" id="rCostumer-to-US11" style="stroke:#181818;stroke-width:1.0;"/><polygon fill="#181818" points="326.26,962.67,317.9544,957.3768,321.3155,961.9269,316.7655,965.288,326.26,962.67" style="stroke:#181818;stroke-width:1.0;"/></g><!--MD5=[2bd94c38bcd1ac5d912049a6b3134391]
link aCostumer to US12--><g id="link_aCostumer_US12"><path d="M145.01,483.59 C185.57,477.73 238.68,470.05 288.81,462.8 " fill="none" id="aCostumer-to-US12" style="stroke:#181818;stroke-width:1.0;"/><polygon fill="#181818" points="293.97,462.05,284.4904,459.3783,289.0214,462.7651,285.6346,467.2961,293.97,462.05" style="stroke:#181818;stroke-width:1.0;"/></g><!--MD5=[d9c098839e7ebe4abd1e06ed92219dc4]
link rCostumer to US12--><g id="link_rCostumer_US12"><path d="M84.57,720.63 C98.54,662.23 132.94,554.12 205,496.5 C225.99,479.72 251.15,467.81 277.14,459.4 " fill="none" id="rCostumer-to-US12" style="stroke:#181818;stroke-width:1.0;"/><polygon fill="#181818" points="282,457.86,272.2147,456.7432,277.2301,459.3595,274.6139,464.375,282,457.86" style="stroke:#181818;stroke-width:1.0;"/></g><!--MD5=[6db11366264831c2a1ef4678d955cea6]
link rCostumer to US13--><g id="link_rCostumer_US13"><path d="M85.6,800.37 C100.54,856.45 135.79,957.75 205,1011.5 C228.25,1029.56 256.41,1041.79 285.1,1050.03 " fill="none" id="rCostumer-to-US13" style="stroke:#181818;stroke-width:1.0;"/><polygon fill="#181818" points="290.09,1051.42,282.4956,1045.149,285.2738,1050.0766,280.3462,1052.8548,290.09,1051.42" style="stroke:#181818;stroke-width:1.0;"/></g><!--MD5=[121efc134becb27480148445841ea919]
@startuml
'https://plantuml.com/use-case-diagram

left to right direction


:Anonymous Customer: as aCostumer
:Registered Customer: as rCostumer
:Moderator: as moderator


(US01  - To obtain the catalog of products) as US01
(US02  - To obtain the details of a product) as US02
(US03  - To search the catalog of products by product name or bar code) as US03
(US04  - To review and rate a product) as US04
(US05  - To obtain the reviews of a product) as US05
(US06  - To vote for a review) as US06
(US07  - To withdraw one of my reviews) as US07
(US08  - To obtain the reviews of a product) as US08
(US09  - To obtain all pending reviews) as US09
(US10  - To approve/reject a pending review) as US10
(US11  - To obtain all my reviews) as US11
(US12  - To obtain the aggregated rating of a product) as US12
(US13  - To vote in a review that doesn't exist yet) as US13

'package 1'
aCostumer - -> US01
aCostumer - -> US02
aCostumer - -> US03

rCostumer - -> US01
rCostumer - -> US02
rCostumer - -> US03

'package 2'
rCostumer - -> US04
rCostumer - -> US05
aCostumer - -> US05

'package 3'
rCostumer - -> US06
rCostumer - -> US07
rCostumer - -> US08
aCostumer - -> US08

'package 4'
moderator - -> US09
moderator - -> US10
rCostumer - -> US11

'package 5'
aCostumer - -> US12
rCostumer - -> US12

rCostumer - -> US13





@enduml

@startuml

left to right direction


:Anonymous Customer: as aCostumer
:Registered Customer: as rCostumer
:Moderator: as moderator


(US01  - To obtain the catalog of products) as US01
(US02  - To obtain the details of a product) as US02
(US03  - To search the catalog of products by product name or bar code) as US03
(US04  - To review and rate a product) as US04
(US05  - To obtain the reviews of a product) as US05
(US06  - To vote for a review) as US06
(US07  - To withdraw one of my reviews) as US07
(US08  - To obtain the reviews of a product) as US08
(US09  - To obtain all pending reviews) as US09
(US10  - To approve/reject a pending review) as US10
(US11  - To obtain all my reviews) as US11
(US12  - To obtain the aggregated rating of a product) as US12
(US13  - To vote in a review that doesn't exist yet) as US13

aCostumer - -> US01
aCostumer - -> US02
aCostumer - -> US03

rCostumer - -> US01
rCostumer - -> US02
rCostumer - -> US03

rCostumer - -> US04
rCostumer - -> US05
aCostumer - -> US05

rCostumer - -> US06
rCostumer - -> US07
rCostumer - -> US08
aCostumer - -> US08

moderator - -> US09
moderator - -> US10
rCostumer - -> US11

aCostumer - -> US12
rCostumer - -> US12

rCostumer - -> US13





@enduml

PlantUML version 1.2022.13(Sat Nov 19 13:22:17 WET 2022)
(GPL source distribution)
Java Runtime: OpenJDK Runtime Environment
JVM: OpenJDK 64-Bit Server VM
Default Encoding: Cp1252
Language: pt
Country: PT
--></g></svg>