<?xml version="1.0" encoding="UTF-8" standalone="no"?><svg xmlns="http://www.w3.org/2000/svg" xmlns:xlink="http://www.w3.org/1999/xlink" contentStyleType="text/css" height="717px" preserveAspectRatio="none" style="width:1172px;height:717px;background:#FFFFFF;" version="1.1" viewBox="0 0 1172 717" width="1172px" zoomAndPan="magnify"><defs/><g><text fill="#000000" font-family="sans-serif" font-size="14" font-weight="bold" lengthAdjust="spacing" textLength="213" x="481" y="30.1074">Obtain the catalog of products</text><rect fill="#FFFFFF" height="492.4043" style="stroke:#181818;stroke-width:1.0;" width="10" x="21" y="133.2422"/><rect fill="#FFFFFF" height="460.1133" style="stroke:#181818;stroke-width:1.0;" width="10" x="192" y="156.5332"/><rect fill="#FFFFFF" height="397.5313" style="stroke:#181818;stroke-width:1.0;" width="10" x="363" y="187.8242"/><rect fill="#FFFFFF" height="334.9492" style="stroke:#181818;stroke-width:1.0;" width="10" x="579" y="219.1152"/><rect fill="#FFFFFF" height="375.2402" style="stroke:#181818;stroke-width:1.0;" width="10" x="809" y="250.4063"/><rect fill="#FFFFFF" height="233.0762" style="stroke:#181818;stroke-width:1.0;" width="10" x="814" y="289.6973"/><rect fill="#FFFFFF" height="143.4941" style="stroke:#181818;stroke-width:1.0;" width="10" x="819" y="333.9883"/><rect fill="none" height="138.4941" style="stroke:#000000;stroke-width:1.5;" width="474" x="692" y="353.9883"/><line style="stroke:#181818;stroke-width:0.5;stroke-dasharray:5.0,5.0;" x1="26" x2="26" y1="123.2422" y2="634.6465"/><line style="stroke:#181818;stroke-width:0.5;stroke-dasharray:5.0,5.0;" x1="197" x2="197" y1="123.2422" y2="634.6465"/><line style="stroke:#181818;stroke-width:0.5;stroke-dasharray:5.0,5.0;" x1="368" x2="368" y1="123.2422" y2="634.6465"/><line style="stroke:#181818;stroke-width:0.5;stroke-dasharray:5.0,5.0;" x1="584" x2="584" y1="123.2422" y2="634.6465"/><line style="stroke:#181818;stroke-width:0.5;stroke-dasharray:5.0,5.0;" x1="814" x2="814" y1="123.2422" y2="634.6465"/><line style="stroke:#181818;stroke-width:0.5;stroke-dasharray:5.0,5.0;" x1="1098" x2="1098" y1="405.0898" y2="634.6465"/><text fill="#000000" font-family="sans-serif" font-size="14" lengthAdjust="spacing" textLength="36" x="5" y="119.7285">Client</text><ellipse cx="26" cy="53.1211" fill="#E2E2F0" rx="8" ry="8" style="stroke:#181818;stroke-width:0.5;"/><path d="M26,61.1211 L26,88.1211 M13,69.1211 L39,69.1211 M26,88.1211 L13,103.1211 M26,88.1211 L39,103.1211 " fill="none" style="stroke:#181818;stroke-width:0.5;"/><text fill="#000000" font-family="sans-serif" font-size="14" lengthAdjust="spacing" textLength="36" x="5" y="648.7539">Client</text><ellipse cx="26" cy="660.7676" fill="#E2E2F0" rx="8" ry="8" style="stroke:#181818;stroke-width:0.5;"/><path d="M26,668.7676 L26,695.7676 M13,676.7676 L39,676.7676 M26,695.7676 L13,710.7676 M26,695.7676 L39,710.7676 " fill="none" style="stroke:#181818;stroke-width:0.5;"/><rect fill="#E2E2F0" height="32.6211" rx="2.5" ry="2.5" style="stroke:#181818;stroke-width:0.5;" width="94" x="150" y="89.6211"/><text fill="#000000" font-family="sans-serif" font-size="14" lengthAdjust="spacing" textLength="80" x="157" y="111.7285">:ProductQ_n</text><rect fill="#E2E2F0" height="32.6211" rx="2.5" ry="2.5" style="stroke:#181818;stroke-width:0.5;" width="94" x="150" y="633.6465"/><text fill="#000000" font-family="sans-serif" font-size="14" lengthAdjust="spacing" textLength="80" x="157" y="655.7539">:ProductQ_n</text><rect fill="#E2E2F0" height="32.6211" rx="2.5" ry="2.5" style="stroke:#181818;stroke-width:0.5;" width="132" x="302" y="89.6211"/><text fill="#000000" font-family="sans-serif" font-size="14" lengthAdjust="spacing" textLength="118" x="309" y="111.7285">ProductsController</text><rect fill="#E2E2F0" height="32.6211" rx="2.5" ry="2.5" style="stroke:#181818;stroke-width:0.5;" width="132" x="302" y="633.6465"/><text fill="#000000" font-family="sans-serif" font-size="14" lengthAdjust="spacing" textLength="118" x="309" y="655.7539">ProductsController</text><rect fill="#E2E2F0" height="32.6211" rx="2.5" ry="2.5" style="stroke:#181818;stroke-width:0.5;" width="216" x="476" y="89.6211"/><text fill="#000000" font-family="sans-serif" font-size="14" lengthAdjust="spacing" textLength="202" x="483" y="111.7285">productService:ProductsService</text><rect fill="#E2E2F0" height="32.6211" rx="2.5" ry="2.5" style="stroke:#181818;stroke-width:0.5;" width="216" x="476" y="633.6465"/><text fill="#000000" font-family="sans-serif" font-size="14" lengthAdjust="spacing" textLength="202" x="483" y="655.7539">productService:ProductsService</text><rect fill="#E2E2F0" height="32.6211" rx="2.5" ry="2.5" style="stroke:#181818;stroke-width:0.5;" width="224" x="702" y="89.6211"/><text fill="#000000" font-family="sans-serif" font-size="14" lengthAdjust="spacing" textLength="210" x="709" y="111.7285">productRepo:ProductsRepository</text><rect fill="#E2E2F0" height="32.6211" rx="2.5" ry="2.5" style="stroke:#181818;stroke-width:0.5;" width="224" x="702" y="633.6465"/><text fill="#000000" font-family="sans-serif" font-size="14" lengthAdjust="spacing" textLength="210" x="709" y="655.7539">productRepo:ProductsRepository</text><rect fill="#E2E2F0" height="32.6211" rx="2.5" ry="2.5" style="stroke:#181818;stroke-width:0.5;" width="116" x="1040" y="633.6465"/><text fill="#000000" font-family="sans-serif" font-size="14" lengthAdjust="spacing" textLength="102" x="1047" y="655.7539">:ProductCatalog</text><rect fill="#FFFFFF" height="492.4043" style="stroke:#181818;stroke-width:1.0;" width="10" x="21" y="133.2422"/><rect fill="#FFFFFF" height="460.1133" style="stroke:#181818;stroke-width:1.0;" width="10" x="192" y="156.5332"/><rect fill="#FFFFFF" height="397.5313" style="stroke:#181818;stroke-width:1.0;" width="10" x="363" y="187.8242"/><rect fill="#FFFFFF" height="334.9492" style="stroke:#181818;stroke-width:1.0;" width="10" x="579" y="219.1152"/><rect fill="#FFFFFF" height="375.2402" style="stroke:#181818;stroke-width:1.0;" width="10" x="809" y="250.4063"/><rect fill="#FFFFFF" height="233.0762" style="stroke:#181818;stroke-width:1.0;" width="10" x="814" y="289.6973"/><rect fill="#FFFFFF" height="143.4941" style="stroke:#181818;stroke-width:1.0;" width="10" x="819" y="333.9883"/><polygon fill="#181818" points="180,152.5332,190,156.5332,180,160.5332,184,156.5332" style="stroke:#181818;stroke-width:1.0;"/><line style="stroke:#181818;stroke-width:1.0;" x1="31" x2="186" y1="156.5332" y2="156.5332"/><text fill="#000000" font-family="sans-serif" font-size="13" font-weight="bold" lengthAdjust="spacing" textLength="7" x="38" y="151.2705">1</text><text fill="#000000" font-family="sans-serif" font-size="13" lengthAdjust="spacing" textLength="84" x="49" y="151.2705">GET /products</text><polygon fill="#181818" points="351,183.8242,361,187.8242,351,191.8242,355,187.8242" style="stroke:#181818;stroke-width:1.0;"/><line style="stroke:#181818;stroke-width:1.0;" x1="202" x2="357" y1="187.8242" y2="187.8242"/><text fill="#000000" font-family="sans-serif" font-size="13" font-weight="bold" lengthAdjust="spacing" textLength="7" x="209" y="182.5615">2</text><text fill="#000000" font-family="sans-serif" font-size="13" lengthAdjust="spacing" textLength="84" x="220" y="182.5615">GET /products</text><polygon fill="#181818" points="567,215.1152,577,219.1152,567,223.1152,571,219.1152" style="stroke:#181818;stroke-width:1.0;"/><line style="stroke:#181818;stroke-width:1.0;" x1="373" x2="573" y1="219.1152" y2="219.1152"/><text fill="#000000" font-family="sans-serif" font-size="13" font-weight="bold" lengthAdjust="spacing" textLength="7" x="380" y="213.8525">3</text><text fill="#000000" font-family="sans-serif" font-size="13" lengthAdjust="spacing" textLength="176" x="391" y="213.8525">productService.findAllCatalog()</text><polygon fill="#181818" points="797,246.4063,807,250.4063,797,254.4063,801,250.4063" style="stroke:#181818;stroke-width:1.0;"/><line style="stroke:#181818;stroke-width:1.0;" x1="589" x2="803" y1="250.4063" y2="250.4063"/><text fill="#000000" font-family="sans-serif" font-size="13" font-weight="bold" lengthAdjust="spacing" textLength="7" x="596" y="245.1436">4</text><text fill="#000000" font-family="sans-serif" font-size="13" lengthAdjust="spacing" textLength="164" x="607" y="245.1436">productRepo.findAllCatalog()</text><line style="stroke:#181818;stroke-width:1.0;" x1="819" x2="866" y1="276.6973" y2="276.6973"/><line style="stroke:#181818;stroke-width:1.0;" x1="866" x2="866" y1="276.6973" y2="289.6973"/><line style="stroke:#181818;stroke-width:1.0;" x1="825" x2="866" y1="289.6973" y2="289.6973"/><polygon fill="#181818" points="835,285.6973,825,289.6973,835,293.6973,831,289.6973" style="stroke:#181818;stroke-width:1.0;"/><text fill="#000000" font-family="sans-serif" font-size="13" font-weight="bold" lengthAdjust="spacing" textLength="7" x="831" y="271.4346">5</text><text fill="#000000" font-family="sans-serif" font-size="13" lengthAdjust="spacing" textLength="41" x="842" y="271.4346">getAll()</text><line style="stroke:#181818;stroke-width:1.0;" x1="824" x2="871" y1="320.9883" y2="320.9883"/><line style="stroke:#181818;stroke-width:1.0;" x1="871" x2="871" y1="320.9883" y2="333.9883"/><line style="stroke:#181818;stroke-width:1.0;" x1="830" x2="871" y1="333.9883" y2="333.9883"/><polygon fill="#181818" points="840,329.9883,830,333.9883,840,337.9883,836,333.9883" style="stroke:#181818;stroke-width:1.0;"/><text fill="#000000" font-family="sans-serif" font-size="13" font-weight="bold" lengthAdjust="spacing" textLength="7" x="836" y="315.7256">6</text><text fill="#000000" font-family="sans-serif" font-size="13" lengthAdjust="spacing" textLength="17" x="847" y="315.7256">list</text><path d="M692,353.9883 L765,353.9883 L765,363.2793 L755,373.2793 L692,373.2793 L692,353.9883 " fill="#EEEEEE" style="stroke:#000000;stroke-width:1.5;"/><rect fill="none" height="138.4941" style="stroke:#000000;stroke-width:1.5;" width="474" x="692" y="353.9883"/><text fill="#000000" font-family="sans-serif" font-size="13" font-weight="bold" lengthAdjust="spacing" textLength="28" x="707" y="369.0166">loop</text><text fill="#000000" font-family="sans-serif" font-size="11" font-weight="bold" lengthAdjust="spacing" textLength="144" x="780" y="367.8584">[for each 'product' in 'list']</text><polygon fill="#181818" points="1028,392.5703,1038,396.5703,1028,400.5703,1032,396.5703" style="stroke:#181818;stroke-width:1.0;"/><line style="stroke:#181818;stroke-width:1.0;" x1="829" x2="1034" y1="396.5703" y2="396.5703"/><text fill="#000000" font-family="sans-serif" font-size="13" font-weight="bold" lengthAdjust="spacing" textLength="7" x="836" y="391.3076">7</text><text fill="#000000" font-family="sans-serif" font-size="13" lengthAdjust="spacing" textLength="74" x="847" y="391.3076">new(product)</text><rect fill="#E2E2F0" height="32.6211" rx="2.5" ry="2.5" style="stroke:#181818;stroke-width:0.5;" width="116" x="1040" y="373.2793"/><text fill="#000000" font-family="sans-serif" font-size="14" lengthAdjust="spacing" textLength="102" x="1047" y="395.3867">:ProductCatalog</text><polygon fill="#181818" points="840,436.1914,830,440.1914,840,444.1914,836,440.1914" style="stroke:#181818;stroke-width:1.0;"/><line style="stroke:#181818;stroke-width:1.0;stroke-dasharray:2.0,2.0;" x1="834" x2="1097" y1="440.1914" y2="440.1914"/><text fill="#000000" font-family="sans-serif" font-size="13" font-weight="bold" lengthAdjust="spacing" textLength="7" x="846" y="434.9287">8</text><text fill="#000000" font-family="sans-serif" font-size="13" lengthAdjust="spacing" textLength="87" x="857" y="434.9287">productCatalog</text><line style="stroke:#181818;stroke-width:1.0;stroke-dasharray:2.0,2.0;" x1="829" x2="871" y1="476.4824" y2="476.4824"/><line style="stroke:#181818;stroke-width:1.0;stroke-dasharray:2.0,2.0;" x1="871" x2="871" y1="476.4824" y2="489.4824"/><line style="stroke:#181818;stroke-width:1.0;stroke-dasharray:2.0,2.0;" x1="824" x2="871" y1="489.4824" y2="489.4824"/><polygon fill="#181818" points="834,485.4824,824,489.4824,834,493.4824,830,489.4824" style="stroke:#181818;stroke-width:1.0;"/><text fill="#000000" font-family="sans-serif" font-size="13" font-weight="bold" lengthAdjust="spacing" textLength="7" x="836" y="471.2197">9</text><text fill="#000000" font-family="sans-serif" font-size="13" lengthAdjust="spacing" textLength="239" x="847" y="471.2197">listOfProductCatalog.add(productCatalog)</text><polygon fill="#181818" points="600,518.7734,590,522.7734,600,526.7734,596,522.7734" style="stroke:#181818;stroke-width:1.0;"/><line style="stroke:#181818;stroke-width:1.0;stroke-dasharray:2.0,2.0;" x1="594" x2="808" y1="522.7734" y2="522.7734"/><text fill="#000000" font-family="sans-serif" font-size="13" font-weight="bold" lengthAdjust="spacing" textLength="14" x="606" y="517.5107">10</text><text fill="#000000" font-family="sans-serif" font-size="13" lengthAdjust="spacing" textLength="119" x="624" y="517.5107">listOfProductCatalog</text><polygon fill="#181818" points="384,550.0645,374,554.0645,384,558.0645,380,554.0645" style="stroke:#181818;stroke-width:1.0;"/><line style="stroke:#181818;stroke-width:1.0;stroke-dasharray:2.0,2.0;" x1="378" x2="583" y1="554.0645" y2="554.0645"/><text fill="#000000" font-family="sans-serif" font-size="13" font-weight="bold" lengthAdjust="spacing" textLength="14" x="390" y="548.8018">11</text><text fill="#000000" font-family="sans-serif" font-size="13" lengthAdjust="spacing" textLength="119" x="408" y="548.8018">listOfProductCatalog</text><polygon fill="#181818" points="213,581.3555,203,585.3555,213,589.3555,209,585.3555" style="stroke:#181818;stroke-width:1.0;"/><line style="stroke:#181818;stroke-width:1.0;stroke-dasharray:2.0,2.0;" x1="207" x2="367" y1="585.3555" y2="585.3555"/><text fill="#000000" font-family="sans-serif" font-size="13" font-weight="bold" lengthAdjust="spacing" textLength="14" x="219" y="580.0928">12</text><text fill="#000000" font-family="sans-serif" font-size="13" lengthAdjust="spacing" textLength="119" x="237" y="580.0928">listOfProductCatalog</text><polygon fill="#181818" points="42,612.6465,32,616.6465,42,620.6465,38,616.6465" style="stroke:#181818;stroke-width:1.0;"/><line style="stroke:#181818;stroke-width:1.0;stroke-dasharray:2.0,2.0;" x1="36" x2="196" y1="616.6465" y2="616.6465"/><text fill="#000000" font-family="sans-serif" font-size="13" font-weight="bold" lengthAdjust="spacing" textLength="14" x="48" y="611.3838">13</text><text fill="#000000" font-family="sans-serif" font-size="13" lengthAdjust="spacing" textLength="119" x="66" y="611.3838">listOfProductCatalog</text><!--MD5=[da1f75718cd70c5412692d6aa75eead5]
@startuml
'https://plantuml.com/sequence-diagram

title Obtain the catalog of products
autoactivate on
autonumber

actor "Client" as client
participant ":ProductQ_n" as productQ
participant "ProductsController" as controller
participant "productService:ProductsService" as service
participant "productRepo:ProductsRepository" as repository
participant ":ProductCatalog" as details

activate client

client -> productQ : GET /products
productQ -> controller: GET /products
controller -> service : productService.findAllCatalog()
service -> repository: productRepo.findAllCatalog()
repository -> repository: getAll()
repository -> repository: list
loop for each 'product' in 'list'
    repository -> details**: new(product)
    details - -> repository: productCatalog
    repository - -> repository: listOfProductCatalog.add(productCatalog)
end loop
repository - -> service: listOfProductCatalog
service - -> controller: listOfProductCatalog
controller - -> productQ: listOfProductCatalog
productQ - -> client: listOfProductCatalog

@enduml

@startuml

title Obtain the catalog of products
autoactivate on
autonumber

actor "Client" as client
participant ":ProductQ_n" as productQ
participant "ProductsController" as controller
participant "productService:ProductsService" as service
participant "productRepo:ProductsRepository" as repository
participant ":ProductCatalog" as details

activate client

client -> productQ : GET /products
productQ -> controller: GET /products
controller -> service : productService.findAllCatalog()
service -> repository: productRepo.findAllCatalog()
repository -> repository: getAll()
repository -> repository: list
loop for each 'product' in 'list'
    repository -> details**: new(product)
    details - -> repository: productCatalog
    repository - -> repository: listOfProductCatalog.add(productCatalog)
end loop
repository - -> service: listOfProductCatalog
service - -> controller: listOfProductCatalog
controller - -> productQ: listOfProductCatalog
productQ - -> client: listOfProductCatalog

@enduml

PlantUML version 1.2022.13(Sat Nov 19 13:22:17 WET 2022)
(GPL source distribution)
Java Runtime: OpenJDK Runtime Environment
JVM: OpenJDK 64-Bit Server VM
Default Encoding: Cp1252
Language: pt
Country: PT
--></g></svg>