<?xml version="1.0" encoding="UTF-8" standalone="no"?><svg xmlns="http://www.w3.org/2000/svg" xmlns:xlink="http://www.w3.org/1999/xlink" contentStyleType="text/css" height="896px" preserveAspectRatio="none" style="width:1779px;height:896px;background:#FFFFFF;" version="1.1" viewBox="0 0 1779 896" width="1779px" zoomAndPan="magnify"><defs/><g><text fill="#000000" font-family="sans-serif" font-size="14" font-weight="bold" lengthAdjust="spacing" textLength="284" x="746.75" y="30.1074">To vote in a review that doesn't exist yet</text><rect fill="#FFFFFF" height="671.1113" style="stroke:#181818;stroke-width:1.0;" width="10" x="21" y="133.2422"/><rect fill="#FFFFFF" height="134.1641" style="stroke:#181818;stroke-width:1.0;" width="10" x="155.5" y="670.1895"/><rect fill="#FFFFFF" height="321.9102" style="stroke:#181818;stroke-width:1.0;" width="10" x="246.5" y="482.4434"/><rect fill="#FFFFFF" height="200.7461" style="stroke:#181818;stroke-width:1.0;" width="10" x="353.5" y="219.1152"/><rect fill="#FFFFFF" height="37.291" style="stroke:#181818;stroke-width:1.0;" width="10" x="663.5" y="250.4063"/><rect fill="#FFFFFF" height="93.873" style="stroke:#181818;stroke-width:1.0;" width="10" x="663.5" y="701.4805"/><rect fill="#FFFFFF" height="31.291" style="stroke:#181818;stroke-width:1.0;" width="10" x="864.5" y="732.7715"/><rect fill="#FFFFFF" height="93.873" style="stroke:#181818;stroke-width:1.0;" width="10" x="1081.5" y="513.7344"/><rect fill="#FFFFFF" height="31.291" style="stroke:#181818;stroke-width:1.0;" width="10" x="1314.5" y="545.0254"/><rect fill="#FFFFFF" height="31.291" style="stroke:#181818;stroke-width:1.0;" width="10" x="1503.5" y="325.9883"/><rect fill="#FFFFFF" height="647.8203" style="stroke:#181818;stroke-width:1.0;" width="10" x="1710" y="156.5332"/><rect fill="#FFFFFF" height="616.5293" style="stroke:#181818;stroke-width:1.0;" width="10" x="1715" y="187.8242"/><rect fill="#FFFFFF" height="353.2012" style="stroke:#181818;stroke-width:1.0;" width="10" x="1720" y="451.1523"/><rect fill="#FFFFFF" height="165.4551" style="stroke:#181818;stroke-width:1.0;" width="10" x="1725" y="638.8984"/><line style="stroke:#181818;stroke-width:0.5;stroke-dasharray:5.0,5.0;" x1="26" x2="26" y1="123.2422" y2="813.3535"/><line style="stroke:#181818;stroke-width:0.5;stroke-dasharray:5.0,5.0;" x1="85" x2="85" y1="123.2422" y2="813.3535"/><line style="stroke:#181818;stroke-width:0.5;stroke-dasharray:5.0,5.0;" x1="160" x2="160" y1="123.2422" y2="813.3535"/><line style="stroke:#181818;stroke-width:0.5;stroke-dasharray:5.0,5.0;" x1="251" x2="251" y1="123.2422" y2="813.3535"/><line style="stroke:#181818;stroke-width:0.5;stroke-dasharray:5.0,5.0;" x1="358" x2="358" y1="123.2422" y2="813.3535"/><line style="stroke:#181818;stroke-width:0.5;stroke-dasharray:5.0,5.0;" x1="668.5" x2="668.5" y1="123.2422" y2="813.3535"/><line style="stroke:#181818;stroke-width:0.5;stroke-dasharray:5.0,5.0;" x1="869.5" x2="869.5" y1="123.2422" y2="813.3535"/><line style="stroke:#181818;stroke-width:0.5;stroke-dasharray:5.0,5.0;" x1="1086.5" x2="1086.5" y1="123.2422" y2="813.3535"/><line style="stroke:#181818;stroke-width:0.5;stroke-dasharray:5.0,5.0;" x1="1319.5" x2="1319.5" y1="123.2422" y2="813.3535"/><line style="stroke:#181818;stroke-width:0.5;stroke-dasharray:5.0,5.0;" x1="1508.5" x2="1508.5" y1="123.2422" y2="813.3535"/><line style="stroke:#181818;stroke-width:0.5;stroke-dasharray:5.0,5.0;" x1="1610.5" x2="1610.5" y1="123.2422" y2="813.3535"/><line style="stroke:#181818;stroke-width:0.5;stroke-dasharray:5.0,5.0;" x1="1714.5" x2="1714.5" y1="123.2422" y2="813.3535"/><text fill="#000000" font-family="sans-serif" font-size="14" lengthAdjust="spacing" textLength="36" x="5" y="119.7285">Client</text><ellipse cx="26" cy="53.1211" fill="#E2E2F0" rx="8" ry="8" style="stroke:#181818;stroke-width:0.5;"/><path d="M26,61.1211 L26,88.1211 M13,69.1211 L39,69.1211 M26,88.1211 L13,103.1211 M26,88.1211 L39,103.1211 " fill="none" style="stroke:#181818;stroke-width:0.5;"/><text fill="#000000" font-family="sans-serif" font-size="14" lengthAdjust="spacing" textLength="36" x="5" y="827.4609">Client</text><ellipse cx="26" cy="839.4746" fill="#E2E2F0" rx="8" ry="8" style="stroke:#181818;stroke-width:0.5;"/><path d="M26,847.4746 L26,874.4746 M13,855.4746 L39,855.4746 M26,874.4746 L13,889.4746 M26,874.4746 L39,889.4746 " fill="none" style="stroke:#181818;stroke-width:0.5;"/><rect fill="#E2E2F0" height="32.6211" rx="2.5" ry="2.5" style="stroke:#181818;stroke-width:0.5;" width="57" x="57" y="89.6211"/><text fill="#000000" font-family="sans-serif" font-size="14" lengthAdjust="spacing" textLength="43" x="64" y="111.7285">:VoteC</text><rect fill="#E2E2F0" height="32.6211" rx="2.5" ry="2.5" style="stroke:#181818;stroke-width:0.5;" width="57" x="57" y="812.3535"/><text fill="#000000" font-family="sans-serif" font-size="14" lengthAdjust="spacing" textLength="43" x="64" y="834.4609">:VoteC</text><rect fill="#E2E2F0" height="32.6211" rx="2.5" ry="2.5" style="stroke:#181818;stroke-width:0.5;" width="73" x="124" y="89.6211"/><text fill="#000000" font-family="sans-serif" font-size="14" lengthAdjust="spacing" textLength="59" x="131" y="111.7285">:VoteC_n</text><rect fill="#E2E2F0" height="32.6211" rx="2.5" ry="2.5" style="stroke:#181818;stroke-width:0.5;" width="73" x="124" y="812.3535"/><text fill="#000000" font-family="sans-serif" font-size="14" lengthAdjust="spacing" textLength="59" x="131" y="834.4609">:VoteC_n</text><rect fill="#E2E2F0" height="32.6211" rx="2.5" ry="2.5" style="stroke:#181818;stroke-width:0.5;" width="89" x="207" y="89.6211"/><text fill="#000000" font-family="sans-serif" font-size="14" lengthAdjust="spacing" textLength="75" x="214" y="111.7285">:ReviewC_n</text><rect fill="#E2E2F0" height="32.6211" rx="2.5" ry="2.5" style="stroke:#181818;stroke-width:0.5;" width="89" x="207" y="812.3535"/><text fill="#000000" font-family="sans-serif" font-size="14" lengthAdjust="spacing" textLength="75" x="214" y="834.4609">:ReviewC_n</text><rect fill="#E2E2F0" height="32.6211" rx="2.5" ry="2.5" style="stroke:#181818;stroke-width:0.5;" width="105" x="306" y="89.6211"/><text fill="#000000" font-family="sans-serif" font-size="14" lengthAdjust="spacing" textLength="91" x="313" y="111.7285">VoteController</text><rect fill="#E2E2F0" height="32.6211" rx="2.5" ry="2.5" style="stroke:#181818;stroke-width:0.5;" width="105" x="306" y="812.3535"/><text fill="#000000" font-family="sans-serif" font-size="14" lengthAdjust="spacing" textLength="91" x="313" y="834.4609">VoteController</text><rect fill="#E2E2F0" height="32.6211" rx="2.5" ry="2.5" style="stroke:#181818;stroke-width:0.5;" width="170" x="583.5" y="89.6211"/><text fill="#000000" font-family="sans-serif" font-size="14" lengthAdjust="spacing" textLength="156" x="590.5" y="111.7285">VoteService:VoteService</text><rect fill="#E2E2F0" height="32.6211" rx="2.5" ry="2.5" style="stroke:#181818;stroke-width:0.5;" width="170" x="583.5" y="812.3535"/><text fill="#000000" font-family="sans-serif" font-size="14" lengthAdjust="spacing" textLength="156" x="590.5" y="834.4609">VoteService:VoteService</text><rect fill="#E2E2F0" height="32.6211" rx="2.5" ry="2.5" style="stroke:#181818;stroke-width:0.5;" width="212" x="763.5" y="89.6211"/><text fill="#000000" font-family="sans-serif" font-size="14" lengthAdjust="spacing" textLength="198" x="770.5" y="111.7285">VoteRepository:VoteRepository</text><rect fill="#E2E2F0" height="32.6211" rx="2.5" ry="2.5" style="stroke:#181818;stroke-width:0.5;" width="212" x="763.5" y="812.3535"/><text fill="#000000" font-family="sans-serif" font-size="14" lengthAdjust="spacing" textLength="198" x="770.5" y="834.4609">VoteRepository:VoteRepository</text><rect fill="#E2E2F0" height="32.6211" rx="2.5" ry="2.5" style="stroke:#181818;stroke-width:0.5;" width="202" x="985.5" y="89.6211"/><text fill="#000000" font-family="sans-serif" font-size="14" lengthAdjust="spacing" textLength="188" x="992.5" y="111.7285">ReviewService:ReviewService</text><rect fill="#E2E2F0" height="32.6211" rx="2.5" ry="2.5" style="stroke:#181818;stroke-width:0.5;" width="202" x="985.5" y="812.3535"/><text fill="#000000" font-family="sans-serif" font-size="14" lengthAdjust="spacing" textLength="188" x="992.5" y="834.4609">ReviewService:ReviewService</text><rect fill="#E2E2F0" height="32.6211" rx="2.5" ry="2.5" style="stroke:#181818;stroke-width:0.5;" width="244" x="1197.5" y="89.6211"/><text fill="#000000" font-family="sans-serif" font-size="14" lengthAdjust="spacing" textLength="230" x="1204.5" y="111.7285">ReviewRepository:ReviewRepository</text><rect fill="#E2E2F0" height="32.6211" rx="2.5" ry="2.5" style="stroke:#181818;stroke-width:0.5;" width="244" x="1197.5" y="812.3535"/><text fill="#000000" font-family="sans-serif" font-size="14" lengthAdjust="spacing" textLength="230" x="1204.5" y="834.4609">ReviewRepository:ReviewRepository</text><rect fill="#E2E2F0" height="32.6211" rx="2.5" ry="2.5" style="stroke:#181818;stroke-width:0.5;" width="114" x="1451.5" y="89.6211"/><text fill="#000000" font-family="sans-serif" font-size="14" lengthAdjust="spacing" textLength="100" x="1458.5" y="111.7285">:JWTRepository</text><rect fill="#E2E2F0" height="32.6211" rx="2.5" ry="2.5" style="stroke:#181818;stroke-width:0.5;" width="114" x="1451.5" y="812.3535"/><text fill="#000000" font-family="sans-serif" font-size="14" lengthAdjust="spacing" textLength="100" x="1458.5" y="834.4609">:JWTRepository</text><rect fill="#E2E2F0" height="32.6211" rx="2.5" ry="2.5" style="stroke:#181818;stroke-width:0.5;" width="71" x="1575.5" y="89.6211"/><text fill="#000000" font-family="sans-serif" font-size="14" lengthAdjust="spacing" textLength="57" x="1582.5" y="111.7285">:Request</text><rect fill="#E2E2F0" height="32.6211" rx="2.5" ry="2.5" style="stroke:#181818;stroke-width:0.5;" width="71" x="1575.5" y="812.3535"/><text fill="#000000" font-family="sans-serif" font-size="14" lengthAdjust="spacing" textLength="57" x="1582.5" y="834.4609">:Request</text><rect fill="#E2E2F0" height="32.6211" rx="2.5" ry="2.5" style="stroke:#181818;stroke-width:0.5;" width="117" x="1656.5" y="89.6211"/><text fill="#000000" font-family="sans-serif" font-size="14" lengthAdjust="spacing" textLength="103" x="1663.5" y="111.7285">:MessageBroker</text><rect fill="#E2E2F0" height="32.6211" rx="2.5" ry="2.5" style="stroke:#181818;stroke-width:0.5;" width="117" x="1656.5" y="812.3535"/><text fill="#000000" font-family="sans-serif" font-size="14" lengthAdjust="spacing" textLength="103" x="1663.5" y="834.4609">:MessageBroker</text><rect fill="#FFFFFF" height="671.1113" style="stroke:#181818;stroke-width:1.0;" width="10" x="21" y="133.2422"/><rect fill="#FFFFFF" height="134.1641" style="stroke:#181818;stroke-width:1.0;" width="10" x="155.5" y="670.1895"/><rect fill="#FFFFFF" height="321.9102" style="stroke:#181818;stroke-width:1.0;" width="10" x="246.5" y="482.4434"/><rect fill="#FFFFFF" height="200.7461" style="stroke:#181818;stroke-width:1.0;" width="10" x="353.5" y="219.1152"/><rect fill="#FFFFFF" height="37.291" style="stroke:#181818;stroke-width:1.0;" width="10" x="663.5" y="250.4063"/><rect fill="#FFFFFF" height="93.873" style="stroke:#181818;stroke-width:1.0;" width="10" x="663.5" y="701.4805"/><rect fill="#FFFFFF" height="31.291" style="stroke:#181818;stroke-width:1.0;" width="10" x="864.5" y="732.7715"/><rect fill="#FFFFFF" height="93.873" style="stroke:#181818;stroke-width:1.0;" width="10" x="1081.5" y="513.7344"/><rect fill="#FFFFFF" height="31.291" style="stroke:#181818;stroke-width:1.0;" width="10" x="1314.5" y="545.0254"/><rect fill="#FFFFFF" height="31.291" style="stroke:#181818;stroke-width:1.0;" width="10" x="1503.5" y="325.9883"/><rect fill="#FFFFFF" height="647.8203" style="stroke:#181818;stroke-width:1.0;" width="10" x="1710" y="156.5332"/><rect fill="#FFFFFF" height="616.5293" style="stroke:#181818;stroke-width:1.0;" width="10" x="1715" y="187.8242"/><rect fill="#FFFFFF" height="353.2012" style="stroke:#181818;stroke-width:1.0;" width="10" x="1720" y="451.1523"/><rect fill="#FFFFFF" height="165.4551" style="stroke:#181818;stroke-width:1.0;" width="10" x="1725" y="638.8984"/><polygon fill="#181818" points="1698,152.5332,1708,156.5332,1698,160.5332,1702,156.5332" style="stroke:#181818;stroke-width:1.0;"/><line style="stroke:#181818;stroke-width:1.0;" x1="160.5" x2="1704" y1="156.5332" y2="156.5332"/><text fill="#000000" font-family="sans-serif" font-size="13" font-weight="bold" lengthAdjust="spacing" textLength="7" x="167.5" y="151.2705">1</text><text fill="#000000" font-family="sans-serif" font-size="13" lengthAdjust="spacing" textLength="97" x="178.5" y="151.2705">subscribe "Vote"</text><polygon fill="#181818" points="1703,183.8242,1713,187.8242,1703,191.8242,1707,187.8242" style="stroke:#181818;stroke-width:1.0;"/><line style="stroke:#181818;stroke-width:1.0;" x1="251.5" x2="1709" y1="187.8242" y2="187.8242"/><text fill="#000000" font-family="sans-serif" font-size="13" font-weight="bold" lengthAdjust="spacing" textLength="7" x="258.5" y="182.5615">2</text><text fill="#000000" font-family="sans-serif" font-size="13" lengthAdjust="spacing" textLength="118" x="269.5" y="182.5615">subscribe "VoteRev"</text><polygon fill="#181818" points="341.5,215.1152,351.5,219.1152,341.5,223.1152,345.5,219.1152" style="stroke:#181818;stroke-width:1.0;"/><line style="stroke:#181818;stroke-width:1.0;" x1="31" x2="347.5" y1="219.1152" y2="219.1152"/><text fill="#000000" font-family="sans-serif" font-size="13" font-weight="bold" lengthAdjust="spacing" textLength="7" x="38" y="213.8525">3</text><text fill="#000000" font-family="sans-serif" font-size="13" lengthAdjust="spacing" textLength="124" x="49" y="213.8525">POST/Vote/sku/{sku}</text><polygon fill="#181818" points="651.5,246.4063,661.5,250.4063,651.5,254.4063,655.5,250.4063" style="stroke:#181818;stroke-width:1.0;"/><line style="stroke:#181818;stroke-width:1.0;" x1="363.5" x2="657.5" y1="250.4063" y2="250.4063"/><text fill="#000000" font-family="sans-serif" font-size="13" font-weight="bold" lengthAdjust="spacing" textLength="7" x="370.5" y="245.1436">4</text><text fill="#000000" font-family="sans-serif" font-size="13" lengthAdjust="spacing" textLength="270" x="381.5" y="245.1436">VoteService.createVote(resource,sku,request);</text><line style="stroke:#181818;stroke-width:1.0;stroke-dasharray:2.0,2.0;" x1="673.5" x2="715.5" y1="286.6973" y2="286.6973"/><line style="stroke:#181818;stroke-width:1.0;stroke-dasharray:2.0,2.0;" x1="715.5" x2="715.5" y1="286.6973" y2="299.6973"/><line style="stroke:#181818;stroke-width:1.0;stroke-dasharray:2.0,2.0;" x1="668.5" x2="715.5" y1="299.6973" y2="299.6973"/><polygon fill="#181818" points="678.5,295.6973,668.5,299.6973,678.5,303.6973,674.5,299.6973" style="stroke:#181818;stroke-width:1.0;"/><text fill="#000000" font-family="sans-serif" font-size="13" font-weight="bold" lengthAdjust="spacing" textLength="7" x="680.5" y="281.4346">5</text><text fill="#000000" font-family="sans-serif" font-size="13" lengthAdjust="spacing" textLength="102" x="691.5" y="281.4346">parseJwt(request)</text><polygon fill="#181818" points="1491.5,321.9883,1501.5,325.9883,1491.5,329.9883,1495.5,325.9883" style="stroke:#181818;stroke-width:1.0;"/><line style="stroke:#181818;stroke-width:1.0;" x1="668.5" x2="1497.5" y1="325.9883" y2="325.9883"/><text fill="#000000" font-family="sans-serif" font-size="13" font-weight="bold" lengthAdjust="spacing" textLength="7" x="675.5" y="320.7256">6</text><text fill="#000000" font-family="sans-serif" font-size="13" lengthAdjust="spacing" textLength="86" x="686.5" y="320.7256">findByJWT(jwt)</text><polygon fill="#181818" points="679.5,353.2793,669.5,357.2793,679.5,361.2793,675.5,357.2793" style="stroke:#181818;stroke-width:1.0;"/><line style="stroke:#181818;stroke-width:1.0;stroke-dasharray:2.0,2.0;" x1="673.5" x2="1507.5" y1="357.2793" y2="357.2793"/><text fill="#000000" font-family="sans-serif" font-size="13" font-weight="bold" lengthAdjust="spacing" textLength="7" x="685.5" y="352.0166">7</text><text fill="#000000" font-family="sans-serif" font-size="13" lengthAdjust="spacing" textLength="93" x="696.5" y="352.0166">UserDetailsDTO</text><polygon fill="#181818" points="374.5,384.5703,364.5,388.5703,374.5,392.5703,370.5,388.5703" style="stroke:#181818;stroke-width:1.0;"/><line style="stroke:#181818;stroke-width:1.0;stroke-dasharray:2.0,2.0;" x1="368.5" x2="667.5" y1="388.5703" y2="388.5703"/><text fill="#000000" font-family="sans-serif" font-size="13" font-weight="bold" lengthAdjust="spacing" textLength="7" x="380.5" y="383.3076">8</text><text fill="#000000" font-family="sans-serif" font-size="13" lengthAdjust="spacing" textLength="53" x="391.5" y="383.3076">accepted</text><polygon fill="#181818" points="42,415.8613,32,419.8613,42,423.8613,38,419.8613" style="stroke:#181818;stroke-width:1.0;"/><line style="stroke:#181818;stroke-width:1.0;stroke-dasharray:2.0,2.0;" x1="36" x2="357.5" y1="419.8613" y2="419.8613"/><text fill="#000000" font-family="sans-serif" font-size="13" font-weight="bold" lengthAdjust="spacing" textLength="7" x="48" y="414.5986">9</text><text fill="#000000" font-family="sans-serif" font-size="13" lengthAdjust="spacing" textLength="53" x="59" y="414.5986">accepted</text><polygon fill="#181818" points="1708,447.1523,1718,451.1523,1708,455.1523,1712,451.1523" style="stroke:#181818;stroke-width:1.0;"/><line style="stroke:#181818;stroke-width:1.0;" x1="668.5" x2="1714" y1="451.1523" y2="451.1523"/><text fill="#000000" font-family="sans-serif" font-size="13" font-weight="bold" lengthAdjust="spacing" textLength="14" x="675.5" y="445.8896">10</text><text fill="#000000" font-family="sans-serif" font-size="13" lengthAdjust="spacing" textLength="159" x="693.5" y="445.8896">publish "VoteRev, {Review}"</text><polygon fill="#181818" points="267.5,478.4434,257.5,482.4434,267.5,486.4434,263.5,482.4434" style="stroke:#181818;stroke-width:1.0;"/><line style="stroke:#181818;stroke-width:1.0;" x1="261.5" x2="1719" y1="482.4434" y2="482.4434"/><text fill="#000000" font-family="sans-serif" font-size="13" font-weight="bold" lengthAdjust="spacing" textLength="14" x="273.5" y="477.1807">11</text><text fill="#000000" font-family="sans-serif" font-size="13" lengthAdjust="spacing" textLength="149" x="291.5" y="477.1807">notify "VoteRev, {Review}"</text><polygon fill="#181818" points="1069.5,509.7344,1079.5,513.7344,1069.5,517.7344,1073.5,513.7344" style="stroke:#181818;stroke-width:1.0;"/><line style="stroke:#181818;stroke-width:1.0;" x1="256.5" x2="1075.5" y1="513.7344" y2="513.7344"/><text fill="#000000" font-family="sans-serif" font-size="13" font-weight="bold" lengthAdjust="spacing" textLength="14" x="263.5" y="508.4717">12</text><text fill="#000000" font-family="sans-serif" font-size="13" lengthAdjust="spacing" textLength="210" x="281.5" y="508.4717">ReviewService.createReview(Review)</text><polygon fill="#181818" points="1302.5,541.0254,1312.5,545.0254,1302.5,549.0254,1306.5,545.0254" style="stroke:#181818;stroke-width:1.0;"/><line style="stroke:#181818;stroke-width:1.0;" x1="1091.5" x2="1308.5" y1="545.0254" y2="545.0254"/><text fill="#000000" font-family="sans-serif" font-size="13" font-weight="bold" lengthAdjust="spacing" textLength="14" x="1098.5" y="539.7627">13</text><text fill="#000000" font-family="sans-serif" font-size="13" lengthAdjust="spacing" textLength="74" x="1116.5" y="539.7627">save(Review)</text><polygon fill="#181818" points="1102.5,572.3164,1092.5,576.3164,1102.5,580.3164,1098.5,576.3164" style="stroke:#181818;stroke-width:1.0;"/><line style="stroke:#181818;stroke-width:1.0;stroke-dasharray:2.0,2.0;" x1="1096.5" x2="1318.5" y1="576.3164" y2="576.3164"/><text fill="#000000" font-family="sans-serif" font-size="13" font-weight="bold" lengthAdjust="spacing" textLength="14" x="1108.5" y="571.0537">14</text><text fill="#000000" font-family="sans-serif" font-size="13" lengthAdjust="spacing" textLength="14" x="1126.5" y="571.0537">ok</text><polygon fill="#181818" points="267.5,603.6074,257.5,607.6074,267.5,611.6074,263.5,607.6074" style="stroke:#181818;stroke-width:1.0;"/><line style="stroke:#181818;stroke-width:1.0;stroke-dasharray:2.0,2.0;" x1="261.5" x2="1085.5" y1="607.6074" y2="607.6074"/><text fill="#000000" font-family="sans-serif" font-size="13" font-weight="bold" lengthAdjust="spacing" textLength="14" x="273.5" y="602.3447">15</text><text fill="#000000" font-family="sans-serif" font-size="13" lengthAdjust="spacing" textLength="14" x="291.5" y="602.3447">ok</text><polygon fill="#181818" points="1713,634.8984,1723,638.8984,1713,642.8984,1717,638.8984" style="stroke:#181818;stroke-width:1.0;"/><line style="stroke:#181818;stroke-width:1.0;" x1="256.5" x2="1719" y1="638.8984" y2="638.8984"/><text fill="#000000" font-family="sans-serif" font-size="13" font-weight="bold" lengthAdjust="spacing" textLength="14" x="263.5" y="633.6357">16</text><text fill="#000000" font-family="sans-serif" font-size="13" lengthAdjust="spacing" textLength="125" x="281.5" y="633.6357">publish "Vote, {Vote}"</text><polygon fill="#181818" points="176.5,666.1895,166.5,670.1895,176.5,674.1895,172.5,670.1895" style="stroke:#181818;stroke-width:1.0;"/><line style="stroke:#181818;stroke-width:1.0;" x1="170.5" x2="1724" y1="670.1895" y2="670.1895"/><text fill="#000000" font-family="sans-serif" font-size="13" font-weight="bold" lengthAdjust="spacing" textLength="14" x="182.5" y="664.9268">17</text><text fill="#000000" font-family="sans-serif" font-size="13" lengthAdjust="spacing" textLength="149" x="200.5" y="664.9268">notify "VoteRev, {Review}"</text><polygon fill="#181818" points="651.5,697.4805,661.5,701.4805,651.5,705.4805,655.5,701.4805" style="stroke:#181818;stroke-width:1.0;"/><line style="stroke:#181818;stroke-width:1.0;" x1="165.5" x2="657.5" y1="701.4805" y2="701.4805"/><text fill="#000000" font-family="sans-serif" font-size="13" font-weight="bold" lengthAdjust="spacing" textLength="14" x="172.5" y="696.2178">18</text><text fill="#000000" font-family="sans-serif" font-size="13" lengthAdjust="spacing" textLength="98" x="190.5" y="696.2178">createVote(Vote)</text><polygon fill="#181818" points="852.5,728.7715,862.5,732.7715,852.5,736.7715,856.5,732.7715" style="stroke:#181818;stroke-width:1.0;"/><line style="stroke:#181818;stroke-width:1.0;" x1="673.5" x2="858.5" y1="732.7715" y2="732.7715"/><text fill="#000000" font-family="sans-serif" font-size="13" font-weight="bold" lengthAdjust="spacing" textLength="14" x="680.5" y="727.5088">19</text><text fill="#000000" font-family="sans-serif" font-size="13" lengthAdjust="spacing" textLength="61" x="698.5" y="727.5088">save(Vote)</text><polygon fill="#181818" points="684.5,760.0625,674.5,764.0625,684.5,768.0625,680.5,764.0625" style="stroke:#181818;stroke-width:1.0;"/><line style="stroke:#181818;stroke-width:1.0;stroke-dasharray:2.0,2.0;" x1="678.5" x2="868.5" y1="764.0625" y2="764.0625"/><text fill="#000000" font-family="sans-serif" font-size="13" font-weight="bold" lengthAdjust="spacing" textLength="14" x="690.5" y="758.7998">20</text><text fill="#000000" font-family="sans-serif" font-size="13" lengthAdjust="spacing" textLength="14" x="708.5" y="758.7998">ok</text><polygon fill="#181818" points="176.5,791.3535,166.5,795.3535,176.5,799.3535,172.5,795.3535" style="stroke:#181818;stroke-width:1.0;"/><line style="stroke:#181818;stroke-width:1.0;stroke-dasharray:2.0,2.0;" x1="170.5" x2="667.5" y1="795.3535" y2="795.3535"/><text fill="#000000" font-family="sans-serif" font-size="13" font-weight="bold" lengthAdjust="spacing" textLength="14" x="182.5" y="790.0908">21</text><text fill="#000000" font-family="sans-serif" font-size="13" lengthAdjust="spacing" textLength="14" x="200.5" y="790.0908">ok</text><!--MD5=[1aae296ad9b0a9cce6cc7a68820723da]
@startuml
'https://plantuml.com/sequence-diagram

title To vote in a review that doesn't exist yet

autoactivate on
autonumber

actor "Client" as Client

participant ":VoteC" as voteC
participant ":VoteC_n" as voteC_n

participant ":ReviewC_n" as reviewC_n
participant "VoteController" as Ctrl
participant "VoteService:VoteService" as service
participant "VoteRepository:VoteRepository" as Repo


participant "ReviewService:ReviewService" as serviceReview
participant "ReviewRepository:ReviewRepository" as RepoReview
participant ":JWTRepository" as jwtRepository

participant ":Request" as request
participant ":MessageBroker" as broker

activate Client

voteC_n -> broker: subscribe "Vote"
reviewC_n -> broker: subscribe "VoteRev"

Client -> Ctrl : POST/Vote/sku/{sku}
Ctrl -> service : VoteService.createVote(resource,sku,request);
service - -> service: parseJwt(request)
service -> jwtRepository: findByJWT(jwt)
jwtRepository - -> service: UserDetailsDTO
service - -> Ctrl: accepted
Ctrl - -> Client: accepted

service -> broker: publish "VoteRev, {Review}"
reviewC_n <- broker: notify "VoteRev, {Review}"
reviewC_n -> serviceReview: ReviewService.createReview(Review)
serviceReview -> RepoReview: save(Review)
RepoReview - -> serviceReview: ok
serviceReview - -> reviewC_n: ok


reviewC_n -> broker: publish "Vote, {Vote}"
voteC_n <- broker: notify "VoteRev, {Review}"
voteC_n -> service: createVote(Vote)
service -> Repo: save(Vote)
Repo - ->service: ok
service - -> voteC_n: ok





@enduml

@startuml

title To vote in a review that doesn't exist yet

autoactivate on
autonumber

actor "Client" as Client

participant ":VoteC" as voteC
participant ":VoteC_n" as voteC_n

participant ":ReviewC_n" as reviewC_n
participant "VoteController" as Ctrl
participant "VoteService:VoteService" as service
participant "VoteRepository:VoteRepository" as Repo


participant "ReviewService:ReviewService" as serviceReview
participant "ReviewRepository:ReviewRepository" as RepoReview
participant ":JWTRepository" as jwtRepository

participant ":Request" as request
participant ":MessageBroker" as broker

activate Client

voteC_n -> broker: subscribe "Vote"
reviewC_n -> broker: subscribe "VoteRev"

Client -> Ctrl : POST/Vote/sku/{sku}
Ctrl -> service : VoteService.createVote(resource,sku,request);
service - -> service: parseJwt(request)
service -> jwtRepository: findByJWT(jwt)
jwtRepository - -> service: UserDetailsDTO
service - -> Ctrl: accepted
Ctrl - -> Client: accepted

service -> broker: publish "VoteRev, {Review}"
reviewC_n <- broker: notify "VoteRev, {Review}"
reviewC_n -> serviceReview: ReviewService.createReview(Review)
serviceReview -> RepoReview: save(Review)
RepoReview - -> serviceReview: ok
serviceReview - -> reviewC_n: ok


reviewC_n -> broker: publish "Vote, {Vote}"
voteC_n <- broker: notify "VoteRev, {Review}"
voteC_n -> service: createVote(Vote)
service -> Repo: save(Vote)
Repo - ->service: ok
service - -> voteC_n: ok





@enduml

PlantUML version 1.2022.13(Sat Nov 19 13:22:17 WET 2022)
(GPL source distribution)
Java Runtime: OpenJDK Runtime Environment
JVM: OpenJDK 64-Bit Server VM
Default Encoding: Cp1252
Language: pt
Country: PT
--></g></svg>