<?xml version="1.0" encoding="UTF-8" standalone="no"?><svg xmlns="http://www.w3.org/2000/svg" xmlns:xlink="http://www.w3.org/1999/xlink" contentStyleType="text/css" height="612px" preserveAspectRatio="none" style="width:1001px;height:612px;background:#FFFFFF;" version="1.1" viewBox="0 0 1001 612" width="1001px" zoomAndPan="magnify"><defs/><g><rect fill="none" height="25.6406" id="_title" style="stroke:none;stroke-width:1.0;" width="223" x="390.5" y="10"/><text fill="#000000" font-family="sans-serif" font-size="14" font-weight="bold" lengthAdjust="spacing" textLength="213" x="395.5" y="27.6738">Obtain the catalog of products</text><rect fill="#FFFFFF" height="396.3984" style="stroke:#181818;stroke-width:1.0;" width="10" x="21" y="127.2813"/><rect fill="#FFFFFF" height="366.875" style="stroke:#181818;stroke-width:1.0;" width="10" x="192" y="147.8047"/><rect fill="#FFFFFF" height="309.8281" style="stroke:#181818;stroke-width:1.0;" width="10" x="408" y="176.3281"/><rect fill="#FFFFFF" height="318.8281" style="stroke:#181818;stroke-width:1.0;" width="10" x="638" y="204.8516"/><rect fill="#FFFFFF" height="216.2578" style="stroke:#181818;stroke-width:1.0;" width="10" x="643" y="241.375"/><rect fill="#FFFFFF" height="132.2109" style="stroke:#181818;stroke-width:1.0;" width="10" x="648" y="282.8984"/><rect fill="none" height="127.2109" style="stroke:#000000;stroke-width:1.5;" width="474" x="521" y="302.8984"/><line style="stroke:#181818;stroke-width:0.5;stroke-dasharray:5.0,5.0;" x1="26" x2="26" y1="117.2813" y2="532.6797"/><line style="stroke:#181818;stroke-width:0.5;stroke-dasharray:5.0,5.0;" x1="197" x2="197" y1="117.2813" y2="532.6797"/><line style="stroke:#181818;stroke-width:0.5;stroke-dasharray:5.0,5.0;" x1="413" x2="413" y1="117.2813" y2="532.6797"/><line style="stroke:#181818;stroke-width:0.5;stroke-dasharray:5.0,5.0;" x1="643" x2="643" y1="117.2813" y2="532.6797"/><line style="stroke:#181818;stroke-width:0.5;stroke-dasharray:5.0,5.0;" x1="927" x2="927" y1="349.7422" y2="532.6797"/><text fill="#000000" font-family="sans-serif" font-size="14" lengthAdjust="spacing" textLength="36" x="5" y="114.3145">Client</text><ellipse cx="26" cy="50.1406" fill="#E2E2F0" rx="8" ry="8" style="stroke:#181818;stroke-width:0.5;"/><path d="M26,58.1406 L26,85.1406 M13,66.1406 L39,66.1406 M26,85.1406 L13,100.1406 M26,85.1406 L39,100.1406 " fill="none" style="stroke:#181818;stroke-width:0.5;"/><text fill="#000000" font-family="sans-serif" font-size="14" lengthAdjust="spacing" textLength="36" x="5" y="544.3535">Client</text><ellipse cx="26" cy="555.8203" fill="#E2E2F0" rx="8" ry="8" style="stroke:#181818;stroke-width:0.5;"/><path d="M26,563.8203 L26,590.8203 M13,571.8203 L39,571.8203 M26,590.8203 L13,605.8203 M26,590.8203 L39,605.8203 " fill="none" style="stroke:#181818;stroke-width:0.5;"/><rect fill="#E2E2F0" height="29.6406" rx="2.5" ry="2.5" style="stroke:#181818;stroke-width:0.5;" width="132" x="131" y="86.6406"/><text fill="#000000" font-family="sans-serif" font-size="14" lengthAdjust="spacing" textLength="118" x="138" y="106.3145">ProductsController</text><rect fill="#E2E2F0" height="29.6406" rx="2.5" ry="2.5" style="stroke:#181818;stroke-width:0.5;" width="132" x="131" y="531.6797"/><text fill="#000000" font-family="sans-serif" font-size="14" lengthAdjust="spacing" textLength="118" x="138" y="551.3535">ProductsController</text><rect fill="#E2E2F0" height="29.6406" rx="2.5" ry="2.5" style="stroke:#181818;stroke-width:0.5;" width="216" x="305" y="86.6406"/><text fill="#000000" font-family="sans-serif" font-size="14" lengthAdjust="spacing" textLength="202" x="312" y="106.3145">productService:ProductsService</text><rect fill="#E2E2F0" height="29.6406" rx="2.5" ry="2.5" style="stroke:#181818;stroke-width:0.5;" width="216" x="305" y="531.6797"/><text fill="#000000" font-family="sans-serif" font-size="14" lengthAdjust="spacing" textLength="202" x="312" y="551.3535">productService:ProductsService</text><rect fill="#E2E2F0" height="29.6406" rx="2.5" ry="2.5" style="stroke:#181818;stroke-width:0.5;" width="224" x="531" y="86.6406"/><text fill="#000000" font-family="sans-serif" font-size="14" lengthAdjust="spacing" textLength="210" x="538" y="106.3145">productRepo:ProductsRepository</text><rect fill="#E2E2F0" height="29.6406" rx="2.5" ry="2.5" style="stroke:#181818;stroke-width:0.5;" width="224" x="531" y="531.6797"/><text fill="#000000" font-family="sans-serif" font-size="14" lengthAdjust="spacing" textLength="210" x="538" y="551.3535">productRepo:ProductsRepository</text><rect fill="#E2E2F0" height="29.6406" rx="2.5" ry="2.5" style="stroke:#181818;stroke-width:0.5;" width="116" x="869" y="531.6797"/><text fill="#000000" font-family="sans-serif" font-size="14" lengthAdjust="spacing" textLength="102" x="876" y="551.3535">:ProductCatalog</text><rect fill="#FFFFFF" height="396.3984" style="stroke:#181818;stroke-width:1.0;" width="10" x="21" y="127.2813"/><rect fill="#FFFFFF" height="366.875" style="stroke:#181818;stroke-width:1.0;" width="10" x="192" y="147.8047"/><rect fill="#FFFFFF" height="309.8281" style="stroke:#181818;stroke-width:1.0;" width="10" x="408" y="176.3281"/><rect fill="#FFFFFF" height="318.8281" style="stroke:#181818;stroke-width:1.0;" width="10" x="638" y="204.8516"/><rect fill="#FFFFFF" height="216.2578" style="stroke:#181818;stroke-width:1.0;" width="10" x="643" y="241.375"/><rect fill="#FFFFFF" height="132.2109" style="stroke:#181818;stroke-width:1.0;" width="10" x="648" y="282.8984"/><polygon fill="#181818" points="180,143.8047,190,147.8047,180,151.8047,184,147.8047" style="stroke:#181818;stroke-width:1.0;"/><line style="stroke:#181818;stroke-width:1.0;" x1="31" x2="186" y1="147.8047" y2="147.8047"/><text fill="#000000" font-family="sans-serif" font-size="13" font-weight="bold" lengthAdjust="spacing" textLength="7" x="38" y="143.0498">1</text><text fill="#000000" font-family="sans-serif" font-size="13" lengthAdjust="spacing" textLength="84" x="49" y="143.0498">GET /products</text><polygon fill="#181818" points="396,172.3281,406,176.3281,396,180.3281,400,176.3281" style="stroke:#181818;stroke-width:1.0;"/><line style="stroke:#181818;stroke-width:1.0;" x1="202" x2="402" y1="176.3281" y2="176.3281"/><text fill="#000000" font-family="sans-serif" font-size="13" font-weight="bold" lengthAdjust="spacing" textLength="7" x="209" y="171.5732">2</text><text fill="#000000" font-family="sans-serif" font-size="13" lengthAdjust="spacing" textLength="176" x="220" y="171.5732">productService.findAllCatalog()</text><polygon fill="#181818" points="626,200.8516,636,204.8516,626,208.8516,630,204.8516" style="stroke:#181818;stroke-width:1.0;"/><line style="stroke:#181818;stroke-width:1.0;" x1="418" x2="632" y1="204.8516" y2="204.8516"/><text fill="#000000" font-family="sans-serif" font-size="13" font-weight="bold" lengthAdjust="spacing" textLength="7" x="425" y="200.0967">3</text><text fill="#000000" font-family="sans-serif" font-size="13" lengthAdjust="spacing" textLength="164" x="436" y="200.0967">productRepo.findAllCatalog()</text><line style="stroke:#181818;stroke-width:1.0;" x1="648" x2="695" y1="228.375" y2="228.375"/><line style="stroke:#181818;stroke-width:1.0;" x1="695" x2="695" y1="228.375" y2="241.375"/><line style="stroke:#181818;stroke-width:1.0;" x1="654" x2="695" y1="241.375" y2="241.375"/><polygon fill="#181818" points="664,237.375,654,241.375,664,245.375,660,241.375" style="stroke:#181818;stroke-width:1.0;"/><text fill="#000000" font-family="sans-serif" font-size="13" font-weight="bold" lengthAdjust="spacing" textLength="7" x="660" y="223.6201">4</text><text fill="#000000" font-family="sans-serif" font-size="13" lengthAdjust="spacing" textLength="41" x="671" y="223.6201">getAll()</text><line style="stroke:#181818;stroke-width:1.0;" x1="653" x2="700" y1="269.8984" y2="269.8984"/><line style="stroke:#181818;stroke-width:1.0;" x1="700" x2="700" y1="269.8984" y2="282.8984"/><line style="stroke:#181818;stroke-width:1.0;" x1="659" x2="700" y1="282.8984" y2="282.8984"/><polygon fill="#181818" points="669,278.8984,659,282.8984,669,286.8984,665,282.8984" style="stroke:#181818;stroke-width:1.0;"/><text fill="#000000" font-family="sans-serif" font-size="13" font-weight="bold" lengthAdjust="spacing" textLength="7" x="665" y="265.1436">5</text><text fill="#000000" font-family="sans-serif" font-size="13" lengthAdjust="spacing" textLength="17" x="676" y="265.1436">list</text><path d="M521,302.8984 L594,302.8984 L594,309.4219 L584,319.4219 L521,319.4219 L521,302.8984 " fill="#EEEEEE" style="stroke:#000000;stroke-width:1.5;"/><rect fill="none" height="127.2109" style="stroke:#000000;stroke-width:1.5;" width="474" x="521" y="302.8984"/><text fill="#000000" font-family="sans-serif" font-size="13" font-weight="bold" lengthAdjust="spacing" textLength="28" x="536" y="315.667">loop</text><text fill="#000000" font-family="sans-serif" font-size="11" font-weight="bold" lengthAdjust="spacing" textLength="144" x="609" y="314.8564">[for each 'product' in 'list']</text><polygon fill="#181818" points="857,335.9453,867,339.9453,857,343.9453,861,339.9453" style="stroke:#181818;stroke-width:1.0;"/><line style="stroke:#181818;stroke-width:1.0;" x1="658" x2="863" y1="339.9453" y2="339.9453"/><text fill="#000000" font-family="sans-serif" font-size="13" font-weight="bold" lengthAdjust="spacing" textLength="7" x="665" y="335.1904">6</text><text fill="#000000" font-family="sans-serif" font-size="13" lengthAdjust="spacing" textLength="74" x="676" y="335.1904">new(product)</text><rect fill="#E2E2F0" height="29.6406" rx="2.5" ry="2.5" style="stroke:#181818;stroke-width:0.5;" width="116" x="869" y="319.4219"/><text fill="#000000" font-family="sans-serif" font-size="14" lengthAdjust="spacing" textLength="102" x="876" y="339.0957">:ProductCatalog</text><polygon fill="#181818" points="669,376.5859,659,380.5859,669,384.5859,665,380.5859" style="stroke:#181818;stroke-width:1.0;"/><line style="stroke:#181818;stroke-width:1.0;stroke-dasharray:2.0,2.0;" x1="663" x2="926" y1="380.5859" y2="380.5859"/><text fill="#000000" font-family="sans-serif" font-size="13" font-weight="bold" lengthAdjust="spacing" textLength="7" x="675" y="375.8311">7</text><text fill="#000000" font-family="sans-serif" font-size="13" lengthAdjust="spacing" textLength="87" x="686" y="375.8311">productCatalog</text><line style="stroke:#181818;stroke-width:1.0;stroke-dasharray:2.0,2.0;" x1="658" x2="700" y1="414.1094" y2="414.1094"/><line style="stroke:#181818;stroke-width:1.0;stroke-dasharray:2.0,2.0;" x1="700" x2="700" y1="414.1094" y2="427.1094"/><line style="stroke:#181818;stroke-width:1.0;stroke-dasharray:2.0,2.0;" x1="653" x2="700" y1="427.1094" y2="427.1094"/><polygon fill="#181818" points="663,423.1094,653,427.1094,663,431.1094,659,427.1094" style="stroke:#181818;stroke-width:1.0;"/><text fill="#000000" font-family="sans-serif" font-size="13" font-weight="bold" lengthAdjust="spacing" textLength="7" x="665" y="409.3545">8</text><text fill="#000000" font-family="sans-serif" font-size="13" lengthAdjust="spacing" textLength="239" x="676" y="409.3545">listOfProductCatalog.add(productCatalog)</text><polygon fill="#181818" points="429,453.6328,419,457.6328,429,461.6328,425,457.6328" style="stroke:#181818;stroke-width:1.0;"/><line style="stroke:#181818;stroke-width:1.0;stroke-dasharray:2.0,2.0;" x1="423" x2="637" y1="457.6328" y2="457.6328"/><text fill="#000000" font-family="sans-serif" font-size="13" font-weight="bold" lengthAdjust="spacing" textLength="7" x="435" y="452.8779">9</text><text fill="#000000" font-family="sans-serif" font-size="13" lengthAdjust="spacing" textLength="119" x="446" y="452.8779">listOfProductCatalog</text><polygon fill="#181818" points="213,482.1563,203,486.1563,213,490.1563,209,486.1563" style="stroke:#181818;stroke-width:1.0;"/><line style="stroke:#181818;stroke-width:1.0;stroke-dasharray:2.0,2.0;" x1="207" x2="412" y1="486.1563" y2="486.1563"/><text fill="#000000" font-family="sans-serif" font-size="13" font-weight="bold" lengthAdjust="spacing" textLength="14" x="219" y="481.4014">10</text><text fill="#000000" font-family="sans-serif" font-size="13" lengthAdjust="spacing" textLength="119" x="237" y="481.4014">listOfProductCatalog</text><polygon fill="#181818" points="42,510.6797,32,514.6797,42,518.6797,38,514.6797" style="stroke:#181818;stroke-width:1.0;"/><line style="stroke:#181818;stroke-width:1.0;stroke-dasharray:2.0,2.0;" x1="36" x2="196" y1="514.6797" y2="514.6797"/><text fill="#000000" font-family="sans-serif" font-size="13" font-weight="bold" lengthAdjust="spacing" textLength="14" x="48" y="509.9248">11</text><text fill="#000000" font-family="sans-serif" font-size="13" lengthAdjust="spacing" textLength="119" x="66" y="509.9248">listOfProductCatalog</text><!--MD5=[ded53040542ab708bb7878819945add0]
@startuml
'https://plantuml.com/sequence-diagram

title Obtain the catalog of products
autoactivate on
autonumber

actor "Client" as client
participant "ProductsController" as controller
participant "productService:ProductsService" as service
participant "productRepo:ProductsRepository" as repository
participant ":ProductCatalog" as details

activate client

client -> controller : GET /products
controller -> service : productService.findAllCatalog()
service -> repository: productRepo.findAllCatalog()
repository -> repository: getAll()
repository -> repository: list
loop for each 'product' in 'list'
    repository -> details**: new(product)
    details - -> repository: productCatalog
    repository - -> repository: listOfProductCatalog.add(productCatalog)
end loop
repository - -> service: listOfProductCatalog
service - -> controller: listOfProductCatalog
controller - -> client: listOfProductCatalog

@enduml

@startuml

title Obtain the catalog of products
autoactivate on
autonumber

actor "Client" as client
participant "ProductsController" as controller
participant "productService:ProductsService" as service
participant "productRepo:ProductsRepository" as repository
participant ":ProductCatalog" as details

activate client

client -> controller : GET /products
controller -> service : productService.findAllCatalog()
service -> repository: productRepo.findAllCatalog()
repository -> repository: getAll()
repository -> repository: list
loop for each 'product' in 'list'
    repository -> details**: new(product)
    details - -> repository: productCatalog
    repository - -> repository: listOfProductCatalog.add(productCatalog)
end loop
repository - -> service: listOfProductCatalog
service - -> controller: listOfProductCatalog
controller - -> client: listOfProductCatalog

@enduml

PlantUML version 1.2022.12(Sun Oct 23 19:12:26 WEST 2022)
(GPL source distribution)
Java Runtime: OpenJDK Runtime Environment
JVM: OpenJDK 64-Bit Server VM
Default Encoding: Cp1252
Language: pt
Country: PT
--></g></svg>