<?xml version="1.0" encoding="UTF-8" standalone="no"?><svg xmlns="http://www.w3.org/2000/svg" xmlns:xlink="http://www.w3.org/1999/xlink" contentStyleType="text/css" height="616px" preserveAspectRatio="none" style="width:1221px;height:616px;background:#FFFFFF;" version="1.1" viewBox="0 0 1221 616" width="1221px" zoomAndPan="magnify"><defs/><g><rect fill="none" height="25.6406" id="_title" style="stroke:none;stroke-width:1.0;" width="223" x="498" y="10"/><text fill="#000000" font-family="sans-serif" font-size="14" font-weight="bold" lengthAdjust="spacing" textLength="213" x="503" y="27.6738">Obtain the details of a product</text><rect fill="#FFFFFF" height="400.2109" style="stroke:#181818;stroke-width:1.0;" width="10" x="21" y="127.2813"/><rect fill="#FFFFFF" height="370.6875" style="stroke:#181818;stroke-width:1.0;" width="10" x="178" y="147.8047"/><rect fill="#FFFFFF" height="313.6406" style="stroke:#181818;stroke-width:1.0;" width="10" x="395" y="176.3281"/><rect fill="#FFFFFF" height="52.0469" style="stroke:#181818;stroke-width:1.0;" width="10" x="625" y="204.8516"/><rect fill="#FFFFFF" height="85.5703" style="stroke:#181818;stroke-width:1.0;" width="10" x="853.5" y="299.7109"/><rect fill="#FFFFFF" height="28.5234" style="stroke:#181818;stroke-width:1.0;" width="10" x="1030" y="328.2344"/><rect fill="none" height="173.4297" style="stroke:#000000;stroke-width:1.5;" width="823" x="282" y="219.8516"/><line style="stroke:#181818;stroke-width:0.5;stroke-dasharray:5.0,5.0;" x1="26" x2="26" y1="117.2813" y2="536.4922"/><line style="stroke:#181818;stroke-width:0.5;stroke-dasharray:5.0,5.0;" x1="183" x2="183" y1="117.2813" y2="536.4922"/><line style="stroke:#181818;stroke-width:0.5;stroke-dasharray:5.0,5.0;" x1="400" x2="400" y1="117.2813" y2="536.4922"/><line style="stroke:#181818;stroke-width:0.5;stroke-dasharray:5.0,5.0;" x1="630" x2="630" y1="117.2813" y2="536.4922"/><line style="stroke:#181818;stroke-width:0.5;stroke-dasharray:5.0,5.0;" x1="858" x2="858" y1="117.2813" y2="536.4922"/><line style="stroke:#181818;stroke-width:0.5;stroke-dasharray:5.0,5.0;" x1="1035" x2="1035" y1="117.2813" y2="536.4922"/><line style="stroke:#181818;stroke-width:0.5;stroke-dasharray:5.0,5.0;" x1="1160" x2="1160" y1="430.6016" y2="536.4922"/><text fill="#000000" font-family="sans-serif" font-size="14" lengthAdjust="spacing" textLength="36" x="5" y="114.3145">Client</text><ellipse cx="26" cy="50.1406" fill="#E2E2F0" rx="8" ry="8" style="stroke:#181818;stroke-width:0.5;"/><path d="M26,58.1406 L26,85.1406 M13,66.1406 L39,66.1406 M26,85.1406 L13,100.1406 M26,85.1406 L39,100.1406 " fill="none" style="stroke:#181818;stroke-width:0.5;"/><text fill="#000000" font-family="sans-serif" font-size="14" lengthAdjust="spacing" textLength="36" x="5" y="548.166">Client</text><ellipse cx="26" cy="559.6328" fill="#E2E2F0" rx="8" ry="8" style="stroke:#181818;stroke-width:0.5;"/><path d="M26,567.6328 L26,594.6328 M13,575.6328 L39,575.6328 M26,594.6328 L13,609.6328 M26,594.6328 L39,609.6328 " fill="none" style="stroke:#181818;stroke-width:0.5;"/><rect fill="#E2E2F0" height="29.6406" rx="2.5" ry="2.5" style="stroke:#181818;stroke-width:0.5;" width="132" x="117" y="86.6406"/><text fill="#000000" font-family="sans-serif" font-size="14" lengthAdjust="spacing" textLength="118" x="124" y="106.3145">ProductsController</text><rect fill="#E2E2F0" height="29.6406" rx="2.5" ry="2.5" style="stroke:#181818;stroke-width:0.5;" width="132" x="117" y="535.4922"/><text fill="#000000" font-family="sans-serif" font-size="14" lengthAdjust="spacing" textLength="118" x="124" y="555.166">ProductsController</text><rect fill="#E2E2F0" height="29.6406" rx="2.5" ry="2.5" style="stroke:#181818;stroke-width:0.5;" width="216" x="292" y="86.6406"/><text fill="#000000" font-family="sans-serif" font-size="14" lengthAdjust="spacing" textLength="202" x="299" y="106.3145">productService:ProductsService</text><rect fill="#E2E2F0" height="29.6406" rx="2.5" ry="2.5" style="stroke:#181818;stroke-width:0.5;" width="216" x="292" y="535.4922"/><text fill="#000000" font-family="sans-serif" font-size="14" lengthAdjust="spacing" textLength="202" x="299" y="555.166">productService:ProductsService</text><rect fill="#E2E2F0" height="29.6406" rx="2.5" ry="2.5" style="stroke:#181818;stroke-width:0.5;" width="224" x="518" y="86.6406"/><text fill="#000000" font-family="sans-serif" font-size="14" lengthAdjust="spacing" textLength="210" x="525" y="106.3145">productRepo:ProductsRepository</text><rect fill="#E2E2F0" height="29.6406" rx="2.5" ry="2.5" style="stroke:#181818;stroke-width:0.5;" width="224" x="518" y="535.4922"/><text fill="#000000" font-family="sans-serif" font-size="14" lengthAdjust="spacing" textLength="210" x="525" y="555.166">productRepo:ProductsRepository</text><rect fill="#E2E2F0" height="29.6406" rx="2.5" ry="2.5" style="stroke:#181818;stroke-width:0.5;" width="213" x="752" y="86.6406"/><text fill="#000000" font-family="sans-serif" font-size="14" lengthAdjust="spacing" textLength="199" x="759" y="106.3145">requestService:RequestService</text><rect fill="#E2E2F0" height="29.6406" rx="2.5" ry="2.5" style="stroke:#181818;stroke-width:0.5;" width="213" x="752" y="535.4922"/><text fill="#000000" font-family="sans-serif" font-size="14" lengthAdjust="spacing" textLength="199" x="759" y="555.166">requestService:RequestService</text><rect fill="#E2E2F0" height="29.6406" rx="2.5" ry="2.5" style="stroke:#181818;stroke-width:0.5;" width="120" x="975" y="86.6406"/><text fill="#000000" font-family="sans-serif" font-size="14" lengthAdjust="spacing" textLength="106" x="982" y="106.3145">:ProductInstance</text><rect fill="#E2E2F0" height="29.6406" rx="2.5" ry="2.5" style="stroke:#181818;stroke-width:0.5;" width="120" x="975" y="535.4922"/><text fill="#000000" font-family="sans-serif" font-size="14" lengthAdjust="spacing" textLength="106" x="982" y="555.166">:ProductInstance</text><rect fill="#E2E2F0" height="29.6406" rx="2.5" ry="2.5" style="stroke:#181818;stroke-width:0.5;" width="110" x="1105" y="535.4922"/><text fill="#000000" font-family="sans-serif" font-size="14" lengthAdjust="spacing" textLength="96" x="1112" y="555.166">:ProductDetails</text><rect fill="#FFFFFF" height="400.2109" style="stroke:#181818;stroke-width:1.0;" width="10" x="21" y="127.2813"/><rect fill="#FFFFFF" height="370.6875" style="stroke:#181818;stroke-width:1.0;" width="10" x="178" y="147.8047"/><rect fill="#FFFFFF" height="313.6406" style="stroke:#181818;stroke-width:1.0;" width="10" x="395" y="176.3281"/><rect fill="#FFFFFF" height="52.0469" style="stroke:#181818;stroke-width:1.0;" width="10" x="625" y="204.8516"/><rect fill="#FFFFFF" height="85.5703" style="stroke:#181818;stroke-width:1.0;" width="10" x="853.5" y="299.7109"/><rect fill="#FFFFFF" height="28.5234" style="stroke:#181818;stroke-width:1.0;" width="10" x="1030" y="328.2344"/><polygon fill="#181818" points="166,143.8047,176,147.8047,166,151.8047,170,147.8047" style="stroke:#181818;stroke-width:1.0;"/><line style="stroke:#181818;stroke-width:1.0;" x1="31" x2="172" y1="147.8047" y2="147.8047"/><text fill="#000000" font-family="sans-serif" font-size="13" font-weight="bold" lengthAdjust="spacing" textLength="7" x="38" y="143.0498">1</text><text fill="#000000" font-family="sans-serif" font-size="13" lengthAdjust="spacing" textLength="117" x="49" y="143.0498">GET /products/{sku}</text><polygon fill="#181818" points="383,172.3281,393,176.3281,383,180.3281,387,176.3281" style="stroke:#181818;stroke-width:1.0;"/><line style="stroke:#181818;stroke-width:1.0;" x1="188" x2="389" y1="176.3281" y2="176.3281"/><text fill="#000000" font-family="sans-serif" font-size="13" font-weight="bold" lengthAdjust="spacing" textLength="7" x="195" y="171.5732">2</text><text fill="#000000" font-family="sans-serif" font-size="13" lengthAdjust="spacing" textLength="177" x="206" y="171.5732">productService.findBySku(sku)</text><polygon fill="#181818" points="613,200.8516,623,204.8516,613,208.8516,617,204.8516" style="stroke:#181818;stroke-width:1.0;"/><line style="stroke:#181818;stroke-width:1.0;" x1="405" x2="619" y1="204.8516" y2="204.8516"/><text fill="#000000" font-family="sans-serif" font-size="13" font-weight="bold" lengthAdjust="spacing" textLength="7" x="412" y="200.0967">3</text><text fill="#000000" font-family="sans-serif" font-size="13" lengthAdjust="spacing" textLength="165" x="423" y="200.0967">productRepo.findBySuk(sku)</text><path d="M282,219.8516 L343,219.8516 L343,226.375 L333,236.375 L282,236.375 L282,219.8516 " fill="#EEEEEE" style="stroke:#000000;stroke-width:1.5;"/><rect fill="none" height="173.4297" style="stroke:#000000;stroke-width:1.5;" width="823" x="282" y="219.8516"/><text fill="#000000" font-family="sans-serif" font-size="13" font-weight="bold" lengthAdjust="spacing" textLength="16" x="297" y="232.6201">alt</text><text fill="#000000" font-family="sans-serif" font-size="11" font-weight="bold" lengthAdjust="spacing" textLength="84" x="358" y="231.8096">[success case]</text><polygon fill="#181818" points="416,252.8984,406,256.8984,416,260.8984,412,256.8984" style="stroke:#181818;stroke-width:1.0;"/><line style="stroke:#181818;stroke-width:1.0;stroke-dasharray:2.0,2.0;" x1="410" x2="629" y1="256.8984" y2="256.8984"/><text fill="#000000" font-family="sans-serif" font-size="13" font-weight="bold" lengthAdjust="spacing" textLength="7" x="422" y="252.1436">4</text><text fill="#000000" font-family="sans-serif" font-size="13" lengthAdjust="spacing" textLength="43" x="433" y="252.1436">product</text><line style="stroke:#000000;stroke-width:1.0;stroke-dasharray:2.0,2.0;" x1="282" x2="1105" y1="265.8984" y2="265.8984"/><text fill="#000000" font-family="sans-serif" font-size="11" font-weight="bold" lengthAdjust="spacing" textLength="89" x="287" y="275.8564">[product == null]</text><polygon fill="#181818" points="841.5,295.7109,851.5,299.7109,841.5,303.7109,845.5,299.7109" style="stroke:#181818;stroke-width:1.0;"/><line style="stroke:#181818;stroke-width:1.0;" x1="405" x2="847.5" y1="299.7109" y2="299.7109"/><text fill="#000000" font-family="sans-serif" font-size="13" font-weight="bold" lengthAdjust="spacing" textLength="7" x="412" y="294.9561">5</text><text fill="#000000" font-family="sans-serif" font-size="13" lengthAdjust="spacing" textLength="164" x="423" y="294.9561">retrieveProductFromApi(sku)</text><polygon fill="#181818" points="1018,324.2344,1028,328.2344,1018,332.2344,1022,328.2344" style="stroke:#181818;stroke-width:1.0;"/><line style="stroke:#181818;stroke-width:1.0;" x1="863.5" x2="1024" y1="328.2344" y2="328.2344"/><text fill="#000000" font-family="sans-serif" font-size="13" font-weight="bold" lengthAdjust="spacing" textLength="7" x="870.5" y="323.4795">6</text><text fill="#000000" font-family="sans-serif" font-size="13" lengthAdjust="spacing" textLength="117" x="881.5" y="323.4795">GET /products/{sku}</text><polygon fill="#181818" points="874.5,352.7578,864.5,356.7578,874.5,360.7578,870.5,356.7578" style="stroke:#181818;stroke-width:1.0;"/><line style="stroke:#181818;stroke-width:1.0;stroke-dasharray:2.0,2.0;" x1="868.5" x2="1034" y1="356.7578" y2="356.7578"/><text fill="#000000" font-family="sans-serif" font-size="13" font-weight="bold" lengthAdjust="spacing" textLength="7" x="880.5" y="352.0029">7</text><text fill="#000000" font-family="sans-serif" font-size="13" lengthAdjust="spacing" textLength="43" x="891.5" y="352.0029">product</text><polygon fill="#181818" points="416,381.2813,406,385.2813,416,389.2813,412,385.2813" style="stroke:#181818;stroke-width:1.0;"/><line style="stroke:#181818;stroke-width:1.0;stroke-dasharray:2.0,2.0;" x1="410" x2="857.5" y1="385.2813" y2="385.2813"/><text fill="#000000" font-family="sans-serif" font-size="13" font-weight="bold" lengthAdjust="spacing" textLength="7" x="422" y="380.5264">8</text><text fill="#000000" font-family="sans-serif" font-size="13" lengthAdjust="spacing" textLength="43" x="433" y="380.5264">product</text><polygon fill="#181818" points="1093,416.8047,1103,420.8047,1093,424.8047,1097,420.8047" style="stroke:#181818;stroke-width:1.0;"/><line style="stroke:#181818;stroke-width:1.0;" x1="405" x2="1099" y1="420.8047" y2="420.8047"/><text fill="#000000" font-family="sans-serif" font-size="13" font-weight="bold" lengthAdjust="spacing" textLength="7" x="412" y="416.0498">9</text><text fill="#000000" font-family="sans-serif" font-size="13" lengthAdjust="spacing" textLength="74" x="423" y="416.0498">new(product)</text><rect fill="#E2E2F0" height="29.6406" rx="2.5" ry="2.5" style="stroke:#181818;stroke-width:0.5;" width="110" x="1105" y="400.2813"/><text fill="#000000" font-family="sans-serif" font-size="14" lengthAdjust="spacing" textLength="96" x="1112" y="419.9551">:ProductDetails</text><polygon fill="#181818" points="416,457.4453,406,461.4453,416,465.4453,412,461.4453" style="stroke:#181818;stroke-width:1.0;"/><line style="stroke:#181818;stroke-width:1.0;stroke-dasharray:2.0,2.0;" x1="410" x2="1159" y1="461.4453" y2="461.4453"/><text fill="#000000" font-family="sans-serif" font-size="13" font-weight="bold" lengthAdjust="spacing" textLength="14" x="422" y="456.6904">10</text><text fill="#000000" font-family="sans-serif" font-size="13" lengthAdjust="spacing" textLength="83" x="440" y="456.6904">productDetails</text><polygon fill="#181818" points="199,485.9688,189,489.9688,199,493.9688,195,489.9688" style="stroke:#181818;stroke-width:1.0;"/><line style="stroke:#181818;stroke-width:1.0;stroke-dasharray:2.0,2.0;" x1="193" x2="399" y1="489.9688" y2="489.9688"/><text fill="#000000" font-family="sans-serif" font-size="13" font-weight="bold" lengthAdjust="spacing" textLength="14" x="205" y="485.2139">11</text><text fill="#000000" font-family="sans-serif" font-size="13" lengthAdjust="spacing" textLength="83" x="223" y="485.2139">productDetails</text><polygon fill="#181818" points="42,514.4922,32,518.4922,42,522.4922,38,518.4922" style="stroke:#181818;stroke-width:1.0;"/><line style="stroke:#181818;stroke-width:1.0;stroke-dasharray:2.0,2.0;" x1="36" x2="182" y1="518.4922" y2="518.4922"/><text fill="#000000" font-family="sans-serif" font-size="13" font-weight="bold" lengthAdjust="spacing" textLength="14" x="48" y="513.7373">12</text><text fill="#000000" font-family="sans-serif" font-size="13" lengthAdjust="spacing" textLength="83" x="66" y="513.7373">productDetails</text><!--MD5=[a958d710192077d5ad695741f57d3ebb]
@startuml
'https://plantuml.com/sequence-diagram

title Obtain the details of a product
autoactivate on
autonumber

actor "Client" as client
participant "ProductsController" as controller
participant "productService:ProductsService" as service
participant "productRepo:ProductsRepository" as repository
participant "requestService:RequestService" as request
participant ":ProductInstance" as instance
participant ":ProductDetails" as details

activate client

client -> controller: GET /products/{sku}
controller -> service : productService.findBySku(sku)
service -> repository: productRepo.findBySuk(sku)
alt success case
repository - -> service: product
else product == null
service -> request:retrieveProductFromApi(sku)
request -> instance: GET /products/{sku}
instance - -> request: product
request - -> service: product
end

service -> details**: new(product)
details - -> service: productDetails
service - -> controller: productDetails
controller - -> client: productDetails


@enduml

@startuml

title Obtain the details of a product
autoactivate on
autonumber

actor "Client" as client
participant "ProductsController" as controller
participant "productService:ProductsService" as service
participant "productRepo:ProductsRepository" as repository
participant "requestService:RequestService" as request
participant ":ProductInstance" as instance
participant ":ProductDetails" as details

activate client

client -> controller: GET /products/{sku}
controller -> service : productService.findBySku(sku)
service -> repository: productRepo.findBySuk(sku)
alt success case
repository - -> service: product
else product == null
service -> request:retrieveProductFromApi(sku)
request -> instance: GET /products/{sku}
instance - -> request: product
request - -> service: product
end

service -> details**: new(product)
details - -> service: productDetails
service - -> controller: productDetails
controller - -> client: productDetails


@enduml

PlantUML version 1.2022.12(Sun Oct 23 19:12:26 WEST 2022)
(GPL source distribution)
Java Runtime: OpenJDK Runtime Environment
JVM: OpenJDK 64-Bit Server VM
Default Encoding: Cp1252
Language: pt
Country: PT
--></g></svg>