<?xml version="1.0" encoding="UTF-8" standalone="no"?><svg xmlns="http://www.w3.org/2000/svg" xmlns:xlink="http://www.w3.org/1999/xlink" contentStyleType="text/css" height="1182px" preserveAspectRatio="none" style="width:1952px;height:1182px;background:#FFFFFF;" version="1.1" viewBox="0 0 1952 1182" width="1952px" zoomAndPan="magnify"><defs/><g><text fill="#000000" font-family="sans-serif" font-size="14" font-weight="bold" lengthAdjust="spacing" textLength="250" x="849.5" y="30.1074">Approve or reject a pending review</text><rect fill="#FFFFFF" height="808.6934" style="stroke:#181818;stroke-width:1.0;" width="10" x="21" y="281.6973"/><rect fill="#FFFFFF" height="9" style="stroke:#181818;stroke-width:1.0;" width="10" x="26" y="1081.3906"/><rect fill="#FFFFFF" height="777.4023" style="stroke:#181818;stroke-width:1.0;" width="10" x="253" y="312.9883"/><rect fill="#FFFFFF" height="40.291" style="stroke:#181818;stroke-width:1.0;" width="10" x="258" y="1050.0996"/><rect fill="#FFFFFF" height="37.291" style="stroke:#181818;stroke-width:1.0;" width="10" x="339.5" y="640.8984"/><rect fill="#FFFFFF" height="373.9102" style="stroke:#181818;stroke-width:1.0;" width="10" x="468.5" y="716.4805"/><rect fill="#FFFFFF" height="334.6191" style="stroke:#181818;stroke-width:1.0;" width="10" x="473.5" y="755.7715"/><rect fill="#FFFFFF" height="298.3281" style="stroke:#181818;stroke-width:1.0;" width="10" x="597.5" y="792.0625"/><rect fill="#FFFFFF" height="259.0371" style="stroke:#181818;stroke-width:1.0;" width="10" x="602.5" y="831.3535"/><rect fill="#FFFFFF" height="222.7461" style="stroke:#181818;stroke-width:1.0;" width="10" x="726.5" y="867.6445"/><rect fill="#FFFFFF" height="183.4551" style="stroke:#181818;stroke-width:1.0;" width="10" x="731.5" y="906.9355"/><rect fill="#FFFFFF" height="147.1641" style="stroke:#181818;stroke-width:1.0;" width="10" x="855.5" y="943.2266"/><rect fill="#FFFFFF" height="107.873" style="stroke:#181818;stroke-width:1.0;" width="10" x="860.5" y="982.5176"/><rect fill="#FFFFFF" height="746.1113" style="stroke:#181818;stroke-width:1.0;" width="10" x="984.5" y="344.2793"/><rect fill="#FFFFFF" height="71.582" style="stroke:#181818;stroke-width:1.0;" width="10" x="989.5" y="1018.8086"/><rect fill="#FFFFFF" height="37.291" style="stroke:#181818;stroke-width:1.0;" width="10" x="1297.5" y="375.5703"/><rect fill="#FFFFFF" height="31.291" style="stroke:#181818;stroke-width:1.0;" width="10" x="1631.5" y="540.0254"/><rect fill="#FFFFFF" height="31.291" style="stroke:#181818;stroke-width:1.0;" width="10" x="1818" y="451.1523"/><rect fill="#FFFFFF" height="933.8574" style="stroke:#181818;stroke-width:1.0;" width="10" x="1912.5" y="156.5332"/><rect fill="#FFFFFF" height="902.5664" style="stroke:#181818;stroke-width:1.0;" width="10" x="1917.5" y="187.8242"/><rect fill="#FFFFFF" height="871.2754" style="stroke:#181818;stroke-width:1.0;" width="10" x="1922.5" y="219.1152"/><rect fill="#FFFFFF" height="839.9844" style="stroke:#181818;stroke-width:1.0;" width="10" x="1927.5" y="250.4063"/><rect fill="#FFFFFF" height="808.6934" style="stroke:#181818;stroke-width:1.0;" width="10" x="1932.5" y="281.6973"/><rect fill="#FFFFFF" height="480.7832" style="stroke:#181818;stroke-width:1.0;" width="10" x="1937.5" y="609.6074"/><rect fill="none" height="81.873" style="stroke:#000000;stroke-width:1.5;" width="572" x="1194" y="497.4434"/><line style="stroke:#181818;stroke-width:0.5;stroke-dasharray:5.0,5.0;" x1="26" x2="26" y1="123.2422" y2="1099.3906"/><line style="stroke:#181818;stroke-width:0.5;stroke-dasharray:5.0,5.0;" x1="257.5" x2="257.5" y1="123.2422" y2="1099.3906"/><line style="stroke:#181818;stroke-width:0.5;stroke-dasharray:5.0,5.0;" x1="344.5" x2="344.5" y1="123.2422" y2="1099.3906"/><line style="stroke:#181818;stroke-width:0.5;stroke-dasharray:5.0,5.0;" x1="473" x2="473" y1="123.2422" y2="1099.3906"/><line style="stroke:#181818;stroke-width:0.5;stroke-dasharray:5.0,5.0;" x1="602" x2="602" y1="123.2422" y2="1099.3906"/><line style="stroke:#181818;stroke-width:0.5;stroke-dasharray:5.0,5.0;" x1="731" x2="731" y1="123.2422" y2="1099.3906"/><line style="stroke:#181818;stroke-width:0.5;stroke-dasharray:5.0,5.0;" x1="860" x2="860" y1="123.2422" y2="1099.3906"/><line style="stroke:#181818;stroke-width:0.5;stroke-dasharray:5.0,5.0;" x1="989" x2="989" y1="123.2422" y2="1099.3906"/><line style="stroke:#181818;stroke-width:0.5;stroke-dasharray:5.0,5.0;" x1="1302" x2="1302" y1="123.2422" y2="1099.3906"/><line style="stroke:#181818;stroke-width:0.5;stroke-dasharray:5.0,5.0;" x1="1636" x2="1636" y1="123.2422" y2="1099.3906"/><line style="stroke:#181818;stroke-width:0.5;stroke-dasharray:5.0,5.0;" x1="1823" x2="1823" y1="123.2422" y2="1099.3906"/><line style="stroke:#181818;stroke-width:0.5;stroke-dasharray:5.0,5.0;" x1="1917" x2="1917" y1="123.2422" y2="1099.3906"/><text fill="#000000" font-family="sans-serif" font-size="14" lengthAdjust="spacing" textLength="36" x="5" y="119.7285">Client</text><ellipse cx="26" cy="53.1211" fill="#E2E2F0" rx="8" ry="8" style="stroke:#181818;stroke-width:0.5;"/><path d="M26,61.1211 L26,88.1211 M13,69.1211 L39,69.1211 M26,88.1211 L13,103.1211 M26,88.1211 L39,103.1211 " fill="none" style="stroke:#181818;stroke-width:0.5;"/><text fill="#000000" font-family="sans-serif" font-size="14" lengthAdjust="spacing" textLength="36" x="5" y="1113.498">Client</text><ellipse cx="26" cy="1125.5117" fill="#E2E2F0" rx="8" ry="8" style="stroke:#181818;stroke-width:0.5;"/><path d="M26,1133.5117 L26,1160.5117 M13,1141.5117 L39,1141.5117 M26,1160.5117 L13,1175.5117 M26,1160.5117 L39,1175.5117 " fill="none" style="stroke:#181818;stroke-width:0.5;"/><rect fill="#E2E2F0" height="32.6211" rx="2.5" ry="2.5" style="stroke:#181818;stroke-width:0.5;" width="73" x="221.5" y="89.6211"/><text fill="#000000" font-family="sans-serif" font-size="14" lengthAdjust="spacing" textLength="59" x="228.5" y="111.7285">:ReviewC</text><rect fill="#E2E2F0" height="32.6211" rx="2.5" ry="2.5" style="stroke:#181818;stroke-width:0.5;" width="73" x="221.5" y="1098.3906"/><text fill="#000000" font-family="sans-serif" font-size="14" lengthAdjust="spacing" textLength="59" x="228.5" y="1120.498">:ReviewC</text><rect fill="#E2E2F0" height="32.6211" rx="2.5" ry="2.5" style="stroke:#181818;stroke-width:0.5;" width="80" x="304.5" y="89.6211"/><text fill="#000000" font-family="sans-serif" font-size="14" lengthAdjust="spacing" textLength="66" x="311.5" y="111.7285">reviewC_n</text><rect fill="#E2E2F0" height="32.6211" rx="2.5" ry="2.5" style="stroke:#181818;stroke-width:0.5;" width="80" x="304.5" y="1098.3906"/><text fill="#000000" font-family="sans-serif" font-size="14" lengthAdjust="spacing" textLength="66" x="311.5" y="1120.498">reviewC_n</text><rect fill="#E2E2F0" height="32.6211" rx="2.5" ry="2.5" style="stroke:#181818;stroke-width:0.5;" width="65" x="441" y="89.6211"/><text fill="#000000" font-family="sans-serif" font-size="14" lengthAdjust="spacing" textLength="51" x="448" y="111.7285">reviewQ</text><rect fill="#E2E2F0" height="32.6211" rx="2.5" ry="2.5" style="stroke:#181818;stroke-width:0.5;" width="65" x="441" y="1098.3906"/><text fill="#000000" font-family="sans-serif" font-size="14" lengthAdjust="spacing" textLength="51" x="448" y="1120.498">reviewQ</text><rect fill="#E2E2F0" height="32.6211" rx="2.5" ry="2.5" style="stroke:#181818;stroke-width:0.5;" width="81" x="562" y="89.6211"/><text fill="#000000" font-family="sans-serif" font-size="14" lengthAdjust="spacing" textLength="67" x="569" y="111.7285">reviewQ_n</text><rect fill="#E2E2F0" height="32.6211" rx="2.5" ry="2.5" style="stroke:#181818;stroke-width:0.5;" width="81" x="562" y="1098.3906"/><text fill="#000000" font-family="sans-serif" font-size="14" lengthAdjust="spacing" textLength="67" x="569" y="1120.498">reviewQ_n</text><rect fill="#E2E2F0" height="32.6211" rx="2.5" ry="2.5" style="stroke:#181818;stroke-width:0.5;" width="51" x="706" y="89.6211"/><text fill="#000000" font-family="sans-serif" font-size="14" lengthAdjust="spacing" textLength="37" x="713" y="111.7285">voteC</text><rect fill="#E2E2F0" height="32.6211" rx="2.5" ry="2.5" style="stroke:#181818;stroke-width:0.5;" width="51" x="706" y="1098.3906"/><text fill="#000000" font-family="sans-serif" font-size="14" lengthAdjust="spacing" textLength="37" x="713" y="1120.498">voteC</text><rect fill="#E2E2F0" height="32.6211" rx="2.5" ry="2.5" style="stroke:#181818;stroke-width:0.5;" width="67" x="827" y="89.6211"/><text fill="#000000" font-family="sans-serif" font-size="14" lengthAdjust="spacing" textLength="53" x="834" y="111.7285">voteC_n</text><rect fill="#E2E2F0" height="32.6211" rx="2.5" ry="2.5" style="stroke:#181818;stroke-width:0.5;" width="67" x="827" y="1098.3906"/><text fill="#000000" font-family="sans-serif" font-size="14" lengthAdjust="spacing" textLength="53" x="834" y="1120.498">voteC_n</text><rect fill="#E2E2F0" height="32.6211" rx="2.5" ry="2.5" style="stroke:#181818;stroke-width:0.5;" width="141" x="919" y="89.6211"/><text fill="#000000" font-family="sans-serif" font-size="14" lengthAdjust="spacing" textLength="127" x="926" y="111.7285">ModeratorController</text><rect fill="#E2E2F0" height="32.6211" rx="2.5" ry="2.5" style="stroke:#181818;stroke-width:0.5;" width="141" x="919" y="1098.3906"/><text fill="#000000" font-family="sans-serif" font-size="14" lengthAdjust="spacing" textLength="127" x="926" y="1120.498">ModeratorController</text><rect fill="#E2E2F0" height="32.6211" rx="2.5" ry="2.5" style="stroke:#181818;stroke-width:0.5;" width="197" x="1204" y="89.6211"/><text fill="#000000" font-family="sans-serif" font-size="14" lengthAdjust="spacing" textLength="183" x="1211" y="111.7285">reviewService:ReviewService</text><rect fill="#E2E2F0" height="32.6211" rx="2.5" ry="2.5" style="stroke:#181818;stroke-width:0.5;" width="197" x="1204" y="1098.3906"/><text fill="#000000" font-family="sans-serif" font-size="14" lengthAdjust="spacing" textLength="183" x="1211" y="1120.498">reviewService:ReviewService</text><rect fill="#E2E2F0" height="32.6211" rx="2.5" ry="2.5" style="stroke:#181818;stroke-width:0.5;" width="239" x="1517" y="89.6211"/><text fill="#000000" font-family="sans-serif" font-size="14" lengthAdjust="spacing" textLength="225" x="1524" y="111.7285">reviewRepository:ReviewRepository</text><rect fill="#E2E2F0" height="32.6211" rx="2.5" ry="2.5" style="stroke:#181818;stroke-width:0.5;" width="239" x="1517" y="1098.3906"/><text fill="#000000" font-family="sans-serif" font-size="14" lengthAdjust="spacing" textLength="225" x="1524" y="1120.498">reviewRepository:ReviewRepository</text><rect fill="#E2E2F0" height="32.6211" rx="2.5" ry="2.5" style="stroke:#181818;stroke-width:0.5;" width="114" x="1766" y="89.6211"/><text fill="#000000" font-family="sans-serif" font-size="14" lengthAdjust="spacing" textLength="100" x="1773" y="111.7285">:JWTRepository</text><rect fill="#E2E2F0" height="32.6211" rx="2.5" ry="2.5" style="stroke:#181818;stroke-width:0.5;" width="114" x="1766" y="1098.3906"/><text fill="#000000" font-family="sans-serif" font-size="14" lengthAdjust="spacing" textLength="100" x="1773" y="1120.498">:JWTRepository</text><rect fill="#E2E2F0" height="32.6211" rx="2.5" ry="2.5" style="stroke:#181818;stroke-width:0.5;" width="55" x="1890" y="89.6211"/><text fill="#000000" font-family="sans-serif" font-size="14" lengthAdjust="spacing" textLength="41" x="1897" y="111.7285">broker</text><rect fill="#E2E2F0" height="32.6211" rx="2.5" ry="2.5" style="stroke:#181818;stroke-width:0.5;" width="55" x="1890" y="1098.3906"/><text fill="#000000" font-family="sans-serif" font-size="14" lengthAdjust="spacing" textLength="41" x="1897" y="1120.498">broker</text><rect fill="#FFFFFF" height="808.6934" style="stroke:#181818;stroke-width:1.0;" width="10" x="21" y="281.6973"/><rect fill="#FFFFFF" height="9" style="stroke:#181818;stroke-width:1.0;" width="10" x="26" y="1081.3906"/><rect fill="#FFFFFF" height="777.4023" style="stroke:#181818;stroke-width:1.0;" width="10" x="253" y="312.9883"/><rect fill="#FFFFFF" height="40.291" style="stroke:#181818;stroke-width:1.0;" width="10" x="258" y="1050.0996"/><rect fill="#FFFFFF" height="37.291" style="stroke:#181818;stroke-width:1.0;" width="10" x="339.5" y="640.8984"/><rect fill="#FFFFFF" height="373.9102" style="stroke:#181818;stroke-width:1.0;" width="10" x="468.5" y="716.4805"/><rect fill="#FFFFFF" height="334.6191" style="stroke:#181818;stroke-width:1.0;" width="10" x="473.5" y="755.7715"/><rect fill="#FFFFFF" height="298.3281" style="stroke:#181818;stroke-width:1.0;" width="10" x="597.5" y="792.0625"/><rect fill="#FFFFFF" height="259.0371" style="stroke:#181818;stroke-width:1.0;" width="10" x="602.5" y="831.3535"/><rect fill="#FFFFFF" height="222.7461" style="stroke:#181818;stroke-width:1.0;" width="10" x="726.5" y="867.6445"/><rect fill="#FFFFFF" height="183.4551" style="stroke:#181818;stroke-width:1.0;" width="10" x="731.5" y="906.9355"/><rect fill="#FFFFFF" height="147.1641" style="stroke:#181818;stroke-width:1.0;" width="10" x="855.5" y="943.2266"/><rect fill="#FFFFFF" height="107.873" style="stroke:#181818;stroke-width:1.0;" width="10" x="860.5" y="982.5176"/><rect fill="#FFFFFF" height="746.1113" style="stroke:#181818;stroke-width:1.0;" width="10" x="984.5" y="344.2793"/><rect fill="#FFFFFF" height="71.582" style="stroke:#181818;stroke-width:1.0;" width="10" x="989.5" y="1018.8086"/><rect fill="#FFFFFF" height="37.291" style="stroke:#181818;stroke-width:1.0;" width="10" x="1297.5" y="375.5703"/><rect fill="#FFFFFF" height="31.291" style="stroke:#181818;stroke-width:1.0;" width="10" x="1631.5" y="540.0254"/><rect fill="#FFFFFF" height="31.291" style="stroke:#181818;stroke-width:1.0;" width="10" x="1818" y="451.1523"/><rect fill="#FFFFFF" height="933.8574" style="stroke:#181818;stroke-width:1.0;" width="10" x="1912.5" y="156.5332"/><rect fill="#FFFFFF" height="902.5664" style="stroke:#181818;stroke-width:1.0;" width="10" x="1917.5" y="187.8242"/><rect fill="#FFFFFF" height="871.2754" style="stroke:#181818;stroke-width:1.0;" width="10" x="1922.5" y="219.1152"/><rect fill="#FFFFFF" height="839.9844" style="stroke:#181818;stroke-width:1.0;" width="10" x="1927.5" y="250.4063"/><rect fill="#FFFFFF" height="808.6934" style="stroke:#181818;stroke-width:1.0;" width="10" x="1932.5" y="281.6973"/><rect fill="#FFFFFF" height="480.7832" style="stroke:#181818;stroke-width:1.0;" width="10" x="1937.5" y="609.6074"/><polygon fill="#181818" points="1900.5,152.5332,1910.5,156.5332,1900.5,160.5332,1904.5,156.5332" style="stroke:#181818;stroke-width:1.0;"/><line style="stroke:#181818;stroke-width:1.0;" x1="344.5" x2="1906.5" y1="156.5332" y2="156.5332"/><text fill="#000000" font-family="sans-serif" font-size="13" font-weight="bold" lengthAdjust="spacing" textLength="7" x="351.5" y="151.2705">1</text><text fill="#000000" font-family="sans-serif" font-size="13" lengthAdjust="spacing" textLength="153" x="362.5" y="151.2705">subscribe "Review.update"</text><polygon fill="#181818" points="1905.5,183.8242,1915.5,187.8242,1905.5,191.8242,1909.5,187.8242" style="stroke:#181818;stroke-width:1.0;"/><line style="stroke:#181818;stroke-width:1.0;" x1="473.5" x2="1911.5" y1="187.8242" y2="187.8242"/><text fill="#000000" font-family="sans-serif" font-size="13" font-weight="bold" lengthAdjust="spacing" textLength="7" x="480.5" y="182.5615">2</text><text fill="#000000" font-family="sans-serif" font-size="13" lengthAdjust="spacing" textLength="153" x="491.5" y="182.5615">subscribe "Review.update"</text><polygon fill="#181818" points="1910.5,215.1152,1920.5,219.1152,1910.5,223.1152,1914.5,219.1152" style="stroke:#181818;stroke-width:1.0;"/><line style="stroke:#181818;stroke-width:1.0;" x1="602.5" x2="1916.5" y1="219.1152" y2="219.1152"/><text fill="#000000" font-family="sans-serif" font-size="13" font-weight="bold" lengthAdjust="spacing" textLength="7" x="609.5" y="213.8525">3</text><text fill="#000000" font-family="sans-serif" font-size="13" lengthAdjust="spacing" textLength="153" x="620.5" y="213.8525">subscribe "Review.update"</text><polygon fill="#181818" points="1915.5,246.4063,1925.5,250.4063,1915.5,254.4063,1919.5,250.4063" style="stroke:#181818;stroke-width:1.0;"/><line style="stroke:#181818;stroke-width:1.0;" x1="731.5" x2="1921.5" y1="250.4063" y2="250.4063"/><text fill="#000000" font-family="sans-serif" font-size="13" font-weight="bold" lengthAdjust="spacing" textLength="7" x="738.5" y="245.1436">4</text><text fill="#000000" font-family="sans-serif" font-size="13" lengthAdjust="spacing" textLength="153" x="749.5" y="245.1436">subscribe "Review.update"</text><polygon fill="#181818" points="1920.5,277.6973,1930.5,281.6973,1920.5,285.6973,1924.5,281.6973" style="stroke:#181818;stroke-width:1.0;"/><line style="stroke:#181818;stroke-width:1.0;" x1="860.5" x2="1926.5" y1="281.6973" y2="281.6973"/><text fill="#000000" font-family="sans-serif" font-size="13" font-weight="bold" lengthAdjust="spacing" textLength="7" x="867.5" y="276.4346">5</text><text fill="#000000" font-family="sans-serif" font-size="13" lengthAdjust="spacing" textLength="153" x="878.5" y="276.4346">subscribe "Review.update"</text><polygon fill="#181818" points="241,308.9883,251,312.9883,241,316.9883,245,312.9883" style="stroke:#181818;stroke-width:1.0;"/><line style="stroke:#181818;stroke-width:1.0;" x1="31" x2="247" y1="312.9883" y2="312.9883"/><text fill="#000000" font-family="sans-serif" font-size="13" font-weight="bold" lengthAdjust="spacing" textLength="7" x="38" y="307.7256">6</text><text fill="#000000" font-family="sans-serif" font-size="13" lengthAdjust="spacing" textLength="192" x="49" y="307.7256">PUT /moderator/review/{idReview}</text><polygon fill="#181818" points="972.5,340.2793,982.5,344.2793,972.5,348.2793,976.5,344.2793" style="stroke:#181818;stroke-width:1.0;"/><line style="stroke:#181818;stroke-width:1.0;" x1="263" x2="978.5" y1="344.2793" y2="344.2793"/><text fill="#000000" font-family="sans-serif" font-size="13" font-weight="bold" lengthAdjust="spacing" textLength="7" x="270" y="339.0166">7</text><text fill="#000000" font-family="sans-serif" font-size="13" lengthAdjust="spacing" textLength="192" x="281" y="339.0166">PUT /moderator/review/{idReview}</text><polygon fill="#181818" points="1285.5,371.5703,1295.5,375.5703,1285.5,379.5703,1289.5,375.5703" style="stroke:#181818;stroke-width:1.0;"/><line style="stroke:#181818;stroke-width:1.0;" x1="994.5" x2="1291.5" y1="375.5703" y2="375.5703"/><text fill="#000000" font-family="sans-serif" font-size="13" font-weight="bold" lengthAdjust="spacing" textLength="7" x="1001.5" y="370.3076">8</text><text fill="#000000" font-family="sans-serif" font-size="13" lengthAdjust="spacing" textLength="273" x="1012.5" y="370.3076">reviewService.changeStatus(idReview,resource)</text><line style="stroke:#181818;stroke-width:1.0;stroke-dasharray:2.0,2.0;" x1="1307.5" x2="1349.5" y1="411.8613" y2="411.8613"/><line style="stroke:#181818;stroke-width:1.0;stroke-dasharray:2.0,2.0;" x1="1349.5" x2="1349.5" y1="411.8613" y2="424.8613"/><line style="stroke:#181818;stroke-width:1.0;stroke-dasharray:2.0,2.0;" x1="1302.5" x2="1349.5" y1="424.8613" y2="424.8613"/><polygon fill="#181818" points="1312.5,420.8613,1302.5,424.8613,1312.5,428.8613,1308.5,424.8613" style="stroke:#181818;stroke-width:1.0;"/><text fill="#000000" font-family="sans-serif" font-size="13" font-weight="bold" lengthAdjust="spacing" textLength="7" x="1314.5" y="406.5986">9</text><text fill="#000000" font-family="sans-serif" font-size="13" lengthAdjust="spacing" textLength="102" x="1325.5" y="406.5986">parseJwt(request)</text><polygon fill="#181818" points="1806,447.1523,1816,451.1523,1806,455.1523,1810,451.1523" style="stroke:#181818;stroke-width:1.0;"/><line style="stroke:#181818;stroke-width:1.0;" x1="1302.5" x2="1812" y1="451.1523" y2="451.1523"/><text fill="#000000" font-family="sans-serif" font-size="13" font-weight="bold" lengthAdjust="spacing" textLength="14" x="1309.5" y="445.8896">10</text><text fill="#000000" font-family="sans-serif" font-size="13" lengthAdjust="spacing" textLength="86" x="1327.5" y="445.8896">findByJWT(jwt)</text><polygon fill="#181818" points="1313.5,478.4434,1303.5,482.4434,1313.5,486.4434,1309.5,482.4434" style="stroke:#181818;stroke-width:1.0;"/><line style="stroke:#181818;stroke-width:1.0;stroke-dasharray:2.0,2.0;" x1="1307.5" x2="1822" y1="482.4434" y2="482.4434"/><text fill="#000000" font-family="sans-serif" font-size="13" font-weight="bold" lengthAdjust="spacing" textLength="14" x="1319.5" y="477.1807">11</text><text fill="#000000" font-family="sans-serif" font-size="13" lengthAdjust="spacing" textLength="25" x="1337.5" y="477.1807">user</text><path d="M1194,497.4434 L1255,497.4434 L1255,506.7344 L1245,516.7344 L1194,516.7344 L1194,497.4434 " fill="#EEEEEE" style="stroke:#000000;stroke-width:1.5;"/><rect fill="none" height="81.873" style="stroke:#000000;stroke-width:1.5;" width="572" x="1194" y="497.4434"/><text fill="#000000" font-family="sans-serif" font-size="13" font-weight="bold" lengthAdjust="spacing" textLength="16" x="1209" y="512.4717">alt</text><text fill="#000000" font-family="sans-serif" font-size="11" font-weight="bold" lengthAdjust="spacing" textLength="176" x="1270" y="511.3135">[user.getRoles = "MODERATOR"]</text><polygon fill="#181818" points="1619.5,536.0254,1629.5,540.0254,1619.5,544.0254,1623.5,540.0254" style="stroke:#181818;stroke-width:1.0;"/><line style="stroke:#181818;stroke-width:1.0;" x1="1302.5" x2="1625.5" y1="540.0254" y2="540.0254"/><text fill="#000000" font-family="sans-serif" font-size="13" font-weight="bold" lengthAdjust="spacing" textLength="14" x="1309.5" y="534.7627">12</text><text fill="#000000" font-family="sans-serif" font-size="13" lengthAdjust="spacing" textLength="292" x="1327.5" y="534.7627">reviewRepository.updateReview(resource,idReview)</text><polygon fill="#181818" points="1313.5,567.3164,1303.5,571.3164,1313.5,575.3164,1309.5,571.3164" style="stroke:#181818;stroke-width:1.0;"/><line style="stroke:#181818;stroke-width:1.0;stroke-dasharray:2.0,2.0;" x1="1307.5" x2="1635.5" y1="571.3164" y2="571.3164"/><text fill="#000000" font-family="sans-serif" font-size="13" font-weight="bold" lengthAdjust="spacing" textLength="14" x="1319.5" y="566.0537">13</text><text fill="#000000" font-family="sans-serif" font-size="13" lengthAdjust="spacing" textLength="14" x="1337.5" y="566.0537">ok</text><polygon fill="#181818" points="1925.5,605.6074,1935.5,609.6074,1925.5,613.6074,1929.5,609.6074" style="stroke:#181818;stroke-width:1.0;"/><line style="stroke:#181818;stroke-width:1.0;" x1="1302.5" x2="1931.5" y1="609.6074" y2="609.6074"/><text fill="#000000" font-family="sans-serif" font-size="13" font-weight="bold" lengthAdjust="spacing" textLength="14" x="1309.5" y="604.3447">14</text><text fill="#000000" font-family="sans-serif" font-size="13" lengthAdjust="spacing" textLength="194" x="1327.5" y="604.3447">publish "Review.update, {Review}"</text><polygon fill="#181818" points="360.5,636.8984,350.5,640.8984,360.5,644.8984,356.5,640.8984" style="stroke:#181818;stroke-width:1.0;"/><line style="stroke:#181818;stroke-width:1.0;" x1="354.5" x2="1936.5" y1="640.8984" y2="640.8984"/><text fill="#000000" font-family="sans-serif" font-size="13" font-weight="bold" lengthAdjust="spacing" textLength="14" x="366.5" y="635.6357">15</text><text fill="#000000" font-family="sans-serif" font-size="13" lengthAdjust="spacing" textLength="128" x="384.5" y="635.6357">notify "Review.update"</text><line style="stroke:#181818;stroke-width:1.0;stroke-dasharray:2.0,2.0;" x1="349.5" x2="391.5" y1="677.1895" y2="677.1895"/><line style="stroke:#181818;stroke-width:1.0;stroke-dasharray:2.0,2.0;" x1="391.5" x2="391.5" y1="677.1895" y2="690.1895"/><line style="stroke:#181818;stroke-width:1.0;stroke-dasharray:2.0,2.0;" x1="344.5" x2="391.5" y1="690.1895" y2="690.1895"/><polygon fill="#181818" points="354.5,686.1895,344.5,690.1895,354.5,694.1895,350.5,690.1895" style="stroke:#181818;stroke-width:1.0;"/><text fill="#000000" font-family="sans-serif" font-size="13" font-weight="bold" lengthAdjust="spacing" textLength="14" x="356.5" y="671.9268">16</text><text fill="#000000" font-family="sans-serif" font-size="13" lengthAdjust="spacing" textLength="87" x="374.5" y="671.9268">update(Review)</text><polygon fill="#181818" points="489.5,712.4805,479.5,716.4805,489.5,720.4805,485.5,716.4805" style="stroke:#181818;stroke-width:1.0;"/><line style="stroke:#181818;stroke-width:1.0;" x1="483.5" x2="1936.5" y1="716.4805" y2="716.4805"/><text fill="#000000" font-family="sans-serif" font-size="13" font-weight="bold" lengthAdjust="spacing" textLength="14" x="495.5" y="711.2178">17</text><text fill="#000000" font-family="sans-serif" font-size="13" lengthAdjust="spacing" textLength="128" x="513.5" y="711.2178">notify "Review.update"</text><line style="stroke:#181818;stroke-width:1.0;" x1="478.5" x2="525.5" y1="742.7715" y2="742.7715"/><line style="stroke:#181818;stroke-width:1.0;" x1="525.5" x2="525.5" y1="742.7715" y2="755.7715"/><line style="stroke:#181818;stroke-width:1.0;" x1="484.5" x2="525.5" y1="755.7715" y2="755.7715"/><polygon fill="#181818" points="494.5,751.7715,484.5,755.7715,494.5,759.7715,490.5,755.7715" style="stroke:#181818;stroke-width:1.0;"/><text fill="#000000" font-family="sans-serif" font-size="13" font-weight="bold" lengthAdjust="spacing" textLength="14" x="490.5" y="737.5088">18</text><text fill="#000000" font-family="sans-serif" font-size="13" lengthAdjust="spacing" textLength="87" x="508.5" y="737.5088">update(Review)</text><polygon fill="#181818" points="618.5,788.0625,608.5,792.0625,618.5,796.0625,614.5,792.0625" style="stroke:#181818;stroke-width:1.0;"/><line style="stroke:#181818;stroke-width:1.0;" x1="612.5" x2="1936.5" y1="792.0625" y2="792.0625"/><text fill="#000000" font-family="sans-serif" font-size="13" font-weight="bold" lengthAdjust="spacing" textLength="14" x="624.5" y="786.7998">19</text><text fill="#000000" font-family="sans-serif" font-size="13" lengthAdjust="spacing" textLength="128" x="642.5" y="786.7998">notify "Review.update"</text><line style="stroke:#181818;stroke-width:1.0;" x1="607.5" x2="654.5" y1="818.3535" y2="818.3535"/><line style="stroke:#181818;stroke-width:1.0;" x1="654.5" x2="654.5" y1="818.3535" y2="831.3535"/><line style="stroke:#181818;stroke-width:1.0;" x1="613.5" x2="654.5" y1="831.3535" y2="831.3535"/><polygon fill="#181818" points="623.5,827.3535,613.5,831.3535,623.5,835.3535,619.5,831.3535" style="stroke:#181818;stroke-width:1.0;"/><text fill="#000000" font-family="sans-serif" font-size="13" font-weight="bold" lengthAdjust="spacing" textLength="14" x="619.5" y="813.0908">20</text><text fill="#000000" font-family="sans-serif" font-size="13" lengthAdjust="spacing" textLength="87" x="637.5" y="813.0908">update(Review)</text><polygon fill="#181818" points="747.5,863.6445,737.5,867.6445,747.5,871.6445,743.5,867.6445" style="stroke:#181818;stroke-width:1.0;"/><line style="stroke:#181818;stroke-width:1.0;" x1="741.5" x2="1936.5" y1="867.6445" y2="867.6445"/><text fill="#000000" font-family="sans-serif" font-size="13" font-weight="bold" lengthAdjust="spacing" textLength="14" x="753.5" y="862.3818">21</text><text fill="#000000" font-family="sans-serif" font-size="13" lengthAdjust="spacing" textLength="128" x="771.5" y="862.3818">notify "Review.update"</text><line style="stroke:#181818;stroke-width:1.0;" x1="736.5" x2="783.5" y1="893.9355" y2="893.9355"/><line style="stroke:#181818;stroke-width:1.0;" x1="783.5" x2="783.5" y1="893.9355" y2="906.9355"/><line style="stroke:#181818;stroke-width:1.0;" x1="742.5" x2="783.5" y1="906.9355" y2="906.9355"/><polygon fill="#181818" points="752.5,902.9355,742.5,906.9355,752.5,910.9355,748.5,906.9355" style="stroke:#181818;stroke-width:1.0;"/><text fill="#000000" font-family="sans-serif" font-size="13" font-weight="bold" lengthAdjust="spacing" textLength="14" x="748.5" y="888.6729">22</text><text fill="#000000" font-family="sans-serif" font-size="13" lengthAdjust="spacing" textLength="87" x="766.5" y="888.6729">update(Review)</text><polygon fill="#181818" points="876.5,939.2266,866.5,943.2266,876.5,947.2266,872.5,943.2266" style="stroke:#181818;stroke-width:1.0;"/><line style="stroke:#181818;stroke-width:1.0;" x1="870.5" x2="1936.5" y1="943.2266" y2="943.2266"/><text fill="#000000" font-family="sans-serif" font-size="13" font-weight="bold" lengthAdjust="spacing" textLength="14" x="882.5" y="937.9639">23</text><text fill="#000000" font-family="sans-serif" font-size="13" lengthAdjust="spacing" textLength="128" x="900.5" y="937.9639">notify "Review.update"</text><line style="stroke:#181818;stroke-width:1.0;" x1="865.5" x2="912.5" y1="969.5176" y2="969.5176"/><line style="stroke:#181818;stroke-width:1.0;" x1="912.5" x2="912.5" y1="969.5176" y2="982.5176"/><line style="stroke:#181818;stroke-width:1.0;" x1="871.5" x2="912.5" y1="982.5176" y2="982.5176"/><polygon fill="#181818" points="881.5,978.5176,871.5,982.5176,881.5,986.5176,877.5,982.5176" style="stroke:#181818;stroke-width:1.0;"/><text fill="#000000" font-family="sans-serif" font-size="13" font-weight="bold" lengthAdjust="spacing" textLength="14" x="877.5" y="964.2549">24</text><text fill="#000000" font-family="sans-serif" font-size="13" lengthAdjust="spacing" textLength="87" x="895.5" y="964.2549">update(Review)</text><polygon fill="#181818" points="1010.5,1014.8086,1000.5,1018.8086,1010.5,1022.8086,1006.5,1018.8086" style="stroke:#181818;stroke-width:1.0;"/><line style="stroke:#181818;stroke-width:1.0;" x1="1004.5" x2="1301.5" y1="1018.8086" y2="1018.8086"/><text fill="#000000" font-family="sans-serif" font-size="13" font-weight="bold" lengthAdjust="spacing" textLength="14" x="1016.5" y="1013.5459">25</text><text fill="#000000" font-family="sans-serif" font-size="13" lengthAdjust="spacing" textLength="35" x="1034.5" y="1013.5459">review</text><polygon fill="#181818" points="279,1046.0996,269,1050.0996,279,1054.0996,275,1050.0996" style="stroke:#181818;stroke-width:1.0;"/><line style="stroke:#181818;stroke-width:1.0;" x1="273" x2="988.5" y1="1050.0996" y2="1050.0996"/><text fill="#000000" font-family="sans-serif" font-size="13" font-weight="bold" lengthAdjust="spacing" textLength="14" x="285" y="1044.8369">26</text><text fill="#000000" font-family="sans-serif" font-size="13" lengthAdjust="spacing" textLength="35" x="303" y="1044.8369">review</text><polygon fill="#181818" points="47,1077.3906,37,1081.3906,47,1085.3906,43,1081.3906" style="stroke:#181818;stroke-width:1.0;"/><line style="stroke:#181818;stroke-width:1.0;" x1="41" x2="257" y1="1081.3906" y2="1081.3906"/><text fill="#000000" font-family="sans-serif" font-size="13" font-weight="bold" lengthAdjust="spacing" textLength="14" x="53" y="1076.1279">27</text><text fill="#000000" font-family="sans-serif" font-size="13" lengthAdjust="spacing" textLength="35" x="71" y="1076.1279">review</text><!--MD5=[40ba2f9d55674cb2ede412e24c04964a]
@startuml
'https://plantuml.com/sequence-diagram

title Approve or reject a pending review
autoactivate on
autonumber

actor "Client" as client

reviewC_n -> broker: subscribe "Review.update"
reviewQ -> broker: subscribe "Review.update"
reviewQ_n -> broker: subscribe "Review.update"
voteC -> broker: subscribe "Review.update"
voteC_n -> broker: subscribe "Review.update"

participant ":ReviewC" as reviewC
participant ":ReviewC_n" as reviewC_n
participant ":ReviewQ" as reviewQ
participant ":ReviewQ_n" as reviewQ_n
participant ":VoteC" as voteC
participant ":VoteC_n" as voteC_n

participant "ModeratorController" as controller
participant "reviewService:ReviewService" as service
participant "reviewRepository:ReviewRepository" as repository
participant ":JWTRepository" as jwtRepository


participant ":MessageBroker" as broker
activate client

client -> reviewC: PUT /moderator/review/{idReview}
reviewC -> controller: PUT /moderator/review/{idReview}
controller -> service : reviewService.changeStatus(idReview,resource)

service - -> service : parseJwt(request)
service -> jwtRepository: findByJWT(jwt)
jwtRepository - -> service: user
alt user.getRoles = "MODERATOR"
    service -> repository: reviewRepository.updateReview(resource,idReview)
    repository - -> service: ok
end
service -> broker:publish "Review.update, {Review}"
reviewC_n <- broker: notify "Review.update"
reviewC_n - -> reviewC_n: update(Review)
reviewQ <- broker: notify "Review.update"
reviewQ -> reviewQ: update(Review)
reviewQ_n <- broker: notify "Review.update"
reviewQ_n -> reviewQ_n: update(Review)
voteC <- broker: notify "Review.update"
voteC -> voteC: update(Review)
voteC_n <- broker: notify "Review.update"
voteC_n -> voteC_n: update(Review)


service -> controller: review
controller -> reviewC: review
reviewC -> client: review

@enduml

@startuml

title Approve or reject a pending review
autoactivate on
autonumber

actor "Client" as client

reviewC_n -> broker: subscribe "Review.update"
reviewQ -> broker: subscribe "Review.update"
reviewQ_n -> broker: subscribe "Review.update"
voteC -> broker: subscribe "Review.update"
voteC_n -> broker: subscribe "Review.update"

participant ":ReviewC" as reviewC
participant ":ReviewC_n" as reviewC_n
participant ":ReviewQ" as reviewQ
participant ":ReviewQ_n" as reviewQ_n
participant ":VoteC" as voteC
participant ":VoteC_n" as voteC_n

participant "ModeratorController" as controller
participant "reviewService:ReviewService" as service
participant "reviewRepository:ReviewRepository" as repository
participant ":JWTRepository" as jwtRepository


participant ":MessageBroker" as broker
activate client

client -> reviewC: PUT /moderator/review/{idReview}
reviewC -> controller: PUT /moderator/review/{idReview}
controller -> service : reviewService.changeStatus(idReview,resource)

service - -> service : parseJwt(request)
service -> jwtRepository: findByJWT(jwt)
jwtRepository - -> service: user
alt user.getRoles = "MODERATOR"
    service -> repository: reviewRepository.updateReview(resource,idReview)
    repository - -> service: ok
end
service -> broker:publish "Review.update, {Review}"
reviewC_n <- broker: notify "Review.update"
reviewC_n - -> reviewC_n: update(Review)
reviewQ <- broker: notify "Review.update"
reviewQ -> reviewQ: update(Review)
reviewQ_n <- broker: notify "Review.update"
reviewQ_n -> reviewQ_n: update(Review)
voteC <- broker: notify "Review.update"
voteC -> voteC: update(Review)
voteC_n <- broker: notify "Review.update"
voteC_n -> voteC_n: update(Review)


service -> controller: review
controller -> reviewC: review
reviewC -> client: review

@enduml

PlantUML version 1.2022.13(Sat Nov 19 13:22:17 WET 2022)
(GPL source distribution)
Java Runtime: OpenJDK Runtime Environment
JVM: OpenJDK 64-Bit Server VM
Default Encoding: Cp1252
Language: pt
Country: PT
--></g></svg>