<?xml version="1.0" encoding="UTF-8" standalone="no"?><svg xmlns="http://www.w3.org/2000/svg" xmlns:xlink="http://www.w3.org/1999/xlink" contentStyleType="text/css" height="736px" preserveAspectRatio="none" style="width:1438px;height:736px;background:#FFFFFF;" version="1.1" viewBox="0 0 1438 736" width="1438px" zoomAndPan="magnify"><defs/><g><text fill="#000000" font-family="sans-serif" font-size="14" font-weight="bold" lengthAdjust="spacing" textLength="302" x="567.25" y="30.1074">Obtain all my reviews including their status</text><rect fill="#FFFFFF" height="510.6953" style="stroke:#181818;stroke-width:1.0;" width="10" x="21" y="133.2422"/><rect fill="#FFFFFF" height="9" style="stroke:#181818;stroke-width:1.0;" width="10" x="26" y="634.9375"/><rect fill="#FFFFFF" height="487.4043" style="stroke:#181818;stroke-width:1.0;" width="10" x="215" y="156.5332"/><rect fill="#FFFFFF" height="415.8223" style="stroke:#181818;stroke-width:1.0;" width="10" x="409" y="187.8242"/><rect fill="#FFFFFF" height="37.291" style="stroke:#181818;stroke-width:1.0;" width="10" x="747" y="219.1152"/><rect fill="#FFFFFF" height="43.291" style="stroke:#181818;stroke-width:1.0;" width="10" x="747" y="529.0645"/><rect fill="#FFFFFF" height="31.291" style="stroke:#181818;stroke-width:1.0;" width="10" x="1081" y="357.2793"/><rect fill="#FFFFFF" height="31.291" style="stroke:#181818;stroke-width:1.0;" width="10" x="1370.5" y="294.6973"/><rect fill="none" height="138.4941" style="stroke:#000000;stroke-width:1.5;" width="675" x="643.5" y="403.5703"/><line style="stroke:#181818;stroke-width:0.5;stroke-dasharray:5.0,5.0;" x1="26" x2="26" y1="123.2422" y2="652.9375"/><line style="stroke:#181818;stroke-width:0.5;stroke-dasharray:5.0,5.0;" x1="220" x2="220" y1="123.2422" y2="652.9375"/><line style="stroke:#181818;stroke-width:0.5;stroke-dasharray:5.0,5.0;" x1="413.5" x2="413.5" y1="123.2422" y2="652.9375"/><line style="stroke:#181818;stroke-width:0.5;stroke-dasharray:5.0,5.0;" x1="751.5" x2="751.5" y1="123.2422" y2="652.9375"/><line style="stroke:#181818;stroke-width:0.5;stroke-dasharray:5.0,5.0;" x1="1085.5" x2="1085.5" y1="123.2422" y2="652.9375"/><line style="stroke:#181818;stroke-width:0.5;stroke-dasharray:5.0,5.0;" x1="1261.5" x2="1261.5" y1="454.6719" y2="652.9375"/><line style="stroke:#181818;stroke-width:0.5;stroke-dasharray:5.0,5.0;" x1="1375.5" x2="1375.5" y1="123.2422" y2="652.9375"/><text fill="#000000" font-family="sans-serif" font-size="14" lengthAdjust="spacing" textLength="36" x="5" y="119.7285">Client</text><ellipse cx="26" cy="53.1211" fill="#E2E2F0" rx="8" ry="8" style="stroke:#181818;stroke-width:0.5;"/><path d="M26,61.1211 L26,88.1211 M13,69.1211 L39,69.1211 M26,88.1211 L13,103.1211 M26,88.1211 L39,103.1211 " fill="none" style="stroke:#181818;stroke-width:0.5;"/><text fill="#000000" font-family="sans-serif" font-size="14" lengthAdjust="spacing" textLength="36" x="5" y="667.0449">Client</text><ellipse cx="26" cy="679.0586" fill="#E2E2F0" rx="8" ry="8" style="stroke:#181818;stroke-width:0.5;"/><path d="M26,687.0586 L26,714.0586 M13,695.0586 L39,695.0586 M26,714.0586 L13,729.0586 M26,714.0586 L39,729.0586 " fill="none" style="stroke:#181818;stroke-width:0.5;"/><rect fill="#E2E2F0" height="32.6211" rx="2.5" ry="2.5" style="stroke:#181818;stroke-width:0.5;" width="90" x="175" y="89.6211"/><text fill="#000000" font-family="sans-serif" font-size="14" lengthAdjust="spacing" textLength="76" x="182" y="111.7285">:ReviewQ_n</text><rect fill="#E2E2F0" height="32.6211" rx="2.5" ry="2.5" style="stroke:#181818;stroke-width:0.5;" width="90" x="175" y="651.9375"/><text fill="#000000" font-family="sans-serif" font-size="14" lengthAdjust="spacing" textLength="76" x="182" y="674.0449">:ReviewQ_n</text><rect fill="#E2E2F0" height="32.6211" rx="2.5" ry="2.5" style="stroke:#181818;stroke-width:0.5;" width="121" x="353.5" y="89.6211"/><text fill="#000000" font-family="sans-serif" font-size="14" lengthAdjust="spacing" textLength="107" x="360.5" y="111.7285">ReviewController</text><rect fill="#E2E2F0" height="32.6211" rx="2.5" ry="2.5" style="stroke:#181818;stroke-width:0.5;" width="121" x="353.5" y="651.9375"/><text fill="#000000" font-family="sans-serif" font-size="14" lengthAdjust="spacing" textLength="107" x="360.5" y="674.0449">ReviewController</text><rect fill="#E2E2F0" height="32.6211" rx="2.5" ry="2.5" style="stroke:#181818;stroke-width:0.5;" width="197" x="653.5" y="89.6211"/><text fill="#000000" font-family="sans-serif" font-size="14" lengthAdjust="spacing" textLength="183" x="660.5" y="111.7285">reviewService:ReviewService</text><rect fill="#E2E2F0" height="32.6211" rx="2.5" ry="2.5" style="stroke:#181818;stroke-width:0.5;" width="197" x="653.5" y="651.9375"/><text fill="#000000" font-family="sans-serif" font-size="14" lengthAdjust="spacing" textLength="183" x="660.5" y="674.0449">reviewService:ReviewService</text><rect fill="#E2E2F0" height="32.6211" rx="2.5" ry="2.5" style="stroke:#181818;stroke-width:0.5;" width="239" x="966.5" y="89.6211"/><text fill="#000000" font-family="sans-serif" font-size="14" lengthAdjust="spacing" textLength="225" x="973.5" y="111.7285">reviewRepository:ReviewRepository</text><rect fill="#E2E2F0" height="32.6211" rx="2.5" ry="2.5" style="stroke:#181818;stroke-width:0.5;" width="239" x="966.5" y="651.9375"/><text fill="#000000" font-family="sans-serif" font-size="14" lengthAdjust="spacing" textLength="225" x="973.5" y="674.0449">reviewRepository:ReviewRepository</text><rect fill="#E2E2F0" height="32.6211" rx="2.5" ry="2.5" style="stroke:#181818;stroke-width:0.5;" width="93" x="1215.5" y="651.9375"/><text fill="#000000" font-family="sans-serif" font-size="14" lengthAdjust="spacing" textLength="79" x="1222.5" y="674.0449">:ReviewDTO</text><rect fill="#E2E2F0" height="32.6211" rx="2.5" ry="2.5" style="stroke:#181818;stroke-width:0.5;" width="114" x="1318.5" y="89.6211"/><text fill="#000000" font-family="sans-serif" font-size="14" lengthAdjust="spacing" textLength="100" x="1325.5" y="111.7285">:JWTRepository</text><rect fill="#E2E2F0" height="32.6211" rx="2.5" ry="2.5" style="stroke:#181818;stroke-width:0.5;" width="114" x="1318.5" y="651.9375"/><text fill="#000000" font-family="sans-serif" font-size="14" lengthAdjust="spacing" textLength="100" x="1325.5" y="674.0449">:JWTRepository</text><rect fill="#FFFFFF" height="510.6953" style="stroke:#181818;stroke-width:1.0;" width="10" x="21" y="133.2422"/><rect fill="#FFFFFF" height="9" style="stroke:#181818;stroke-width:1.0;" width="10" x="26" y="634.9375"/><rect fill="#FFFFFF" height="487.4043" style="stroke:#181818;stroke-width:1.0;" width="10" x="215" y="156.5332"/><rect fill="#FFFFFF" height="415.8223" style="stroke:#181818;stroke-width:1.0;" width="10" x="409" y="187.8242"/><rect fill="#FFFFFF" height="37.291" style="stroke:#181818;stroke-width:1.0;" width="10" x="747" y="219.1152"/><rect fill="#FFFFFF" height="43.291" style="stroke:#181818;stroke-width:1.0;" width="10" x="747" y="529.0645"/><rect fill="#FFFFFF" height="31.291" style="stroke:#181818;stroke-width:1.0;" width="10" x="1081" y="357.2793"/><rect fill="#FFFFFF" height="31.291" style="stroke:#181818;stroke-width:1.0;" width="10" x="1370.5" y="294.6973"/><polygon fill="#181818" points="203,152.5332,213,156.5332,203,160.5332,207,156.5332" style="stroke:#181818;stroke-width:1.0;"/><line style="stroke:#181818;stroke-width:1.0;" x1="31" x2="209" y1="156.5332" y2="156.5332"/><text fill="#000000" font-family="sans-serif" font-size="13" font-weight="bold" lengthAdjust="spacing" textLength="7" x="38" y="151.2705">1</text><text fill="#000000" font-family="sans-serif" font-size="13" lengthAdjust="spacing" textLength="154" x="49" y="151.2705">GET /reviews/user/{idUser}</text><polygon fill="#181818" points="397,183.8242,407,187.8242,397,191.8242,401,187.8242" style="stroke:#181818;stroke-width:1.0;"/><line style="stroke:#181818;stroke-width:1.0;" x1="225" x2="403" y1="187.8242" y2="187.8242"/><text fill="#000000" font-family="sans-serif" font-size="13" font-weight="bold" lengthAdjust="spacing" textLength="7" x="232" y="182.5615">2</text><text fill="#000000" font-family="sans-serif" font-size="13" lengthAdjust="spacing" textLength="154" x="243" y="182.5615">GET /reviews/user/{idUser}</text><polygon fill="#181818" points="735,215.1152,745,219.1152,735,223.1152,739,219.1152" style="stroke:#181818;stroke-width:1.0;"/><line style="stroke:#181818;stroke-width:1.0;" x1="419" x2="741" y1="219.1152" y2="219.1152"/><text fill="#000000" font-family="sans-serif" font-size="13" font-weight="bold" lengthAdjust="spacing" textLength="7" x="426" y="213.8525">3</text><text fill="#000000" font-family="sans-serif" font-size="13" lengthAdjust="spacing" textLength="298" x="437" y="213.8525">reviewService.findAllReviewsByUser(idUser,request)</text><line style="stroke:#181818;stroke-width:1.0;stroke-dasharray:2.0,2.0;" x1="757" x2="799" y1="255.4063" y2="255.4063"/><line style="stroke:#181818;stroke-width:1.0;stroke-dasharray:2.0,2.0;" x1="799" x2="799" y1="255.4063" y2="268.4063"/><line style="stroke:#181818;stroke-width:1.0;stroke-dasharray:2.0,2.0;" x1="752" x2="799" y1="268.4063" y2="268.4063"/><polygon fill="#181818" points="762,264.4063,752,268.4063,762,272.4063,758,268.4063" style="stroke:#181818;stroke-width:1.0;"/><text fill="#000000" font-family="sans-serif" font-size="13" font-weight="bold" lengthAdjust="spacing" textLength="7" x="764" y="250.1436">4</text><text fill="#000000" font-family="sans-serif" font-size="13" lengthAdjust="spacing" textLength="102" x="775" y="250.1436">parseJwt(request)</text><polygon fill="#181818" points="1358.5,290.6973,1368.5,294.6973,1358.5,298.6973,1362.5,294.6973" style="stroke:#181818;stroke-width:1.0;"/><line style="stroke:#181818;stroke-width:1.0;" x1="752" x2="1364.5" y1="294.6973" y2="294.6973"/><text fill="#000000" font-family="sans-serif" font-size="13" font-weight="bold" lengthAdjust="spacing" textLength="7" x="759" y="289.4346">5</text><text fill="#000000" font-family="sans-serif" font-size="13" lengthAdjust="spacing" textLength="86" x="770" y="289.4346">findByJWT(jwt)</text><polygon fill="#181818" points="763,321.9883,753,325.9883,763,329.9883,759,325.9883" style="stroke:#181818;stroke-width:1.0;"/><line style="stroke:#181818;stroke-width:1.0;stroke-dasharray:2.0,2.0;" x1="757" x2="1374.5" y1="325.9883" y2="325.9883"/><text fill="#000000" font-family="sans-serif" font-size="13" font-weight="bold" lengthAdjust="spacing" textLength="7" x="769" y="320.7256">6</text><text fill="#000000" font-family="sans-serif" font-size="13" lengthAdjust="spacing" textLength="25" x="780" y="320.7256">user</text><polygon fill="#181818" points="1069,353.2793,1079,357.2793,1069,361.2793,1073,357.2793" style="stroke:#181818;stroke-width:1.0;"/><line style="stroke:#181818;stroke-width:1.0;" x1="752" x2="1075" y1="357.2793" y2="357.2793"/><text fill="#000000" font-family="sans-serif" font-size="13" font-weight="bold" lengthAdjust="spacing" textLength="7" x="759" y="352.0166">7</text><text fill="#000000" font-family="sans-serif" font-size="13" lengthAdjust="spacing" textLength="299" x="770" y="352.0166">reviewRepository.findAllReviewsByUser(user.getId())</text><polygon fill="#181818" points="763,384.5703,753,388.5703,763,392.5703,759,388.5703" style="stroke:#181818;stroke-width:1.0;"/><line style="stroke:#181818;stroke-width:1.0;stroke-dasharray:2.0,2.0;" x1="757" x2="1085" y1="388.5703" y2="388.5703"/><text fill="#000000" font-family="sans-serif" font-size="13" font-weight="bold" lengthAdjust="spacing" textLength="7" x="769" y="383.3076">8</text><text fill="#000000" font-family="sans-serif" font-size="13" lengthAdjust="spacing" textLength="42" x="780" y="383.3076">reviews</text><path d="M643.5,403.5703 L716.5,403.5703 L716.5,412.8613 L706.5,422.8613 L643.5,422.8613 L643.5,403.5703 " fill="#EEEEEE" style="stroke:#000000;stroke-width:1.5;"/><rect fill="none" height="138.4941" style="stroke:#000000;stroke-width:1.5;" width="675" x="643.5" y="403.5703"/><text fill="#000000" font-family="sans-serif" font-size="13" font-weight="bold" lengthAdjust="spacing" textLength="28" x="658.5" y="418.5986">loop</text><text fill="#000000" font-family="sans-serif" font-size="11" font-weight="bold" lengthAdjust="spacing" textLength="165" x="731.5" y="417.4404">[for each "review" in reviews]</text><polygon fill="#181818" points="1203.5,442.1523,1213.5,446.1523,1203.5,450.1523,1207.5,446.1523" style="stroke:#181818;stroke-width:1.0;"/><line style="stroke:#181818;stroke-width:1.0;" x1="752" x2="1209.5" y1="446.1523" y2="446.1523"/><text fill="#000000" font-family="sans-serif" font-size="13" font-weight="bold" lengthAdjust="spacing" textLength="7" x="759" y="440.8896">9</text><text fill="#000000" font-family="sans-serif" font-size="13" lengthAdjust="spacing" textLength="140" x="770" y="440.8896">new ReviewDTO(review))</text><rect fill="#E2E2F0" height="32.6211" rx="2.5" ry="2.5" style="stroke:#181818;stroke-width:0.5;" width="93" x="1215.5" y="422.8613"/><text fill="#000000" font-family="sans-serif" font-size="14" lengthAdjust="spacing" textLength="79" x="1222.5" y="444.9688">:ReviewDTO</text><polygon fill="#181818" points="763,485.7734,753,489.7734,763,493.7734,759,489.7734" style="stroke:#181818;stroke-width:1.0;"/><line style="stroke:#181818;stroke-width:1.0;stroke-dasharray:2.0,2.0;" x1="757" x2="1261" y1="489.7734" y2="489.7734"/><text fill="#000000" font-family="sans-serif" font-size="13" font-weight="bold" lengthAdjust="spacing" textLength="14" x="769" y="484.5107">10</text><text fill="#000000" font-family="sans-serif" font-size="13" lengthAdjust="spacing" textLength="61" x="787" y="484.5107">reviewDTO</text><line style="stroke:#181818;stroke-width:1.0;" x1="752" x2="799" y1="516.0645" y2="516.0645"/><line style="stroke:#181818;stroke-width:1.0;" x1="799" x2="799" y1="516.0645" y2="529.0645"/><line style="stroke:#181818;stroke-width:1.0;" x1="758" x2="799" y1="529.0645" y2="529.0645"/><polygon fill="#181818" points="768,525.0645,758,529.0645,768,533.0645,764,529.0645" style="stroke:#181818;stroke-width:1.0;"/><text fill="#000000" font-family="sans-serif" font-size="13" font-weight="bold" lengthAdjust="spacing" textLength="14" x="764" y="510.8018">11</text><text fill="#000000" font-family="sans-serif" font-size="13" lengthAdjust="spacing" textLength="167" x="782" y="510.8018">reviewsUser.add(reviewDTO);</text><polygon fill="#181818" points="430,568.3555,420,572.3555,430,576.3555,426,572.3555" style="stroke:#181818;stroke-width:1.0;"/><line style="stroke:#181818;stroke-width:1.0;stroke-dasharray:2.0,2.0;" x1="424" x2="751" y1="572.3555" y2="572.3555"/><text fill="#000000" font-family="sans-serif" font-size="13" font-weight="bold" lengthAdjust="spacing" textLength="14" x="436" y="567.0928">12</text><text fill="#000000" font-family="sans-serif" font-size="13" lengthAdjust="spacing" textLength="68" x="454" y="567.0928">reviewsDTO</text><polygon fill="#181818" points="236,599.6465,226,603.6465,236,607.6465,232,603.6465" style="stroke:#181818;stroke-width:1.0;"/><line style="stroke:#181818;stroke-width:1.0;stroke-dasharray:2.0,2.0;" x1="230" x2="413" y1="603.6465" y2="603.6465"/><text fill="#000000" font-family="sans-serif" font-size="13" font-weight="bold" lengthAdjust="spacing" textLength="14" x="242" y="598.3838">13</text><text fill="#000000" font-family="sans-serif" font-size="13" lengthAdjust="spacing" textLength="77" x="260" y="598.3838">list of reviews</text><polygon fill="#181818" points="47,630.9375,37,634.9375,47,638.9375,43,634.9375" style="stroke:#181818;stroke-width:1.0;"/><line style="stroke:#181818;stroke-width:1.0;" x1="41" x2="214" y1="634.9375" y2="634.9375"/><text fill="#000000" font-family="sans-serif" font-size="13" font-weight="bold" lengthAdjust="spacing" textLength="14" x="53" y="629.6748">14</text><text fill="#000000" font-family="sans-serif" font-size="13" lengthAdjust="spacing" textLength="77" x="71" y="629.6748">list of reviews</text><!--MD5=[953c03284cdf8ab91ad47f96d4e90d92]
@startuml
'https://plantuml.com/sequence-diagram

title Obtain all my reviews including their status
autoactivate on
autonumber

actor "Client" as Client
participant ":ReviewQ_n" as reviewQ
participant "ReviewController" as Ctrl
participant "reviewService:ReviewService" as service
participant "reviewRepository:ReviewRepository" as Repo
participant ":ReviewDTO" as reviewDTO
participant ":JWTRepository" as jwtRepository

activate Client

Client -> reviewQ : GET /reviews/user/{idUser}
reviewQ -> Ctrl: GET /reviews/user/{idUser}
Ctrl -> service : reviewService.findAllReviewsByUser(idUser,request)
service - -> service : parseJwt(request)
service -> jwtRepository: findByJWT(jwt)
jwtRepository - -> service: user
service -> Repo: reviewRepository.findAllReviewsByUser(user.getId())
Repo - -> service: reviews
loop for each "review" in reviews

    service -> reviewDTO**: new ReviewDTO(review))
    reviewDTO - -> service: reviewDTO
    service -> service: reviewsUser.add(reviewDTO);
end loop
service - -> Ctrl: reviewsDTO
Ctrl - -> reviewQ: list of reviews
reviewQ -> Client: list of reviews

@enduml

@startuml

title Obtain all my reviews including their status
autoactivate on
autonumber

actor "Client" as Client
participant ":ReviewQ_n" as reviewQ
participant "ReviewController" as Ctrl
participant "reviewService:ReviewService" as service
participant "reviewRepository:ReviewRepository" as Repo
participant ":ReviewDTO" as reviewDTO
participant ":JWTRepository" as jwtRepository

activate Client

Client -> reviewQ : GET /reviews/user/{idUser}
reviewQ -> Ctrl: GET /reviews/user/{idUser}
Ctrl -> service : reviewService.findAllReviewsByUser(idUser,request)
service - -> service : parseJwt(request)
service -> jwtRepository: findByJWT(jwt)
jwtRepository - -> service: user
service -> Repo: reviewRepository.findAllReviewsByUser(user.getId())
Repo - -> service: reviews
loop for each "review" in reviews

    service -> reviewDTO**: new ReviewDTO(review))
    reviewDTO - -> service: reviewDTO
    service -> service: reviewsUser.add(reviewDTO);
end loop
service - -> Ctrl: reviewsDTO
Ctrl - -> reviewQ: list of reviews
reviewQ -> Client: list of reviews

@enduml

PlantUML version 1.2022.13(Sat Nov 19 13:22:17 WET 2022)
(GPL source distribution)
Java Runtime: OpenJDK Runtime Environment
JVM: OpenJDK 64-Bit Server VM
Default Encoding: Cp1252
Language: pt
Country: PT
--></g></svg>